<svg width="20" height="20" viewBox="0 0 20 20" fill="none" xmlns="http://www.w3.org/2000/svg">
<g clip-path="url(#clip0_1_552)">
<path d="M19.756 0.244233C19.5997 0.088007 19.3878 0.000244141 19.1669 0.000244141C18.9459 0.000244141 18.734 0.088007 18.5777 0.244233L10.0002 8.82173L1.42269 0.244233C1.26642 0.088007 1.05449 0.000244141 0.833522 0.000244141C0.612551 0.000244141 0.400628 0.088007 0.244355 0.244233C0.0881291 0.400506 0.000366211 0.612429 0.000366211 0.833399C0.000366211 1.05437 0.0881291 1.26629 0.244355 1.42257L8.82185 10.0001L0.244355 18.5776C0.0881291 18.7338 0.000366211 18.9458 0.000366211 19.1667C0.000366211 19.3877 0.0881291 19.5996 0.244355 19.7559C0.400628 19.9121 0.612551 19.9999 0.833522 19.9999C1.05449 19.9999 1.26642 19.9121 1.42269 19.7559L10.0002 11.1784L18.5777 19.7559C18.734 19.9121 18.9459 19.9999 19.1669 19.9999C19.3878 19.9999 19.5997 19.9121 19.756 19.7559C19.9122 19.5996 20 19.3877 20 19.1667C20 18.9458 19.9122 18.7338 19.756 18.5776L11.1785 10.0001L19.756 1.42257C19.9122 1.26629 20 1.05437 20 0.833399C20 0.612429 19.9122 0.400506 19.756 0.244233Z" fill="#E90808"/>
</g>
<defs>
<clipPath id="clip0_1_552">
<rect width="20" height="20" fill="white"/>
</clipPath>
</defs>
</svg>
