<svg width="50" height="50" viewBox="0 0 50 50" fill="none" xmlns="http://www.w3.org/2000/svg">
<path d="M42.6958 16.5992L22.8208 2.01586C21.2685 0.879159 19.4317 0.194595 17.5141 0.0380721C15.5965 -0.118451 13.673 0.259183 11.9569 1.1291C10.2408 1.99902 8.79912 3.32723 7.79179 4.96645C6.78446 6.60567 6.2508 8.49186 6.25 10.4159V39.5825C6.25034 41.5074 6.78403 43.3945 7.79182 45.0345C8.79962 46.6744 10.2421 48.0031 11.9592 48.873C13.6763 49.7428 15.6009 50.1199 17.5193 49.9624C19.4377 49.8048 21.2749 49.1188 22.8271 47.9804L42.7021 33.3971C44.0214 32.4296 45.0943 31.1649 45.8338 29.7056C46.5733 28.2462 46.9586 26.6332 46.9586 24.9971C46.9586 23.3611 46.5733 21.748 45.8338 20.2886C45.0943 18.8293 44.0214 17.5646 42.7021 16.5971L42.6958 16.5992ZM40.2292 30.0367L20.3542 44.62C19.423 45.3005 18.3216 45.71 17.172 45.8033C16.0225 45.8965 14.8695 45.6699 13.8408 45.1484C12.812 44.6269 11.9477 43.831 11.3433 42.8486C10.739 41.8663 10.4183 40.7359 10.4167 39.5825V10.4159C10.4051 9.26033 10.7198 8.12499 11.3245 7.14028C11.9293 6.15557 12.7996 5.36146 13.8354 4.84919C14.7164 4.40105 15.6907 4.16694 16.6792 4.16586C18.0039 4.17092 19.2921 4.60104 20.3542 5.39294L40.2292 19.9763C41.0198 20.5569 41.6626 21.3154 42.1057 22.1906C42.5488 23.0657 42.7797 24.0329 42.7797 25.0138C42.7797 25.9947 42.5488 26.9618 42.1057 27.837C41.6626 28.7121 41.0198 29.4707 40.2292 30.0513V30.0367Z" fill="#EE2524"/>
</svg>
