<svg width="70" height="70" viewBox="0 0 70 70" fill="none" xmlns="http://www.w3.org/2000/svg">
<path d="M12.5438 38.065C14.0605 40.3511 15.7772 42.583 17.6899 44.7287C18.4662 45.5996 19.2736 46.4567 20.1139 47.297C20.5478 47.7309 20.9875 48.1532 21.4298 48.5701C21.8467 49.0124 22.269 49.4521 22.7029 49.886C23.5432 50.7263 24.4003 51.5337 25.2712 52.31C27.4169 54.2227 29.6488 55.9394 31.9349 57.4561C42.8586 64.7033 55.0169 67.3701 64.9177 64.9028C65.7421 60.6189 65.9914 56.3089 65.6544 52.1002C65.4579 49.6456 65.0606 47.2265 64.4648 44.8666C58.8542 43.45 52.9052 43.1655 46.9577 43.9937C45.2018 45.0697 43.4869 46.257 41.8234 47.555C40.8042 47.0243 39.8064 46.4476 38.8315 45.8264C36.4461 44.3065 34.1998 42.5186 32.1351 40.4538L29.5461 37.8648C27.4813 35.8001 25.6933 33.5538 24.1735 31.1684C23.5523 30.1935 22.9756 29.1957 22.4449 28.1765C23.7429 26.513 24.9302 24.7981 26.0062 23.0422C26.8343 17.0947 26.5499 11.1457 25.1334 5.53512C22.7734 4.9393 20.3543 4.54204 17.8997 4.3455C13.691 4.00847 9.38099 4.25785 5.09707 5.08223C2.62977 14.983 5.29657 27.1413 12.5438 38.065Z" fill="#EE2524"/>
</svg>
