<svg width="70" height="70" viewBox="0 0 70 70" fill="none" xmlns="http://www.w3.org/2000/svg">
<path d="M59.0003 24.8504C57.2536 13.1635 47.1737 4.2002 35.0003 4.2002C22.827 4.2002 12.7471 13.1635 11.0004 24.8504C10.6782 27.006 10.8901 29.2064 11.5619 31.2798C12.1436 33.0751 12.943 35.2304 14.0364 37.5834C14.8666 39.3701 16.282 42.1618 20.5399 47.9578C22.0475 50.0101 23.9085 52.4358 26.2303 55.3315C28.3296 57.9496 31.2958 61.5638 35.0003 65.8002C38.7049 61.5638 41.6711 57.9496 43.7703 55.3315C46.0922 52.4358 47.9532 50.0101 49.4608 47.9578C53.7187 42.1618 55.1341 39.3701 55.9643 37.5834C57.0576 35.2304 57.8571 33.0751 58.4387 31.2798C59.1105 29.2064 59.3224 27.006 59.0003 24.8504ZM35.0617 37.1913C28.248 37.1913 22.7243 31.9466 22.7243 25.477C22.7243 19.0074 28.248 13.7627 35.0617 13.7627C41.8755 13.7627 47.3991 19.0074 47.3991 25.477C47.3991 31.9466 41.8755 37.1913 35.0617 37.1913Z" fill="#EE2524"/>
</svg>
