<svg width="16" height="17" viewBox="0 0 16 17" fill="none" xmlns="http://www.w3.org/2000/svg">
<path d="M11.45 0.966702L3.92498 3.4667C-1.13336 5.15837 -1.13336 7.9167 3.92498 9.60004L6.15831 10.3417L6.89998 12.575C8.58331 17.6334 11.35 17.6334 13.0333 12.575L15.5416 5.05837C16.6583 1.68337 14.825 -0.158298 11.45 0.966702ZM11.7166 5.45004L8.54998 8.63337C8.42498 8.75837 8.26664 8.8167 8.10831 8.8167C7.94998 8.8167 7.79164 8.75837 7.66664 8.63337C7.42498 8.3917 7.42498 7.9917 7.66664 7.75004L10.8333 4.5667C11.075 4.32504 11.475 4.32504 11.7166 4.5667C11.9583 4.80837 11.9583 5.20837 11.7166 5.45004Z" fill="white"/>
</svg>
