<svg width="43" height="43" viewBox="0 0 43 43" fill="none" xmlns="http://www.w3.org/2000/svg">
<path d="M30.9062 19.2604H42.1042C42.5989 19.2604 43 19.6615 43 20.1562V24.1875C43 24.6823 42.5989 25.0833 42.1042 25.0833H30.9062C31.4468 22.8105 31.3946 21.5339 30.9062 19.2604Z" fill="#EE2524"/>
<path d="M8.95833 37.625H26.4271C26.6543 37.625 26.8617 37.5404 27.0196 37.401C25.5312 32.25 24.2474 33.4332 21.276 31.8021H8.95833C8.46358 31.8021 8.0625 32.2032 8.0625 32.6979V36.7292C8.0625 37.2239 8.46358 37.625 8.95833 37.625Z" fill="#EE2524"/>
<path d="M24.1875 0H0.895833C0.401078 0 0 0.401078 0 0.895833V5.82292C0 6.31767 0.401078 6.71875 0.895833 6.71875H12.7656V5.74433C12.7656 5.64805 12.7781 5.55058 12.827 5.46762C12.9641 5.23477 13.2914 4.92708 13.8854 4.92708H23.4861C23.7856 4.92708 24.0633 5.07678 24.2295 5.326L24.3622 5.52505C24.395 5.5742 24.4228 5.62647 24.4453 5.6811L24.7801 6.49479C24.966 6.33064 25.0833 6.09048 25.0833 5.82292V0.895833C25.0833 0.401078 24.6823 0 24.1875 0Z" fill="#EE2524"/>
<path d="M17.4687 11.4219C17.4687 12.0403 16.9674 12.5417 16.349 12.5417C15.7305 12.5417 15.2292 12.0403 15.2292 11.4219C15.2292 10.8034 15.7305 10.3021 16.349 10.3021C16.9674 10.3021 17.4687 10.8034 17.4687 11.4219Z" fill="#EE2524"/>
<path d="M22.8437 13.6615C22.8437 14.2799 22.3424 14.7812 21.724 14.7812C21.1055 14.7812 20.6042 14.2799 20.6042 13.6615C20.6042 13.043 21.1055 12.5417 21.724 12.5417C22.3424 12.5417 22.8437 13.043 22.8437 13.6615Z" fill="#EE2524"/>
<path d="M17.4687 17.2448C17.4687 17.8632 16.9674 18.3646 16.349 18.3646C15.7305 18.3646 15.2292 17.8632 15.2292 17.2448C15.2292 16.6263 15.7305 16.125 16.349 16.125C16.9674 16.125 17.4687 16.6263 17.4687 17.2448Z" fill="#EE2524"/>
<path d="M23.7396 20.8281C23.7396 21.4466 23.2382 21.9479 22.6198 21.9479C22.0013 21.9479 21.5 21.4466 21.5 20.8281C21.5 20.2097 22.0013 19.7083 22.6198 19.7083C23.2382 19.7083 23.7396 20.2097 23.7396 20.8281Z" fill="#EE2524"/>
<path d="M36.7511 4.89431C36.8852 4.48163 37.469 4.48164 37.6031 4.89431L38.1828 6.67826C38.2427 6.86281 38.4147 6.98776 38.6088 6.98776H40.4845C40.9184 6.98776 41.0988 7.54301 40.7478 7.79805L39.2303 8.90059C39.0733 9.01465 39.0076 9.21683 39.0676 9.40138L39.6472 11.1853C39.7813 11.598 39.309 11.9412 38.9579 11.6861L37.4404 10.5836C37.2834 10.4695 37.0708 10.4695 36.9139 10.5836L35.3963 11.6861C35.0453 11.9412 34.573 11.598 34.7071 11.1853L35.2867 9.40138C35.3467 9.21683 35.281 9.01465 35.124 8.90059L33.6065 7.79805C33.2554 7.54301 33.4358 6.98776 33.8697 6.98776H35.7455C35.9396 6.98776 36.1115 6.86281 36.1715 6.67826L36.7511 4.89431Z" fill="#EE2524"/>
<path d="M5.31956 23.0559C5.4075 22.773 5.79041 22.773 5.87835 23.0559L6.25852 24.2785C6.29785 24.405 6.41065 24.4907 6.53792 24.4907H7.76816C8.05275 24.4907 8.17107 24.8712 7.94084 25.046L6.94555 25.8017C6.84258 25.8799 6.7995 26.0184 6.83883 26.1449L7.219 27.3676C7.30694 27.6504 6.99716 27.8856 6.76692 27.7108L5.77163 26.9552C5.66867 26.877 5.52925 26.877 5.42628 26.9552L4.43099 27.7108C4.20076 27.8856 3.89098 27.6504 3.97892 27.3676L4.35909 26.1449C4.39842 26.0184 4.35533 25.8799 4.25237 25.8017L3.25708 25.046C3.02684 24.8712 3.14517 24.4907 3.42975 24.4907H4.66C4.78727 24.4907 4.90007 24.405 4.9394 24.2785L5.31956 23.0559Z" fill="#EE2524"/>
<path d="M12.7528 8.80463C12.7528 8.80463 11.2987 7.10854 10.814 8.56244C10.3294 10.0163 12.7528 12.1976 12.7528 12.1976" fill="white"/>
<path d="M11.6753 21.3675C10.6877 20.0289 10.2441 17.6113 12.7489 17.5293L12.7488 18.6357C16.3271 21.3675 12.6629 22.7061 11.6753 21.3675Z" fill="white"/>
<path d="M11.6753 26.2144C10.6877 24.8758 10.2441 22.2158 12.7489 22.1338L12.7488 23.4827C16.3271 26.2144 12.6629 27.553 11.6753 26.2144Z" fill="white"/>
<path d="M11.6753 17.0052C10.6877 15.6666 10.2441 13.2491 12.7489 13.1671L12.7488 14.2735C16.3271 17.0052 12.6629 18.3438 11.6753 17.0052Z" fill="white"/>
<path d="M22.7617 5.16968V4.92734L15.0066 4.92746V5.16968C15.0066 5.97274 15.6576 6.62375 16.4607 6.62375H21.3076C22.1107 6.62375 22.7617 5.97274 22.7617 5.16968Z" fill="white"/>
<path d="M17.9167 23.9637C17.9167 24.5821 17.4153 25.0835 16.7969 25.0835C16.1784 25.0835 15.6771 24.5821 15.6771 23.9637C15.6771 23.3453 16.1784 22.8439 16.7969 22.8439C17.4153 22.8439 17.9167 23.3453 17.9167 23.9637Z" fill="white"/>
<path d="M17.7002 23.2866C17.5919 23.3463 17.5525 23.4825 17.6123 23.5908C17.672 23.6991 17.8082 23.7385 17.9165 23.6788L17.7002 23.2866ZM22.6198 20.8283L22.728 21.0244C22.7989 20.9853 22.8431 20.9109 22.8437 20.83C22.8443 20.749 22.8012 20.674 22.7309 20.6338L22.6198 20.8283ZM16.3489 17.245L16.2247 17.0586C16.1601 17.1017 16.1225 17.1751 16.1251 17.2527C16.1278 17.3302 16.1704 17.4009 16.2378 17.4394L16.3489 17.245ZM21.7239 13.6616L21.8482 13.848C21.9169 13.8021 21.9548 13.7222 21.9469 13.64C21.9389 13.5578 21.8863 13.4867 21.8101 13.4549L21.7239 13.6616ZM16.4351 11.2153C16.3209 11.1677 16.1898 11.2217 16.1422 11.3359C16.0946 11.4501 16.1486 11.5812 16.2628 11.6288L16.4351 11.2153ZM25.0512 16.268C24.9961 16.1573 24.8617 16.1122 24.751 16.1673C24.6402 16.2224 24.5951 16.3568 24.6502 16.4675L25.0512 16.268ZM25.9792 18.6357L25.7787 18.7355C25.8141 18.8067 25.8846 18.8538 25.9639 18.8592C26.0433 18.8646 26.1195 18.8275 26.1643 18.7618L25.9792 18.6357ZM31.2381 21.2338L31.0149 21.2526L31.0149 21.253L31.2381 21.2338ZM31.3494 27.2231L31.5635 27.1573L31.3494 27.2231ZM12.5828 8.9504C12.6633 9.0443 12.8047 9.05517 12.8986 8.97466C12.9925 8.89416 13.0033 8.75277 12.9228 8.65887L12.5828 8.9504ZM12.603 12.3641C12.6949 12.4468 12.8365 12.4394 12.9193 12.3474C13.002 12.2555 12.9946 12.1139 12.9026 12.0311L12.603 12.3641ZM12.7489 17.5293L12.9728 17.5293C12.9728 17.4687 12.9482 17.4106 12.9046 17.3684C12.861 17.3262 12.8022 17.3035 12.7415 17.3055L12.7489 17.5293ZM11.6753 21.3675L11.8555 21.2345H11.8555L11.6753 21.3675ZM12.7488 18.6357L12.5249 18.6357C12.5249 18.7055 12.5574 18.7714 12.6129 18.8137L12.7488 18.6357ZM12.7489 22.1338L12.9728 22.1338C12.9728 22.0732 12.9482 22.0151 12.9046 21.9729C12.861 21.9307 12.8022 21.908 12.7415 21.91L12.7489 22.1338ZM11.6753 26.2144L11.8555 26.0814H11.8555L11.6753 26.2144ZM12.7488 23.4827L12.5249 23.4827C12.5249 23.5525 12.5574 23.6183 12.6129 23.6607L12.7488 23.4827ZM12.7489 13.1671L12.9728 13.1671C12.9728 13.1064 12.9482 13.0484 12.9046 13.0062C12.861 12.964 12.8022 12.9413 12.7415 12.9433L12.7489 13.1671ZM11.6753 17.0052L11.8555 16.8723H11.8555L11.6753 17.0052ZM12.7488 14.2735L12.5249 14.2735C12.5249 14.3433 12.5574 14.4091 12.6129 14.4515L12.7488 14.2735ZM22.7617 4.92734H22.9857C22.9857 4.86794 22.9621 4.81098 22.9201 4.76897C22.8781 4.72697 22.8211 4.70338 22.7617 4.70338L22.7617 4.92734ZM15.0066 4.92746L15.0066 4.7035C14.8829 4.7035 14.7827 4.80377 14.7827 4.92746H15.0066ZM23.8813 32.7971L23.8616 33.0202L23.8813 32.7971ZM27.9366 39.9907L27.9858 39.7722L27.9366 39.9907ZM27.2073 39.1012L26.9841 39.1187L27.2073 39.1012ZM35.4768 36.4371L35.2755 36.5352L35.4768 36.4371ZM35.3929 37.35L35.5713 37.4854L35.3929 37.35ZM17.8084 23.4827L17.9165 23.6788L22.728 21.0244L22.6198 20.8283L22.5116 20.6322L17.7002 23.2866L17.8084 23.4827ZM22.6198 20.8283L22.7309 20.6338L16.4601 17.0505L16.3489 17.245L16.2378 17.4394L22.5087 21.0227L22.6198 20.8283ZM16.3489 17.245L16.4732 17.4313L21.8482 13.848L21.7239 13.6616L21.5997 13.4753L16.2247 17.0586L16.3489 17.245ZM21.7239 13.6616L21.8101 13.4549L16.4351 11.2153L16.3489 11.422L16.2628 11.6288L21.6378 13.8684L21.7239 13.6616ZM24.8507 16.3678L24.6502 16.4675L25.7787 18.7355L25.9792 18.6357L26.1797 18.536L25.0512 16.268L24.8507 16.3678ZM25.9792 18.6357L26.1643 18.7618C26.4786 18.3002 26.5295 17.6493 26.4605 17.0393C26.3906 16.4216 26.1923 15.7959 25.9527 15.3477L25.7552 15.4533L25.5577 15.5589C25.7689 15.954 25.9515 16.5246 26.0154 17.0897C26.0802 17.6626 26.0178 18.1812 25.794 18.5097L25.9792 18.6357ZM25.7552 15.4533L25.9527 15.3477C25.5193 14.5369 25.0747 12.953 25.0747 11.646H24.8507H24.6268C24.6268 13.0265 25.0895 14.683 25.5577 15.5589L25.7552 15.4533ZM24.8507 11.646H25.0747C25.0747 11.0105 25.2348 10.5967 25.4745 10.335C25.7138 10.0738 26.0611 9.93295 26.5 9.90176L26.4842 9.67836L26.4683 9.45497C25.9523 9.49164 25.4829 9.66274 25.1442 10.0324C24.8059 10.4017 24.6268 10.9378 24.6268 11.646H24.8507ZM26.4842 9.67836L26.5 9.90176C26.5995 9.89469 26.7216 9.95671 26.8631 10.2179C26.9997 10.4697 27.1113 10.8333 27.2119 11.2493C27.3127 11.6658 27.3951 12.1011 27.4853 12.511C27.5725 12.9068 27.6681 13.2851 27.7945 13.5378L27.9948 13.4377L28.1951 13.3375C28.0975 13.1423 28.0117 12.8183 27.9228 12.4146C27.837 12.0251 27.7488 11.5638 27.6472 11.144C27.5456 10.7236 27.4232 10.3111 27.2569 10.0044C27.0957 9.70706 26.8463 9.42811 26.4683 9.45497L26.4842 9.67836ZM27.9948 13.4377L27.7945 13.5378C28.0226 13.994 28.7844 15.4161 29.5158 16.9917C29.881 17.7782 30.2361 18.598 30.5104 19.3475C30.7863 20.1015 30.9739 20.7676 31.0149 21.2526L31.2381 21.2338L31.4612 21.2149C31.415 20.6675 31.2096 19.955 30.931 19.1936C30.6508 18.4277 30.29 17.5954 29.9221 16.8031C29.1875 15.2207 28.4149 13.7771 28.1951 13.3375L27.9948 13.4377ZM31.2381 21.2338L31.0149 21.253C31.046 21.6141 31.028 22.0247 30.9915 22.4816C30.9559 22.9262 30.9001 23.4404 30.8636 23.9505C30.7891 24.9887 30.7819 26.1387 31.1353 27.2889L31.3494 27.2231L31.5635 27.1573C31.2346 26.0871 31.2371 25.0033 31.3103 23.9825C31.3476 23.4631 31.4001 22.9913 31.438 22.5173C31.4749 22.0554 31.4956 21.6144 31.4612 21.2146L31.2381 21.2338ZM31.3494 27.2231L31.1353 27.2889C31.4296 28.2465 32.2633 30.1434 33.1182 31.997C33.9761 33.8569 34.8643 35.6919 35.2755 36.5352L35.4768 36.4371L35.6781 36.3389C35.2675 35.4968 34.3809 33.665 33.525 31.8094C32.6662 29.9475 31.847 28.0802 31.5635 27.1573L31.3494 27.2231ZM12.7528 8.80463C12.9228 8.65887 12.9228 8.65881 12.9227 8.65875C12.9227 8.65872 12.9227 8.65865 12.9226 8.65859C12.9225 8.65848 12.9224 8.65833 12.9222 8.65816C12.922 8.65783 12.9216 8.65739 12.9211 8.65685C12.9202 8.65577 12.9189 8.65429 12.9173 8.65243C12.914 8.64871 12.9094 8.64346 12.9035 8.63683C12.8916 8.62358 12.8746 8.60478 12.853 8.58164C12.8098 8.53543 12.7479 8.47155 12.6721 8.39974C12.5221 8.25775 12.3104 8.07763 12.0763 7.94386C11.8489 7.81398 11.56 7.70448 11.2729 7.76829C10.9643 7.83687 10.7373 8.08454 10.6016 8.49161L10.814 8.56244L11.0265 8.63327C11.1331 8.31339 11.2697 8.22785 11.37 8.20554C11.4919 8.17847 11.6573 8.22039 11.8541 8.33279C12.0441 8.44131 12.2262 8.59434 12.364 8.72494C12.4321 8.78942 12.4876 8.84668 12.5258 8.88755C12.5449 8.90795 12.5596 8.92417 12.5693 8.93505C12.5741 8.94049 12.5777 8.94459 12.58 8.94719C12.5811 8.9485 12.5819 8.94943 12.5824 8.94997C12.5827 8.95024 12.5828 8.95041 12.5829 8.95049C12.5829 8.95052 12.5829 8.95053 12.5829 8.95052C12.5829 8.95051 12.5829 8.95048 12.5829 8.95048C12.5828 8.95044 12.5828 8.9504 12.7528 8.80463ZM10.814 8.56244L10.6016 8.49161C10.4571 8.92489 10.5353 9.39186 10.7038 9.82497C10.8731 10.2604 11.1436 10.6877 11.4225 11.0596C11.7024 11.4328 11.9969 11.7582 12.2207 11.9897C12.3328 12.1057 12.4277 12.1987 12.4948 12.2629C12.5284 12.295 12.5551 12.32 12.5735 12.3371C12.5828 12.3456 12.5899 12.3522 12.5949 12.3567C12.5974 12.359 12.5993 12.3607 12.6007 12.362C12.6013 12.3626 12.6019 12.3631 12.6023 12.3634C12.6025 12.3636 12.6026 12.3637 12.6027 12.3638C12.6028 12.3639 12.6029 12.364 12.6029 12.364C12.6029 12.364 12.603 12.3641 12.7528 12.1976C12.9026 12.0311 12.9027 12.0312 12.9027 12.0312C12.9027 12.0312 12.9027 12.0312 12.9027 12.0312C12.9026 12.0311 12.9026 12.0311 12.9025 12.031C12.9023 12.0308 12.9019 12.0305 12.9015 12.0301C12.9005 12.0292 12.8989 12.0278 12.8969 12.0259C12.8927 12.0221 12.8863 12.0162 12.8779 12.0085C12.8611 11.9929 12.8362 11.9696 12.8044 11.9392C12.7409 11.8785 12.6503 11.7896 12.5428 11.6784C12.3273 11.4555 12.0462 11.1447 11.7808 10.7909C11.5145 10.4357 11.27 10.0451 11.1212 9.66262C10.9716 9.27784 10.9286 8.92694 11.0265 8.63327L10.814 8.56244ZM12.7489 17.5293L12.7415 17.3055C12.0802 17.3271 11.5829 17.5042 11.2378 17.8071C10.8911 18.1113 10.7233 18.5204 10.6796 18.9547C10.5935 19.8095 10.9805 20.803 11.4951 21.5004L11.6753 21.3675L11.8555 21.2345C11.3825 20.5934 11.0539 19.7087 11.1253 18.9996C11.1603 18.652 11.2895 18.3576 11.5333 18.1437C11.7785 17.9284 12.1651 17.7725 12.7562 17.7532L12.7489 17.5293ZM11.6753 21.3675L11.4951 21.5004C11.7932 21.9045 12.2799 22.091 12.7524 22.1132C13.2242 22.1354 13.7226 21.9965 14.0702 21.6979C14.4308 21.388 14.6144 20.916 14.4443 20.3399C14.2804 19.7844 13.7947 19.1524 12.8847 18.4577L12.7488 18.6357L12.6129 18.8137C13.4921 19.4849 13.8902 20.0447 14.0147 20.4667C14.1332 20.8679 14.0099 21.1591 13.7783 21.3581C13.5337 21.5682 13.1545 21.6837 12.7734 21.6658C12.3929 21.6479 12.0512 21.4998 11.8555 21.2345L11.6753 21.3675ZM12.7488 18.6357L12.9728 18.6357L12.9728 17.5293L12.7489 17.5293L12.5249 17.5293L12.5249 18.6357L12.7488 18.6357ZM12.7489 22.1338L12.7415 21.91C12.0752 21.9318 11.5756 22.1267 11.2309 22.4558C10.887 22.7841 10.7224 23.2219 10.6795 23.6821C10.5945 24.5915 10.9767 25.6447 11.4951 26.3474L11.6753 26.2144L11.8555 26.0814C11.3863 25.4455 11.0529 24.4994 11.1254 23.7237C11.1612 23.3413 11.2936 23.0151 11.5402 22.7798C11.7859 22.5452 12.1701 22.3769 12.7562 22.3577L12.7489 22.1338ZM11.6753 26.2144L11.4951 26.3474C11.7932 26.7514 12.2799 26.9379 12.7524 26.9601C13.2242 26.9823 13.7226 26.8434 14.0702 26.5448C14.4308 26.235 14.6144 25.763 14.4443 25.1868C14.2804 24.6313 13.7947 23.9993 12.8847 23.3046L12.7488 23.4827L12.6129 23.6607C13.4921 24.3319 13.8902 24.8916 14.0147 25.3136C14.1332 25.7149 14.0099 26.0061 13.7783 26.205C13.5337 26.4152 13.1545 26.5307 12.7734 26.5127C12.3929 26.4948 12.0512 26.3467 11.8555 26.0814L11.6753 26.2144ZM12.7488 23.4827L12.9728 23.4827L12.9728 22.1338L12.7489 22.1338L12.5249 22.1338L12.5249 23.4827L12.7488 23.4827ZM12.7489 13.1671L12.7415 12.9433C12.0802 12.9649 11.5829 13.1419 11.2378 13.4448C10.8911 13.7491 10.7233 14.1581 10.6796 14.5925C10.5935 15.4473 10.9805 16.4408 11.4951 17.1382L11.6753 17.0052L11.8555 16.8723C11.3825 16.2311 11.0539 15.3465 11.1253 14.6374C11.1603 14.2898 11.2895 13.9954 11.5333 13.7815C11.7785 13.5662 12.1651 13.4103 12.7562 13.3909L12.7489 13.1671ZM11.6753 17.0052L11.4951 17.1382C11.7932 17.5422 12.2799 17.7288 12.7524 17.751C13.2242 17.7732 13.7226 17.6343 14.0702 17.3356C14.4308 17.0258 14.6144 16.5538 14.4443 15.9776C14.2804 15.4221 13.7947 14.7902 12.8847 14.0955L12.7488 14.2735L12.6129 14.4515C13.4921 15.1227 13.8902 15.6824 14.0147 16.1044C14.1332 16.5057 14.0099 16.7969 13.7783 16.9959C13.5337 17.206 13.1545 17.3215 12.7734 17.3036C12.3929 17.2857 12.0512 17.1376 11.8555 16.8723L11.6753 17.0052ZM12.7488 14.2735L12.9728 14.2735L12.9728 13.1671L12.7489 13.1671L12.5249 13.1671L12.5249 14.2735L12.7488 14.2735ZM13.7222 4.92725V5.1512H23.8813V4.92725V4.70329H13.7222V4.92725ZM12.7528 13.167H12.9768V5.89663H12.7528H12.5289V13.167H12.7528ZM13.7222 29.8647V29.6407C13.3105 29.6407 12.9768 29.307 12.9768 28.8953H12.7528H12.5289C12.5289 29.5544 13.0631 30.0886 13.7222 30.0886V29.8647ZM24.8507 28.8953H24.6268C24.6268 29.307 24.293 29.6407 23.8813 29.6407V29.8647V30.0886C24.5404 30.0886 25.0747 29.5544 25.0747 28.8953H24.8507ZM23.8813 4.92725V5.1512C23.8833 5.1512 23.9012 5.15157 23.9382 5.18068C23.976 5.2104 24.0216 5.26101 24.072 5.33709C24.1728 5.4893 24.27 5.70794 24.355 5.95572C24.5261 6.45469 24.6268 7.00685 24.6268 7.24038H24.8507H25.0747C25.0747 6.93853 24.9583 6.33413 24.7786 5.81038C24.6882 5.54679 24.5765 5.28753 24.4454 5.08968C24.3798 4.99074 24.3036 4.89827 24.2152 4.82868C24.126 4.75848 24.0132 4.70329 23.8813 4.70329V4.92725ZM13.7222 4.92725V4.70329C13.0631 4.70329 12.5289 5.23757 12.5289 5.89663H12.7528H12.9768C12.9768 5.48494 13.3105 5.1512 13.7222 5.1512V4.92725ZM22.7617 4.92734H22.5377V5.16968H22.7617H22.9857V4.92734H22.7617ZM22.7617 4.92734L22.7617 4.70338L15.0066 4.7035L15.0066 4.92746L15.0066 5.15142L22.7617 5.1513L22.7617 4.92734ZM15.0066 4.92746H14.7827V5.16968H15.0066H15.2306V4.92746H15.0066ZM16.4607 6.62375V6.84771H21.3076V6.62375V6.3998H16.4607V6.62375ZM15.0066 5.16968H14.7827C14.7827 6.09643 15.5339 6.84771 16.4607 6.84771V6.62375V6.3998C15.7813 6.3998 15.2306 5.84905 15.2306 5.16968H15.0066ZM22.7617 5.16968H22.5377C22.5377 5.84905 21.987 6.3998 21.3076 6.3998V6.62375V6.84771C22.2344 6.84771 22.9857 6.09643 22.9857 5.16968H22.7617ZM35.3929 37.35L35.2145 37.2146C33.9807 38.8406 32.9217 39.632 31.8191 39.9485C30.7101 40.2668 29.5192 40.1172 27.9858 39.7722L27.9366 39.9907L27.8875 40.2092C29.4275 40.5557 30.7162 40.7311 31.9427 40.379C33.1756 40.0251 34.308 39.1503 35.5713 37.4854L35.3929 37.35ZM18.2947 29.8647L18.1676 30.0491C18.6187 30.36 19.4984 31.0656 20.5038 31.6935C21.515 32.325 22.7116 32.9184 23.8616 33.0202L23.8813 32.7971L23.9011 32.574C22.8603 32.4819 21.7382 31.9363 20.7411 31.3136C19.7383 30.6873 18.9201 30.0237 18.4218 29.6803L18.2947 29.8647ZM23.8813 32.7971L23.8616 33.0202C24.2794 33.0571 24.6739 33.2895 25.0409 33.6842C25.408 34.079 25.7334 34.6218 26.0092 35.242C26.561 36.4827 26.8958 37.9899 26.9841 39.1187L27.2073 39.1012L27.4306 39.0837C27.3388 37.9102 26.9933 36.3524 26.4185 35.06C26.1311 34.4138 25.7815 33.823 25.3689 33.3792C24.9562 32.9353 24.466 32.624 23.9011 32.574L23.8813 32.7971ZM12.7528 28.8953H12.9768V27.8169H12.7528H12.5289V28.8953H12.7528ZM12.7528 27.8169H12.9768V26.7384H12.7528H12.5289V27.8169H12.7528ZM24.8507 7.24038H24.6268V27.8169H24.8507H25.0747V7.24038H24.8507ZM24.8507 27.8169H24.6268V28.8953H24.8507H25.0747V27.8169H24.8507ZM12.7528 27.8169V28.0408H16.5729V27.8169V27.5929H12.7528V27.8169ZM18.2947 29.8647V29.6407H16.5729V29.8647V30.0886H18.2947V29.8647ZM16.5729 29.8647V29.6407H13.7222V29.8647V30.0886H16.5729V29.8647ZM16.5729 27.8169H16.349V29.8647H16.5729H16.7969V27.8169H16.5729ZM16.5729 27.8169V28.0408H20.7118V27.8169V27.5929H16.5729V27.8169ZM20.7118 27.8169V28.0408H24.8507V27.8169V27.5929H20.7118V27.8169ZM20.7118 29.8647V29.6407H18.2947V29.8647V30.0886H20.7118V29.8647ZM20.7118 27.8169H20.4879V29.8647H20.7118H20.9358V27.8169H20.7118ZM27.9366 39.9907L27.9858 39.7722C27.6824 39.704 27.4571 39.4222 27.4306 39.0837L27.2073 39.1012L26.9841 39.1187C27.0236 39.6239 27.3653 40.0917 27.8875 40.2092L27.9366 39.9907ZM35.4768 36.4371L35.2755 36.5352C35.3844 36.7587 35.3611 37.0214 35.2145 37.2146L35.3929 37.35L35.5713 37.4854C35.8237 37.1527 35.8584 36.7087 35.6781 36.3389L35.4768 36.4371ZM23.8813 29.8647V29.6407H20.7118V29.8647V30.0886H23.8813V29.8647ZM17.9167 23.9637H17.6927C17.6927 24.4585 17.2916 24.8595 16.7969 24.8595V25.0835V25.3075C17.539 25.3075 18.1406 24.7058 18.1406 23.9637H17.9167ZM16.7969 25.0835V24.8595C16.3021 24.8595 15.901 24.4585 15.901 23.9637H15.6771H15.4531C15.4531 24.7058 16.0547 25.3075 16.7969 25.3075V25.0835ZM15.6771 23.9637H15.901C15.901 23.4689 16.3021 23.0679 16.7969 23.0679V22.8439V22.62C16.0547 22.62 15.4531 23.2216 15.4531 23.9637H15.6771ZM16.7969 22.8439V23.0679C17.2916 23.0679 17.6927 23.4689 17.6927 23.9637H17.9167H18.1406C18.1406 23.2216 17.539 22.62 16.7969 22.62V22.8439Z" fill="black"/>
<path d="M9.40625 33.1459L10.75 36.2813L12.0938 33.1459M1.79167 1.79175L3.13542 4.92716L4.47917 1.79175M14.5573 33.1459H24.6354M14.5573 34.4897H23.7396M14.5573 35.8334H20.6042M31.3542 20.8282H41.4323M31.3542 22.172H40.5365M31.3542 23.5157H37.401M8.0625 2.23966H22.8438M8.0625 3.58341H21.5299" stroke="black" stroke-width="0.447917" stroke-linecap="round" stroke-linejoin="round"/>
</svg>
