<svg width="42" height="42" viewBox="0 0 42 42" fill="none" xmlns="http://www.w3.org/2000/svg">
<path d="M29.1875 9.396C29.6592 9.396 30.0417 9.77842 30.0417 10.2502V20.2866C30.0417 20.4042 30.0179 20.5163 29.9749 20.6183C29.7836 19.9383 29.3156 18.3647 28.974 17.5106C28.6323 16.6564 27.6927 15.1616 27.2656 14.521C27.1233 14.521 26.7958 14.6064 26.625 14.9481C26.4542 15.2897 27.2656 18.9342 27.6927 20.7137L27.0521 21.1408H13.3854C12.9137 21.1408 12.5312 20.7584 12.5312 20.2866V10.2502C12.5312 9.77842 12.9137 9.396 13.3854 9.396H29.1875Z" fill="#EE2524"/>
<path d="M26.8385 13.6671V11.9587M25.9844 14.5212H24.7031M27.6927 14.5212H28.974" stroke="white" stroke-width="0.427083" stroke-linecap="round" stroke-linejoin="round"/>
<path d="M3.79813 27.9921V5.55216C3.79813 5.08042 4.18056 4.698 4.6523 4.698H37.9206C38.3924 4.698 38.7748 5.08042 38.7748 5.55217V27.9921M3.79813 27.9921H1.21354C1.0956 27.9921 1 28.0877 1 28.2056V28.6147C1 29.0864 1.38242 29.4688 1.85417 29.4688H7.40625M3.79813 27.9921H8.04687M38.7748 27.9921H41.3594C41.4773 27.9921 41.5729 28.0877 41.5729 28.2056V28.6147C41.5729 29.0864 41.1905 29.4688 40.7187 29.4688H35.3448M38.7748 27.9921H34.9875M18.8163 29.4688H26.4148M14.8802 29.4688H16.375M17.0156 26.9063H16.8021M18.5104 26.9063H24.4799M8.6875 26.9063H5.91146C5.43971 26.9063 5.05729 26.5239 5.05729 26.0522V7.04696C5.05729 6.57521 5.43971 6.19279 5.91146 6.19279H36.6615C37.1332 6.19279 37.5156 6.57521 37.5156 7.04696V26.0522C37.5156 26.5239 37.1332 26.9063 36.6615 26.9063H34.6497M15.9479 27.9921H25.2741M10.234 25.7154C9.03427 26.0153 8.93429 26.5152 8.03446 28.3149C7.3146 29.7546 6.33854 34.2138 1.64062 34.3803C0.783385 36.9176 3.03517 40.9157 4.34011 40.9125C4.37194 40.3883 7.8345 37.9131 9.73414 37.2132C11.6338 36.5133 15.2331 35.4136 15.933 34.2138C16.6329 33.014 18.8324 29.8146 18.9324 29.0148C19.0324 28.2149 17.6327 28.2149 16.9328 29.0148C16.2329 29.8146 14.5332 31.7143 14.3333 31.5143C14.1333 31.3143 14.4333 30.3145 14.9332 29.3147C15.3331 28.5149 16.4329 27.2484 16.9328 26.7152C16.9994 26.7819 17.2127 26.9752 17.5327 27.2151C17.9326 27.5151 18.6325 27.3151 18.5325 26.5152C18.4499 25.8547 17.4809 25.0578 16.808 24.8002M9.73414 26.6152C10.1674 25.8154 11.1539 24.1557 11.6338 23.9157C12.1137 23.6758 12.7741 23.587 13.0407 23.6203M13.0407 23.6203C12.6717 24.0734 12.3027 24.6989 11.9337 25.2155C11.5338 25.7753 11.25 26.4792 11.25 26.4792M13.0407 23.6203C13.1716 23.4596 13.3025 23.3206 13.4334 23.2158C13.9333 22.8159 16.3329 23.2158 17.1327 24.2156C17.4733 24.6413 17.2339 24.777 16.808 24.8002M16.808 24.8002C16.6661 24.7459 16.5374 24.7156 16.4329 24.7156C16.3578 24.7156 16.2606 24.7384 16.1475 24.7787M16.1475 24.7787C15.6883 24.7408 15.2233 24.6776 15.0331 24.7156C14.6332 24.7956 14.1333 25.6821 13.9334 26.1153C14.4675 25.7217 15.5377 24.9961 16.1475 24.7787ZM10.8229 24.8244V7.68758H31.75V22.5599M12.9583 20.5001L14.5957 17.7522C14.7412 17.5193 15.0656 17.4824 15.2598 17.6766L16.2202 18.6369C16.4107 18.8275 16.728 18.7961 16.8775 18.5718L18.3157 16.4145C18.4976 16.1417 18.9064 16.1671 19.0531 16.4604L19.6446 17.6434C19.7979 17.95 20.2317 17.9602 20.3992 17.6611L22.6645 13.616C22.8116 13.3533 23.1877 13.3476 23.3426 13.6058C23.4839 13.8413 23.8173 13.8623 23.987 13.6464L25.8561 11.2675C25.9371 11.1644 26.0609 11.1042 26.1919 11.1042H27.7694C27.8584 11.1042 27.9452 11.0764 28.0176 11.0247L29.401 10.0365M12.9583 21.9949H22.3542M14.2396 23.0626H23.3426M17.0156 24.1303H21.2865M25.4855 24.7648C24.906 23.299 23.3635 23.6107 23.677 24.7082C23.9906 25.8056 24.083 26.3673 24.6149 27.104C25.1468 27.8407 26.4496 29.556 27.6 30.9328C28.7505 32.3095 31.1129 33.5857 32.3232 34.7393L33.1487 37.4536C33.2168 37.6774 33.4112 37.842 33.6458 37.8705C35.994 38.1562 37.8863 38.0894 39.6368 36.8561C39.9126 36.6617 39.9377 36.2741 39.7134 36.0232C38.6183 34.7987 35.7028 31.4957 35.6202 30.9476C35.4921 30.0983 34.9434 27.1488 34.1647 25.8103C34.1271 25.7458 34.1047 25.6745 34.0943 25.6007C34.0443 25.2453 33.8529 24.6491 33.3804 24.2851C33.2649 24.1961 33.1767 24.0705 33.1054 23.944C32.7261 23.271 31.1382 22.0665 30.2874 21.3638C30.2225 21.3103 30.1753 21.2412 30.1488 21.1617C29.4049 18.9238 27.847 14.649 27.2552 14.5406C26.5684 14.4148 26.0182 14.722 27.8053 20.6563M25.4855 24.7648C25.4467 24.456 25.4201 23.6489 25.6236 22.8902C25.8271 22.1315 27.1628 21.0848 27.8053 20.6563M25.4855 24.7648C25.5504 24.9291 25.6244 25.0882 25.7054 25.2405M27.8053 20.6563C27.9782 21.2305 28.173 21.8575 28.3917 22.5418M28.3917 22.5418C28.0897 22.7612 27.3972 23.4393 27.043 24.3973C26.8939 24.8006 26.6861 25.0347 26.4732 25.1618M28.3917 22.5418C28.5284 23.0333 28.5802 23.6951 28.5549 24.3514M25.7054 25.2405C26.3469 26.4464 27.4283 27.2179 27.954 26.6666C28.3083 26.2951 28.5172 25.3293 28.5549 24.3514M25.7054 25.2405C25.8781 25.3089 26.1805 25.3365 26.4732 25.1618M26.4732 25.1618C26.3481 25.4015 26.2032 25.8966 26.624 25.9593C26.9215 26.0036 27.2428 25.9587 27.5243 25.7756M28.5549 24.3514C28.5023 24.3458 28.3325 24.4849 28.0741 25.0859C27.9337 25.4123 27.7408 25.6348 27.5243 25.7756M27.5243 25.7756C27.5982 25.9536 27.8492 26.2414 28.2626 25.9694M2.70834 14.0938L1.79316 13.2397M2.70834 15.3751H1.42709M2.70834 16.6563L1.79316 17.5105M39.8646 14.0938L40.7798 13.2397M39.8646 15.3751H41.1458M39.8646 16.6563L40.7798 17.5105" stroke="black" stroke-width="0.427083" stroke-linecap="round" stroke-linejoin="round"/>
<path d="M17.2292 18.5784C17.2292 18.9322 16.9424 19.219 16.5885 19.219C16.2347 19.219 15.9479 18.9322 15.9479 18.5784C15.9479 18.2246 16.2347 17.9377 16.5885 17.9377C16.9424 17.9377 17.2292 18.2246 17.2292 18.5784Z" fill="white"/>
<path d="M23.6354 13.4534C23.6354 13.8072 23.3486 14.094 22.9948 14.094C22.641 14.094 22.3542 13.8072 22.3542 13.4534C22.3542 13.0996 22.641 12.8127 22.9948 12.8127C23.3486 12.8127 23.6354 13.0996 23.6354 13.4534Z" fill="white"/>
</svg>
