<svg width="46" height="46" viewBox="0 0 46 46" fill="none" xmlns="http://www.w3.org/2000/svg">
<path d="M1 2.83333C1 3.84585 1.82081 4.66667 2.83333 4.66667C3.29446 4.66667 3.71582 4.49642 4.038 4.21536C4.42324 3.87927 4.66667 3.38473 4.66667 2.83333C4.66667 1.82081 3.84585 1 2.83333 1C1.82081 1 1 1.82081 1 2.83333Z" fill="white"/>
<path d="M43.625 45C44.3844 45 45 44.3844 45 43.625C45 42.8656 44.3844 42.25 43.625 42.25C43.0503 42.25 42.5579 42.6026 42.3524 43.1033C42.2864 43.2642 42.25 43.4403 42.25 43.625C42.25 44.3844 42.8656 45 43.625 45Z" fill="white"/>
<path d="M37.6667 12C40.198 12 42.25 9.94797 42.25 7.41667C42.25 4.88536 40.198 2.83333 37.6667 2.83333C35.1354 2.83333 33.0833 4.88536 33.0833 7.41667C33.0833 8.15458 33.2577 8.85177 33.5675 9.46926C34.1496 10.6294 35.2096 11.5082 36.4893 11.8474C36.865 11.9469 37.2596 12 37.6667 12Z" fill="white"/>
<path d="M10.625 12L4.038 4.21536M23.4583 14.2633L33.5675 9.46927M33.3125 21.8542L36.4893 11.8474M31.4937 27.5833L28.7292 36.2917L42.3524 43.1033M33.5675 9.46927C33.2577 8.85177 33.0833 8.15458 33.0833 7.41667C33.0833 4.88536 35.1354 2.83333 37.6667 2.83333C40.198 2.83333 42.25 4.88536 42.25 7.41667C42.25 9.94797 40.198 12 37.6667 12C37.2596 12 36.865 11.9469 36.4893 11.8474M33.5675 9.46927C34.1496 10.6294 35.2096 11.5082 36.4893 11.8474M4.038 4.21536C4.42324 3.87927 4.66667 3.38473 4.66667 2.83333C4.66667 1.82081 3.84586 1 2.83333 1C1.82081 1 1 1.82081 1 2.83333C1 3.84586 1.82081 4.66667 2.83333 4.66667C3.29446 4.66667 3.71582 4.49642 4.038 4.21536ZM42.3524 43.1033C42.2864 43.2642 42.25 43.4403 42.25 43.625C42.25 44.3844 42.8656 45 43.625 45C44.3844 45 45 44.3844 45 43.625C45 42.8656 44.3844 42.25 43.625 42.25C43.0503 42.25 42.5579 42.6026 42.3524 43.1033Z" stroke="black" stroke-width="0.458333"/>
<path d="M16.125 8.7915C11.0624 8.7915 6.95834 12.8956 6.95834 17.9582C6.95834 20.2829 7.82376 22.4056 9.25001 24.0215L10.625 13.8332C10.625 13.6804 10.7625 13.3748 11.3125 13.3748C11.8625 13.3748 20.5311 14.4443 24.7967 14.979C23.5601 11.3788 20.1447 8.7915 16.125 8.7915Z" fill="#EE2524"/>
<path d="M31.25 36.0623C31.25 37.4546 30.1214 38.5832 28.7292 38.5832C27.337 38.5832 26.2083 37.4546 26.2083 36.0623C26.2083 34.6701 27.337 33.5415 28.7292 33.5415C30.1214 33.5415 31.25 34.6701 31.25 36.0623Z" fill="#EE2524"/>
<path d="M30.7894 17.2923L10.3757 14.7839L10.0381 17.5319L30.4518 20.0403L30.7894 17.2923Z" fill="#EE2524"/>
<path d="M13.2886 23.5103C13.3419 23.0766 13.0335 22.6819 12.5999 22.6286C12.1663 22.5754 11.7716 22.8837 11.7183 23.3173C11.665 23.7509 11.9733 24.1456 12.407 24.1989C12.8406 24.2522 13.2353 23.9439 13.2886 23.5103Z" fill="#EE2524"/>
<path d="M12.1109 23.3655C12.1642 22.9319 11.8558 22.5372 11.4222 22.4839C10.9886 22.4306 10.5939 22.7389 10.5406 23.1726C10.4873 23.6062 10.7956 24.0009 11.2293 24.0542C11.6629 24.1075 12.0576 23.7991 12.1109 23.3655Z" fill="#EE2524"/>
<path d="M20.9578 31.6116L20.9698 31.8404L20.9698 31.8404L20.9578 31.6116ZM28.4916 26.8995L28.3286 26.7384L28.3288 26.7382L28.4916 26.8995ZM31.0411 23.7643L30.8507 23.6369L30.8507 23.6369L31.0411 23.7643ZM32.3125 20.195L32.1343 20.3391L32.1343 20.339L32.3125 20.195ZM30.8285 20.0098L30.891 20.2303L30.8909 20.2303L30.8285 20.0098ZM29.4951 21.155L29.29 21.0526L29.2925 21.0479L29.4951 21.155ZM22.9564 27.1372L23.0168 27.3583L23.0121 27.3595L22.9564 27.1372ZM17.0734 25.2154L16.9276 25.3922L16.9276 25.3922L17.0734 25.2154ZM16.888 25.0873L16.9991 24.8869L16.9991 24.8869L16.888 25.0873ZM14.3878 24.4708L14.3951 24.6999L14.3946 24.6999L14.3878 24.4708ZM11.0543 26.2721C10.9688 26.3655 10.8239 26.3718 10.7305 26.2864C10.6372 26.2009 10.6308 26.0559 10.7163 25.9626L11.0543 26.2721ZM2.838 30.5741L2.60986 30.5958L2.60986 30.5958L2.838 30.5741ZM3.59034 32.7918L3.39727 32.9153L3.39726 32.9153L3.59034 32.7918ZM6.49807 34.9113L6.56438 34.6919L6.56438 34.6919L6.49807 34.9113ZM7.92704 34.1738L7.72308 34.0693L7.72308 34.0693L7.92704 34.1738ZM9.83627 31.8404L9.69769 31.6579L9.69787 31.6577L9.83627 31.8404ZM22.6693 31.4074L22.6269 31.1822L22.6272 31.1821L22.6693 31.4074ZM35.8378 21.5168L36.042 21.4129L36.0428 21.4144L35.8378 21.5168ZM35.5279 21.2461L35.4252 21.451L35.4252 21.451L35.5279 21.2461ZM26.9033 24.6389C27.0291 24.6252 27.1422 24.7162 27.1558 24.842C27.1694 24.9679 27.0785 25.0809 26.9527 25.0945L26.9033 24.6389ZM29.1854 29.0941C29.0738 29.1537 28.9349 29.1117 28.8752 29C28.8155 28.8884 28.8576 28.7496 28.9692 28.6899L29.1854 29.0941ZM37.7852 23.7643L37.9289 23.9429L37.9284 23.9433L37.7852 23.7643ZM38.5755 22.5423L38.3493 22.5788L38.3491 22.5777L38.5755 22.5423ZM37.7852 21.7874L37.7098 22.0038L37.7081 22.0032L37.7852 21.7874ZM35.9124 22.5724C35.8203 22.6591 35.6752 22.6548 35.5885 22.5626C35.5017 22.4704 35.5061 22.3254 35.5983 22.2387L35.9124 22.5724ZM37.6602 21.6513C37.685 21.7754 37.6044 21.8961 37.4803 21.9209C37.3562 21.9457 37.2355 21.8651 37.2107 21.741L37.6602 21.6513ZM36.8328 20.8473L36.7287 21.0514L36.7281 21.0511L36.8328 20.8473ZM35.5301 21.3371C35.4452 21.431 35.3003 21.4383 35.2064 21.3534C35.1125 21.2685 35.1053 21.1236 35.1901 21.0297L35.5301 21.3371ZM3.1475 29.6959L2.9773 29.5425L2.9773 29.5425L3.1475 29.6959ZM9.17378 24.6455C9.28035 24.5772 9.42209 24.6082 9.49037 24.7148C9.55865 24.8214 9.52761 24.9631 9.42104 25.0314L9.17378 24.6455ZM30.1973 15.6253L30.2252 15.3979L30.1973 15.6253ZM11.3539 13.3099L11.3818 13.0825L11.3818 13.0825L11.3539 13.3099ZM10.4723 13.9986L10.6997 14.0266L10.6997 14.0266L10.4723 13.9986ZM9.21808 24.2055L8.99062 24.1775L8.99062 24.1775L9.21808 24.2055ZM30.886 16.507L30.6585 16.479L30.6585 16.479L30.886 16.507ZM9.90674 25.0871L9.93469 24.8596L9.93469 24.8596L9.90674 25.0871ZM26.9737 22.4023L26.9457 22.6297L26.9457 22.6297L26.9737 22.4023ZM22.6554 21.8717L22.6833 21.6442L22.6833 21.6442L22.6554 21.8717ZM22.8483 20.3014L22.8763 20.0739L22.8763 20.0739L22.8483 20.3014ZM27.1666 20.832L27.1387 21.0594L27.1387 21.0594L27.1666 20.832ZM19.9074 21.534L19.8794 21.7615L19.8794 21.7615L19.9074 21.534ZM11.6634 20.521L11.6913 20.2936L11.6913 20.2936L11.6634 20.521ZM11.8563 18.9508L11.8843 18.7233L11.8563 18.9508ZM20.1003 19.9637L20.0724 20.1912L20.1003 19.9637ZM20.9578 31.6116L20.8677 31.4009C25.5339 29.4055 26.9271 28.1567 28.3286 26.7384L28.4916 26.8995L28.6546 27.0605C27.2075 28.525 25.7634 29.8059 21.0479 31.8223L20.9578 31.6116ZM28.4916 26.8995L28.3288 26.7382C29.2039 25.8544 30.1236 24.723 30.8507 23.6369L31.0411 23.7643L31.2316 23.8918C30.4891 25.0009 29.5511 26.1551 28.6544 27.0607L28.4916 26.8995ZM31.0411 23.7643L30.8507 23.6369C31.37 22.8611 31.7848 22.1176 32.0167 21.51C32.1328 21.2056 32.1989 20.9461 32.2138 20.7399C32.229 20.5309 32.1899 20.4077 32.1343 20.3391L32.3125 20.195L32.4906 20.0508C32.6498 20.2476 32.6902 20.5076 32.6709 20.7731C32.6515 21.0413 32.5693 21.3475 32.4449 21.6734C32.1957 22.3265 31.7601 23.1023 31.2316 23.8918L31.0411 23.7643ZM32.3125 20.195L32.1343 20.339C32.0571 20.2436 31.8826 20.1717 31.6198 20.1537C31.3689 20.1364 31.0941 20.1727 30.891 20.2303L30.8285 20.0098L30.7659 19.7893C31.0149 19.7187 31.3427 19.6752 31.6512 19.6964C31.9478 19.7168 32.2892 19.8016 32.4907 20.0509L32.3125 20.195ZM30.8285 20.0098L30.8909 20.2303C30.1639 20.4363 29.7959 21.0763 29.6978 21.262L29.4951 21.155L29.2925 21.0479C29.3991 20.8462 29.8442 20.0505 30.766 19.7893L30.8285 20.0098ZM29.4951 21.155L29.7002 21.2573C28.987 22.6865 28.1277 23.9834 27.049 25.035L26.889 24.8709L26.729 24.7068C27.7606 23.7011 28.5923 22.451 29.2901 21.0526L29.4951 21.155ZM26.889 24.8709L27.049 25.035C25.9527 26.1038 24.6325 26.9167 23.0168 27.3583L22.9564 27.1372L22.896 26.9161C24.4306 26.4967 25.6837 25.726 26.729 24.7068L26.889 24.8709ZM22.9564 27.1372L23.0121 27.3595C20.6648 27.9475 18.6264 26.7928 16.9276 25.3922L17.0734 25.2154L17.2191 25.0386C18.8929 26.4185 20.7765 27.447 22.9007 26.9149L22.9564 27.1372ZM16.888 25.0873L16.777 25.2878C16.3388 25.0451 15.4942 24.6647 14.3951 24.6999L14.3878 24.4708L14.3804 24.2418C15.5934 24.2029 16.5218 24.6225 16.9991 24.8869L16.888 25.0873ZM14.3878 24.4708L14.3946 24.6999C12.4963 24.7568 11.298 26.0059 11.0543 26.2721L10.8853 26.1174L10.7163 25.9626C10.9786 25.6761 12.2877 24.3045 14.3809 24.2418L14.3878 24.4708ZM2.838 30.5741L3.06614 30.5524C3.11917 31.1104 3.28679 31.8916 3.78342 32.6684L3.59034 32.7918L3.39726 32.9153C2.85034 32.0598 2.66752 31.2024 2.60986 30.5958L2.838 30.5741ZM3.59034 32.7918L3.78341 32.6684C4.55863 33.8807 5.72271 34.4375 6.56438 34.6919L6.49807 34.9113L6.43177 35.1306C5.5321 34.8587 4.25322 34.2539 3.39727 32.9153L3.59034 32.7918ZM7.92704 34.1738L7.72308 34.0693C8.13741 33.2604 8.7577 32.3715 9.69769 31.6579L9.83627 31.8404L9.97485 32.0229C9.10405 32.684 8.52349 33.512 8.13101 34.2782L7.92704 34.1738ZM9.83627 31.8404L9.69787 31.6577C11.3186 30.4297 12.9963 30.4445 14.8179 30.7137C16.6508 30.9845 18.6138 31.5047 20.9458 31.3827L20.9578 31.6116L20.9698 31.8404C18.5769 31.9656 16.5248 31.4292 14.7509 31.1671C12.9656 30.9033 11.445 30.9089 9.97467 32.023L9.83627 31.8404ZM20.9578 31.6116L20.9458 31.3827C21.4868 31.3544 22.0465 31.2914 22.6269 31.1822L22.6693 31.4074L22.7117 31.6326C22.11 31.7458 21.53 31.8111 20.9698 31.8404L20.9578 31.6116ZM22.6693 31.4074L22.6272 31.1821C25.8513 30.5794 28.8565 28.9478 31.1748 27.1641C32.3331 26.2729 33.316 25.3467 34.0657 24.4975C34.8188 23.6444 35.3252 22.8819 35.5453 22.3189L35.7587 22.4023L35.9722 22.4858C35.7235 23.1218 35.1767 23.9316 34.4093 24.8008C33.6386 25.6738 32.6339 26.6198 31.4543 27.5273C29.0971 29.341 26.0263 31.0129 22.7114 31.6326L22.6693 31.4074ZM35.7587 22.4023L35.5453 22.3189C35.6893 21.9505 35.6871 21.728 35.6327 21.6191L35.8378 21.5168L36.0428 21.4144C36.1896 21.7086 36.1248 22.0954 35.9722 22.4858L35.7587 22.4023ZM35.8378 21.5168L35.6335 21.6206C35.5942 21.5433 35.5174 21.4972 35.4252 21.451L35.5279 21.2461L35.6305 21.0412C35.7203 21.0862 35.9278 21.1882 36.042 21.4129L35.8378 21.5168ZM35.5279 21.2461L35.4252 21.451C35.3842 21.4304 35.3414 21.4136 35.297 21.4004L35.3625 21.1808L35.428 20.9612C35.4972 20.9818 35.5649 21.0084 35.6305 21.0412L35.5279 21.2461ZM35.3625 21.1808L35.297 21.4004C34.9907 21.309 34.5911 21.3848 34.13 21.5977C33.6758 21.8074 33.2002 22.1324 32.7635 22.4789C32.3283 22.8242 31.9394 23.1847 31.6589 23.4594C31.5188 23.5966 31.4062 23.712 31.3288 23.7928C31.2902 23.8333 31.2603 23.865 31.2403 23.8865C31.2303 23.8973 31.2227 23.9054 31.2177 23.9109C31.2152 23.9136 31.2134 23.9156 31.2122 23.9169C31.2116 23.9175 31.2111 23.918 31.2109 23.9183C31.2107 23.9184 31.2106 23.9185 31.2106 23.9186C31.2106 23.9186 31.2106 23.9186 31.2106 23.9186C31.2106 23.9186 31.2106 23.9186 31.0411 23.7643C30.8717 23.6101 30.8717 23.61 30.8718 23.61C30.8718 23.6099 30.8718 23.6099 30.8719 23.6098C30.872 23.6097 30.8722 23.6095 30.8724 23.6093C30.8728 23.6088 30.8734 23.6082 30.8741 23.6074C30.8756 23.6058 30.8778 23.6034 30.8805 23.6004C30.8861 23.5943 30.8943 23.5854 30.905 23.574C30.9263 23.5511 30.9576 23.5179 30.9977 23.4759C31.078 23.392 31.1941 23.2731 31.3382 23.132C31.626 22.8502 32.0271 22.4781 32.4786 22.1198C32.9287 21.7627 33.4367 21.4129 33.9379 21.1815C34.4322 20.9533 34.96 20.8216 35.428 20.9612L35.3625 21.1808ZM26.889 24.8709L26.8644 24.6431L26.9033 24.6389L26.928 24.8667L26.9527 25.0945L26.9137 25.0987L26.889 24.8709ZM29.0773 28.892L28.9692 28.6899C29.4535 28.4309 31.1942 27.4976 33.0303 26.4557C34.8735 25.4098 36.7906 24.2668 37.642 23.5854L37.7852 23.7643L37.9284 23.9433C37.0427 24.6521 35.0906 25.8136 33.2565 26.8544C31.4153 27.8991 29.6706 28.8346 29.1854 29.0941L29.0773 28.892ZM37.7852 23.7643L37.6415 23.5858C37.9014 23.3767 38.0947 23.1845 38.2149 23.0082C38.3344 22.8329 38.3679 22.6941 38.3493 22.5788L38.5755 22.5423L38.8018 22.5057C38.8457 22.7779 38.7513 23.035 38.5936 23.2664C38.4366 23.4967 38.2035 23.7219 37.9289 23.9429L37.7852 23.7643ZM38.5755 22.5423L38.3491 22.5777C38.3253 22.4256 38.2071 22.2899 38.0456 22.178C37.8895 22.0698 37.7326 22.0117 37.7098 22.0038L37.7852 21.7874L37.8606 21.571C37.9032 21.5858 38.103 21.6601 38.3066 21.8013C38.5048 21.9386 38.749 22.1689 38.8019 22.5068L38.5755 22.5423ZM37.7852 21.7874L37.7081 22.0032C37.3065 21.8598 36.8897 21.9661 36.5402 22.1411C36.1936 22.3146 35.9487 22.5384 35.9154 22.5696L35.7587 22.4023L35.6021 22.2351C35.6499 22.1903 35.9319 21.933 36.335 21.7312C36.7353 21.5308 37.2912 21.3677 37.8623 21.5715L37.7852 21.7874ZM35.7587 22.4023L35.9158 22.5692L35.9124 22.5724L35.7553 22.4055L35.5983 22.2387L35.6017 22.2355L35.7587 22.4023ZM37.4355 21.6962L37.2107 21.741C37.1968 21.671 37.1039 21.2427 36.7287 21.0514L36.8328 20.8473L36.9369 20.6431C37.5225 20.9417 37.6457 21.5789 37.6602 21.6513L37.4355 21.6962ZM36.8328 20.8473L36.7281 21.0511C36.3734 20.869 35.8736 20.9582 35.5323 21.3347L35.3625 21.1808L35.1927 21.0269C35.6532 20.5188 36.3729 20.3535 36.9374 20.6434L36.8328 20.8473ZM35.3625 21.1808L35.5325 21.3345L35.5301 21.3371L35.3601 21.1834L35.1901 21.0297L35.1925 21.0271L35.3625 21.1808ZM3.1475 29.6959L3.31771 29.8494C3.13672 30.0501 3.04237 30.3022 3.06614 30.5524L2.838 30.5741L2.60986 30.5958C2.5722 30.1995 2.72346 29.824 2.9773 29.5425L3.1475 29.6959ZM6.49807 34.9113L6.56438 34.6919C7.00527 34.8252 7.47503 34.5535 7.72308 34.0693L7.92704 34.1738L8.13101 34.2782C7.82244 34.8806 7.15958 35.3506 6.43177 35.1306L6.49807 34.9113ZM17.0734 25.2154L16.9276 25.3922C16.8776 25.351 16.8279 25.316 16.777 25.2878L16.888 25.0873L16.9991 24.8869C17.08 24.9317 17.1528 24.9839 17.2191 25.0386L17.0734 25.2154ZM9.29741 24.8384L9.42104 25.0314C6.66561 26.7968 4.59721 28.4302 3.31771 29.8494L3.1475 29.6959L2.9773 29.5425C4.29681 28.0789 6.40456 26.4198 9.17378 24.6455L9.29741 24.8384ZM30.1973 15.6253L30.1693 15.8528L11.3259 13.5374L11.3539 13.3099L11.3818 13.0825L30.2252 15.3979L30.1973 15.6253ZM10.4723 13.9986L10.6997 14.0266L9.44553 24.2334L9.21808 24.2055L8.99062 24.1775L10.2448 13.9707L10.4723 13.9986ZM30.4391 20.1437L30.2116 20.1158L30.6585 16.479L30.886 16.507L31.1134 16.5349L30.6665 20.1717L30.4391 20.1437ZM18.2397 26.111L18.2676 25.8835L24.0801 26.5978L24.0522 26.8252L24.0242 27.0527L18.2117 26.3385L18.2397 26.111ZM9.90674 25.0871L9.93469 24.8596L11.7845 25.0869L11.7565 25.3144L11.7286 25.5418L9.8788 25.3145L9.90674 25.0871ZM9.21808 24.2055L9.44553 24.2334C9.40769 24.5414 9.62669 24.8218 9.93469 24.8596L9.90674 25.0871L9.8788 25.3145C9.31955 25.2458 8.9219 24.7368 8.99062 24.1775L9.21808 24.2055ZM11.3539 13.3099L11.3259 13.5374C11.0179 13.4996 10.7376 13.7186 10.6997 14.0266L10.4723 13.9986L10.2448 13.9707C10.3135 13.4114 10.8226 13.0138 11.3818 13.0825L11.3539 13.3099ZM30.1973 15.6253L30.2252 15.3979C30.7845 15.4666 31.1821 15.9757 31.1134 16.5349L30.886 16.507L30.6585 16.479C30.6963 16.171 30.4773 15.8906 30.1693 15.8528L30.1973 15.6253ZM27.1666 20.832L27.1387 21.0594L22.8204 20.5288L22.8483 20.3014L22.8763 20.0739L27.1946 20.6045L27.1666 20.832ZM22.6554 21.8717L22.6833 21.6442L27.0016 22.1748L26.9737 22.4023L26.9457 22.6297L22.6274 22.0991L22.6554 21.8717ZM26.9737 22.4023L27.0016 22.1748C27.3096 22.2127 27.59 21.9937 27.6278 21.6857L27.8553 21.7136L28.0827 21.7416C28.014 22.3008 27.505 22.6984 26.9457 22.6297L26.9737 22.4023ZM21.9667 20.99L22.1942 21.018C22.1563 21.326 22.3753 21.6064 22.6833 21.6442L22.6554 21.8717L22.6274 22.0991C22.0682 22.0304 21.6705 21.5213 21.7393 20.9621L21.9667 20.99ZM22.8483 20.3014L22.8204 20.5288C22.5124 20.491 22.232 20.71 22.1942 21.018L21.9667 20.99L21.7393 20.9621C21.808 20.4029 22.317 20.0052 22.8763 20.0739L22.8483 20.3014ZM27.1666 20.832L27.1946 20.6045C27.7538 20.6733 28.1515 21.1823 28.0827 21.7416L27.8553 21.7136L27.6278 21.6857C27.6657 21.3777 27.4467 21.0973 27.1387 21.0594L27.1666 20.832ZM20.1003 19.9637L20.0724 20.1912L11.8284 19.1782L11.8563 18.9508L11.8843 18.7233L20.1283 19.7363L20.1003 19.9637ZM11.6634 20.521L11.6913 20.2936L19.9353 21.3066L19.9074 21.534L19.8794 21.7615L11.6354 20.7485L11.6634 20.521ZM19.9074 21.534L19.9353 21.3066C20.2433 21.3444 20.5237 21.1254 20.5615 20.8174L20.789 20.8454L21.0165 20.8733C20.9477 21.4326 20.4387 21.8302 19.8794 21.7615L19.9074 21.534ZM10.9747 19.6394L11.2022 19.6674C11.1643 19.9754 11.3833 20.2557 11.6913 20.2936L11.6634 20.521L11.6354 20.7485C11.0762 20.6798 10.6785 20.1707 10.7473 19.6115L10.9747 19.6394ZM11.8563 18.9508L11.8284 19.1782C11.5204 19.1404 11.24 19.3594 11.2022 19.6674L10.9747 19.6394L10.7473 19.6115C10.816 19.0522 11.325 18.6546 11.8843 18.7233L11.8563 18.9508ZM20.1003 19.9637L20.1283 19.7363C20.6875 19.805 21.0852 20.3141 21.0165 20.8733L20.789 20.8454L20.5615 20.8174C20.5994 20.5094 20.3804 20.229 20.0724 20.1912L20.1003 19.9637Z" fill="black"/>
</svg>
