<svg width="228" height="142" viewBox="0 0 228 142" fill="none" xmlns="http://www.w3.org/2000/svg">
<g clip-path="url(#clip0_1_295)">
<path d="M186.861 135.47L184.491 134.914L185.924 123.989L189.422 124.809L186.861 135.47Z" fill="#FFB6B6"/>
<path d="M177.502 138.287C177.399 138.685 177.598 139.081 177.946 139.172L182.622 140.385C182.622 140.385 183.563 138.655 185.646 138.346L185.088 141.025L187.501 141.651L188.313 137.321C188.313 137.321 189.549 135.212 188.51 133.701C187.472 132.189 188.516 132.633 188.516 132.633L188.672 129.863L184.915 129.346L183.816 133.472L180.982 137.116L178.054 137.725C177.794 137.779 177.577 138 177.502 138.287Z" fill="#2F2E41"/>
<path d="M209.585 132.892L207.423 134.012L201.405 124.781L204.595 123.128L209.585 132.892Z" fill="#FFB6B6"/>
<path d="M204.309 141.12C204.489 141.489 204.898 141.66 205.221 141.503L209.563 139.382C209.563 139.382 209.151 137.457 210.532 135.867L211.852 138.265L214.091 137.171L211.891 133.354C211.891 133.354 211.458 130.948 209.687 130.475C207.915 130.003 208.996 129.661 208.996 129.661L207.313 127.456L204.123 129.506L205.972 133.356L206.19 137.967L204.362 140.333C204.2 140.544 204.179 140.853 204.309 141.12Z" fill="#2F2E41"/>
<path d="M82.7966 92.3137H145.627C146.418 92.3137 147.06 91.6724 147.06 90.8814V1.97282C147.06 1.18179 146.418 0.540527 145.627 0.540527H82.7966C82.0056 0.540527 81.3643 1.18179 81.3643 1.97282V90.8814C81.3643 91.6724 82.0056 92.3137 82.7966 92.3137Z" fill="white"/>
<path d="M147.328 92.5815H81.0965V0.272461H147.328V92.5815ZM81.6323 92.0457H146.792V0.80828H81.6323V92.0457Z" fill="#E6E6E6"/>
<path d="M132.444 15.0601C132.698 15.0601 132.905 15.2667 132.905 15.5217V16.4449C132.905 16.6998 132.698 16.9065 132.444 16.9065H95.9811C95.7261 16.9065 95.5195 16.6998 95.5195 16.4449V15.5217C95.5195 15.2667 95.7261 15.0601 95.9811 15.0601H132.444Z" fill="#E6E6E6"/>
<path d="M132.444 19.4443C132.698 19.4443 132.905 19.651 132.905 19.9059V20.8292C132.905 21.0841 132.698 21.2908 132.444 21.2908H95.9811C95.7261 21.2908 95.5195 21.0841 95.5195 20.8292V19.9059C95.5195 19.651 95.7261 19.4443 95.9811 19.4443H132.444Z" fill="#E6E6E6"/>
<path d="M132.444 23.8296C132.698 23.8296 132.905 24.0363 132.905 24.2912V25.2144C132.905 25.4694 132.698 25.676 132.444 25.676H95.9811C95.7261 25.676 95.5195 25.4693 95.5195 25.2144V24.2915C95.5195 24.0365 95.7261 23.8299 95.9811 23.8299L132.444 23.8296Z" fill="#EE2524"/>
<path d="M199.557 35.3329H211.669C211.651 34.7638 211.772 34.199 212.021 33.6871C212.028 34.2552 212.153 34.8156 212.388 35.3329H212.938C213.779 35.332 214.461 34.6501 214.462 33.8086V25.938C214.462 22.0844 211.167 16.3076 207.587 18.7249C207.471 18.7189 205.656 17.915 205.541 17.915C202.391 17.9176 201.308 20.7599 200.357 23.7625C199.273 23.2631 198.526 25.3478 197.986 29.0172C197.828 30.088 197.688 31.2938 197.563 32.6097C197.215 33.7137 197.829 34.8902 198.933 35.2374C199.135 35.301 199.346 35.3336 199.558 35.334L199.557 35.3329Z" fill="#2F2E41"/>
<path d="M175.789 80.3293C175.189 81.7528 175.436 83.2163 176.342 83.5985C177.248 83.9807 178.469 83.1364 179.069 81.7125C179.317 81.1469 179.426 80.5303 179.386 79.9142L181.855 73.8508L178.985 72.7529L176.855 78.8472C176.386 79.2489 176.021 79.7571 175.788 80.3291L175.789 80.3293Z" fill="#FFB6B6"/>
<path d="M202.327 32.6689L208.116 33.8799L207.228 36.5437L209.004 56.9181L206.045 63.4784L187.989 61.9983L192.429 53.1182C192.429 53.1182 190.653 45.7186 193.021 44.238C195.389 42.7575 199.237 35.3579 199.237 35.3579L202.327 32.6689Z" fill="#EE2524"/>
<path d="M207.724 35.0584L212.852 37.1349L211.076 63.1818L214.924 85.6769L202.493 87.7489C202.493 87.7489 203.973 38.0229 204.861 37.1349C205.748 36.2469 207.724 35.0571 207.724 35.0571V35.0584Z" fill="#2F2E41"/>
<path d="M197.679 38.3067C197.679 38.3067 194.342 36.1953 192.539 37.7587C190.736 39.322 176.855 77.1119 176.855 77.1119L180.599 78.7386L189.186 60.7347L197.679 38.3067Z" fill="#2F2E41"/>
<path d="M188.12 101.978L184.734 128.004L189.47 128.3C189.47 128.3 191.932 121.581 194.741 113.666C195.339 111.988 195.952 110.257 196.559 108.522C197.216 106.64 197.87 104.757 198.491 102.94C200.028 98.4588 201.375 94.38 202.144 91.7162C202.277 91.2486 202.395 90.8256 202.493 90.4523C204.564 82.496 205.749 61.7041 205.749 61.7041L188.581 60.2241L188.398 60.452L184.734 65.0309L184.906 65.9988L189.47 91.5988L188.12 101.979L188.12 101.978Z" fill="#2F2E41"/>
<path d="M189.469 91.5985L188.12 101.979L194.191 112.666L194.741 113.667L203.099 128.857L207.228 126.516C207.228 126.516 201.856 114.17 198.491 102.94C198.118 101.706 197.771 100.483 197.461 99.2933C196.546 95.8094 198.044 89.4518 197.458 87.6993C195.478 81.7855 189.025 69.9547 186.03 64.5952L184.905 65.9982L189.469 91.5985Z" fill="#2F2E41"/>
<path d="M199.312 35.1353L193.318 37.4323L177.631 83.3105L187.103 84.7905L191.542 58.1516L199.312 35.1353Z" fill="#2F2E41"/>
<path d="M214.3 84.6568C214.453 86.1942 215.369 87.3617 216.348 87.2645C217.326 87.1673 217.996 85.8424 217.843 84.3045C217.79 83.6893 217.591 83.0956 217.262 82.5732L216.534 76.0674L213.488 76.4742L214.529 82.8446C214.309 83.4217 214.231 84.0431 214.3 84.6568Z" fill="#FFB6B6"/>
<path d="M210.78 37.1359C210.78 37.1359 214.628 36.2479 215.812 38.32C216.996 40.392 217.588 80.6463 217.588 80.6463L213.516 80.9423L211.372 61.1118L210.78 37.1367L210.78 37.1359Z" fill="#2F2E41"/>
<path d="M205.869 31.9509C209.268 31.9509 212.022 29.1963 212.022 25.7982C212.022 22.4002 209.268 19.6455 205.869 19.6455C202.471 19.6455 199.717 22.4002 199.717 25.7982C199.717 29.1963 202.471 31.9509 205.869 31.9509Z" fill="#FFB6B6"/>
<path d="M208.34 35.3328H211.378C211.533 35.3328 211.664 35.2138 211.671 35.0595L211.672 35.0426C211.688 34.7211 212.139 34.667 212.244 34.9714C212.286 35.0938 212.334 35.2144 212.388 35.3328H212.687V25.8472C212.687 24.2203 211.368 22.9014 209.741 22.9014C208.352 22.9014 207.152 23.8717 206.861 25.2299C206.861 25.2299 204.796 27.7627 206.013 29.1867C207.23 30.6106 205.459 31.7697 205.459 31.7697C205.066 33.6035 206.464 35.3328 208.34 35.3328Z" fill="#2F2E41"/>
<path d="M107.595 46.382C108.277 45.9423 108.421 45.0012 107.944 44.3449L105.709 41.2705C105.188 40.5517 104.182 40.392 103.463 40.9138C103.399 40.9601 103.339 41.0109 103.283 41.066C99.4998 43.0885 97.4634 46.0421 99.7276 49.5336C99.7276 50.1167 99.7701 50.699 99.8548 51.2758C99.8916 51.5261 99.9758 51.771 100.119 51.9798C100.543 52.5999 101.291 52.8276 101.949 52.6129L105.603 51.4257C106.38 51.1734 106.8 50.3258 106.513 49.5616C106.143 48.5739 106.295 47.2202 107.595 46.382Z" fill="#F2F2F2"/>
<path d="M116.268 55.4506C115.217 55.3468 114.319 56.2132 114.319 57.2696V60.4218C114.319 60.5035 114.325 60.585 114.338 60.6657C114.473 61.5441 115.294 62.1466 116.173 62.0115C121.294 62.6427 124.793 60.4157 125.004 55.5298C125.037 55.4612 125.066 55.3904 125.09 55.3177C125.362 54.4735 124.899 53.5678 124.055 53.2949L120.996 52.3008C119.94 51.9579 118.843 52.6431 118.658 53.7374C118.492 54.7259 117.839 55.6057 116.268 55.4506Z" fill="#E6E6E6"/>
<path d="M97.3527 58.5331C98.4147 64.8361 103.945 67.2274 109.713 67.6053C109.826 67.6227 109.94 67.6314 110.054 67.6315C111.299 67.6321 112.308 66.6241 112.308 65.3801V60.1092C112.308 58.6349 111.1 57.4867 109.626 57.4718C108.2 57.4575 107.272 56.783 106.89 55.5447C106.454 54.1302 104.9 53.3844 103.492 53.8419L98.681 55.4053C98.0578 55.6076 97.5534 56.071 97.2991 56.6749C97.0462 57.2727 97.0658 57.9509 97.3527 58.5331Z" fill="#3F3D56"/>
<path d="M126.993 36.7385C126.105 35.8688 124.68 35.8835 123.81 36.7714C123.733 36.8504 123.661 36.935 123.596 37.0246L119.321 42.9087C118.775 43.661 119.087 44.7092 119.942 45.0766C121.943 45.9371 121.733 47.8688 121.081 49.0509C120.762 49.6302 121.025 50.3552 121.654 50.5596L128.858 52.9004C130.043 53.283 131.314 52.6324 131.697 51.4473C131.735 51.3279 131.764 51.2056 131.782 51.0815C131.906 50.2568 131.968 49.424 131.968 48.59C133.186 44.0458 131.5 39.7621 126.993 36.7385Z" fill="#EE2524"/>
<path d="M114.621 43.5607C115.42 44.01 116.427 43.7927 116.965 43.0516L118.397 41.0806C118.675 40.6984 118.772 40.2135 118.661 39.754C118.555 39.3029 118.256 38.9212 117.843 38.7099C114.473 35.6649 110.484 35.478 107.102 38.6944C106.676 38.9089 106.367 39.2994 106.255 39.7623C106.145 40.2186 106.24 40.7004 106.517 41.0799L108.19 43.3835C108.765 44.1746 109.879 44.3816 110.671 43.8081C111.822 42.9749 113.494 42.9258 114.621 43.5607Z" fill="#E6E6E6"/>
<path d="M95.7533 83.2687C95.8819 82.7243 96.4858 82.5453 96.9795 82.5659C97.2914 82.587 97.6009 82.6359 97.9041 82.7122C98.2213 82.7832 98.5355 82.8673 98.8482 82.9563C99.4215 83.1197 99.9887 83.3174 100.571 83.4452C101.06 83.579 101.575 83.5866 102.067 83.4672C102.541 83.3371 102.914 82.9713 103.053 82.5C103.195 82.0498 102.991 81.5632 102.571 81.348C102.182 81.1338 101.693 81.2752 101.479 81.664C101.476 81.6697 101.473 81.6755 101.47 81.6813C101.29 82.1608 101.431 82.7017 101.823 83.0318C102.024 83.2203 102.243 83.3873 102.479 83.5301C102.718 83.693 102.984 83.8121 103.264 83.8819C103.742 84.0084 104.246 83.8115 104.511 83.3951C104.564 83.2955 104.596 83.186 104.604 83.0736C104.618 82.9206 104.379 82.9214 104.366 83.0736C104.325 83.5119 103.812 83.7166 103.428 83.6689C103.169 83.6259 102.921 83.5299 102.701 83.3868C102.489 83.2629 102.287 83.1208 102.099 82.9622C101.774 82.6803 101.469 82.2168 101.687 81.7772C101.857 81.4947 102.224 81.4036 102.507 81.5737C102.545 81.5964 102.58 81.6233 102.611 81.6537C102.953 81.9334 102.892 82.4405 102.667 82.7727C102.396 83.1195 101.978 83.3189 101.538 83.311C101.074 83.3118 100.613 83.2395 100.172 83.0967C99.6214 82.9405 99.0764 82.7655 98.5235 82.6182C98.2095 82.5346 97.8931 82.4593 97.5735 82.4006C97.2712 82.334 96.9607 82.3125 96.6521 82.3369C96.1312 82.3615 95.6805 82.7075 95.5221 83.2043C95.4875 83.3547 95.7179 83.4184 95.7533 83.2687Z" fill="#3F3D56"/>
<path d="M105.215 77.0396C105.287 77.0396 105.346 77.2461 105.346 77.5012V78.4244C105.346 78.6792 105.287 78.886 105.215 78.886H94.9093C94.8373 78.886 94.7789 78.6794 94.7789 78.4244V77.5012C94.7789 77.2461 94.8373 77.0396 94.9093 77.0396H105.215Z" fill="#E6E6E6"/>
<path d="M132.774 77.0396C132.847 77.0396 132.905 77.2461 132.905 77.5012V78.4244C132.905 78.6792 132.847 78.886 132.774 78.886H122.469C122.396 78.886 122.338 78.6794 122.338 78.4244V77.5012C122.338 77.2461 122.396 77.0396 122.469 77.0396H132.774Z" fill="#E6E6E6"/>
<path d="M128.186 82.2396L126.14 82.9158L125.117 83.2539C124.803 83.388 124.463 83.4505 124.122 83.4368C123.87 83.42 123.648 83.2632 123.549 83.031C123.505 82.7981 123.605 82.5619 123.803 82.4311C124.291 82.0598 124.908 82.4378 125.254 82.8223C125.677 83.2927 125.917 83.9001 126.314 84.3925C126.667 84.8345 127.115 85.1915 127.624 85.4373C128.643 85.9424 129.857 85.8386 130.775 85.1681C131.853 84.3362 131.963 82.8943 131.969 81.6365C131.965 81.5157 131.863 81.4212 131.743 81.4254C131.628 81.4295 131.536 81.5216 131.532 81.6365C131.526 82.7765 131.462 84.1739 130.422 84.8873C129.426 85.5707 128.118 85.3894 127.201 84.6612C126.728 84.2405 126.335 83.7384 126.04 83.1786C125.713 82.6428 125.307 82.1254 124.69 81.9175C124.146 81.7197 123.537 81.9324 123.234 82.4266C122.973 82.8661 123.117 83.434 123.557 83.6951C123.591 83.7153 123.626 83.7333 123.662 83.749C124.377 84.0895 125.194 83.6906 125.882 83.4631L128.303 82.6631C128.569 82.5752 128.455 82.1525 128.187 82.2412L128.186 82.2396Z" fill="#EE2524"/>
<path d="M37.279 133.156C37.2523 133.132 37.2317 133.12 37.2178 133.12C36.8841 133.123 36.5867 133.298 36.4228 133.588L32.8292 140.262C32.747 140.407 32.7067 140.566 32.708 140.724C32.7094 140.883 32.7525 141.041 32.8372 141.185C33.0066 141.473 40.9431 141.576 40.9431 141.576C41.2768 141.573 42.1928 137.467 37.279 133.156Z" fill="#E6E6E6"/>
<path d="M23.544 139.959L26.2717 139.935L27.4774 129.402L23.4517 129.438L23.544 139.959Z" fill="#FFB6B6"/>
<path d="M32.8885 139.815C32.9747 139.957 33.0235 140.419 33.025 140.585C33.0294 141.096 32.6186 141.514 32.1073 141.519L23.6602 141.592C23.3114 141.595 23.0261 141.315 23.0231 140.966L23.02 140.615C23.02 140.615 22.5929 139.561 23.4419 138.251C23.4419 138.251 24.5201 139.262 26.1039 137.65L26.5676 136.792L29.9999 139.257L31.8924 139.473C32.3064 139.521 32.6726 139.459 32.8885 139.815Z" fill="#2F2E41"/>
<path d="M33.9209 130.866L36.5125 131.717L41.0279 122.125L37.2029 120.87L33.9209 130.866Z" fill="#FFB6B6"/>
<path d="M42.8193 133.723C42.8554 133.886 42.7539 134.338 42.702 134.496C42.5425 134.982 42.0194 135.246 41.5336 135.087L33.5078 132.451C33.1764 132.343 32.996 131.986 33.1048 131.654L33.2145 131.32C33.2145 131.32 33.1473 130.186 34.3712 129.216C34.3712 129.216 35.0688 130.519 37.0854 129.499L37.7994 128.835L40.2616 132.269L41.9851 133.08C42.3622 133.258 42.729 133.316 42.8193 133.723Z" fill="#2F2E41"/>
<path d="M37.5802 69.7968L43.0298 87.2702L49.4185 102.974L39.7347 125.571L34.3466 123.471L39.169 103.914L30.9256 89.3113L27.0298 133.148L22.2907 132.58L16.1288 80.0701L17.0952 68.6514L37.5802 69.7968Z" fill="#2F2E41"/>
<path d="M32.0045 30.0116L26.1164 28.5903L24.492 32.4482C24.492 32.4482 16.5354 33.7924 16.1287 39.8835C16.1287 39.8835 14.5429 47.8793 15.558 50.1128C16.5731 52.3464 19.0757 60.2447 19.0757 60.2447C19.0757 60.2447 15.1133 70.085 16.1287 70.6931C17.1441 71.3013 38.901 73.5188 38.901 72.3006C38.901 71.0824 39.1493 56.6091 39.1493 56.6091L38.2974 34.6807L32.8168 32.6513L32.0045 30.0116Z" fill="#E6E6E6"/>
<path d="M31.0079 29.0306C34.2849 29.0306 36.9414 26.3741 36.9414 23.0971C36.9414 19.8201 34.2849 17.1636 31.0079 17.1636C27.7309 17.1636 25.0744 19.8201 25.0744 23.0971C25.0744 26.3741 27.7309 29.0306 31.0079 29.0306Z" fill="#FFB6B6"/>
<path d="M27.079 23.979C27.5526 24.238 27.1038 25.4757 27.3997 25.5826C27.7418 25.7062 28.9885 24.2861 29.0034 22.696C29.0079 22.2148 28.8971 21.9838 29.0034 21.4131C29.1424 20.6667 29.5697 19.7863 29.9656 19.8095C30.2002 19.8233 30.4295 20.1549 30.4467 20.4509C30.4708 20.8658 30.0678 21.0293 30.1259 21.2528C30.2367 21.6784 31.9291 21.9717 32.5314 21.2528C33.0036 20.6891 32.641 19.6999 32.8521 19.6491C33.0078 19.6117 33.1751 20.1564 33.8143 20.7717C34.0552 21.0035 34.4133 21.3483 34.6162 21.2528C34.9092 21.1148 34.6959 20.1431 34.7765 20.1302C34.8433 20.1195 34.8854 20.8025 35.2576 21.4131C35.7359 22.1976 36.722 22.8021 37.182 22.5357C37.4638 22.3725 37.4859 21.9184 37.5027 21.5735C37.5381 20.8469 38.5934 19.1753 38.32 18.3981C37.7635 16.8163 36.8112 17.9318 36.3802 17.404C35.7967 16.6895 35.2735 17.074 34.2954 16.2815C33.34 15.5073 33.3314 14.7288 32.6918 14.6778C32.1157 14.6319 31.9111 15.2464 31.2485 15.1589C30.6872 15.0848 30.5649 14.6083 30.1259 14.6778C29.7241 14.7415 29.6977 15.1613 29.1638 15.3193C28.8228 15.4201 28.7479 15.2743 28.3619 15.3193C27.5588 15.4127 27.0196 16.1444 26.9186 16.2815C26.5293 16.8098 26.6805 17.0325 26.2772 17.5644C25.9294 18.023 25.1582 17.8286 24.8684 18.0577C23.9213 18.8063 23.5148 20.1865 23.5071 21.7594C23.5017 22.8595 23.6454 23.4153 23.9659 24.8038C24.2093 25.8581 25.3356 27.2203 25.9565 27.8277C26.1231 27.9908 26.5903 28.4478 26.9186 28.3088C27.2298 28.1771 27.239 27.5852 27.2394 27.507C27.2407 27.2382 27.169 26.9056 26.5979 26.0637C25.9981 25.1794 25.7598 25.0785 25.7961 24.7808C25.8602 24.2546 26.7015 23.7725 27.079 23.979Z" fill="#2F2E41"/>
<path d="M10.2995 83.1627C10.0929 84.8881 10.8155 86.3933 11.9134 86.5248C13.0114 86.6563 14.0689 85.3643 14.2756 83.6389C14.366 82.8836 14.2784 82.1706 14.0592 81.5965L14.8431 74.2746L11.3993 73.98L10.9921 81.2291C10.6435 81.7353 10.39 82.4075 10.2995 83.1627Z" fill="#FFB6B6"/>
<path d="M20.2158 34.5386C20.2158 34.5386 18.4316 34.5633 17.2495 36.8702C16.6213 38.096 12.538 60.067 12.538 60.067L11.3909 67.0159L11.9805 68.1651C11.0433 69.5985 10.7853 71.372 11.2752 73.0131L10.1544 79.8022L15.4247 79.8306L19.5375 62.0455L22.9958 51.7308L20.2158 34.5386Z" fill="#E6E6E6"/>
<path d="M47.1411 82.8947C47.3477 84.62 46.6252 86.1253 45.5272 86.2568C44.4293 86.3883 43.3717 85.0962 43.1651 83.3708C43.0746 82.6156 43.1622 81.9025 43.3814 81.3284L42.5976 74.0066L46.0414 73.7119L46.4486 80.9611C46.7971 81.4672 47.0507 82.1394 47.1411 82.8947Z" fill="#FFB6B6"/>
<path d="M37.2251 34.2705C37.2251 34.2705 39.0093 34.2953 40.1914 36.6021C40.8196 37.8279 44.9029 59.799 44.9029 59.799L46.05 66.7478L45.4605 67.8971C46.3976 69.3305 46.6556 71.104 46.1657 72.745L47.2865 79.5342L42.0163 79.5625L37.9034 61.7774L34.4451 51.4628L37.2251 34.2705Z" fill="#E6E6E6"/>
<path d="M198.474 24.8847C198.693 25.243 199.854 23.9321 201.637 23.7876C202.091 23.7498 203.115 25.4881 204.289 25.5132C205.067 25.5289 205.546 25.5227 206.504 25.5132C207.636 25.5007 207.946 25.4755 208.165 25.1989C208.589 24.6615 208.24 23.7061 208.442 23.6275C208.611 23.5615 209.048 24.1524 209.273 24.8847C209.743 26.4215 208.054 28.5618 207.888 30.5419C207.711 32.6759 209.455 28.587 209.273 30.5419C209.068 32.7419 208.334 32.5753 208.342 33.3705C208.345 33.4899 208.376 33.5936 208.442 33.6848C208.5 33.7665 208.558 33.7979 209.55 33.999C210.735 34.241 211.33 34.3605 211.488 34.3133C211.895 34.1939 212.307 33.5308 212.595 33.0562C213.072 32.2799 212.734 33.0625 212.595 32.1133C212.462 31.1956 212.047 31.0762 212.042 30.2276C212.036 29.159 212.692 28.8353 213.149 27.7133C213.994 25.6389 213.169 23.2378 212.872 22.3703C212.73 21.9544 212.472 21.4279 212.02 20.558C211.656 19.8596 211.174 19.2445 210.587 18.7835C209.706 18.0927 208.683 17.6193 207.576 17.4318C206.97 17.329 206.352 17.383 205.757 17.5454L204.214 17.9663C203.565 18.1432 202.953 18.4638 202.414 18.9098C201.912 18.9117 201.476 19.2804 201.304 19.8162C201.286 19.8723 201.269 19.9049 201.256 19.9001C198.474 18.9132 198.476 21.8364 198.506 23.6625C198.51 23.8494 198.504 24.0149 198.482 24.1492V24.1586C198.427 24.5201 198.413 24.7841 198.474 24.8847Z" fill="#2F2E41"/>
<path d="M162.314 41.0293H133.03V41.5651H162.314V41.0293Z" fill="#3F3D56"/>
<path d="M168.208 44.772C166.14 44.772 164.458 43.0894 164.458 41.0212C164.458 38.9531 166.14 37.2705 168.208 37.2705C170.277 37.2705 171.959 38.9531 171.959 41.0212C171.959 43.0894 170.277 44.772 168.208 44.772ZM168.208 37.8063C166.436 37.8063 164.993 39.2486 164.993 41.0212C164.993 42.7939 166.436 44.2362 168.208 44.2362C169.981 44.2362 171.423 42.7939 171.423 41.0212C171.423 39.2486 169.981 37.8063 168.208 37.8063Z" fill="#3F3D56"/>
<path d="M168.208 42.8967C169.244 42.8967 170.084 42.0571 170.084 41.0214C170.084 39.9856 169.244 39.146 168.208 39.146C167.173 39.146 166.333 39.9856 166.333 41.0214C166.333 42.0571 167.173 42.8967 168.208 42.8967Z" fill="#EE2524"/>
<path d="M95.4194 60.8545H66.1349V61.3903H95.4194V60.8545Z" fill="#3F3D56"/>
<path d="M56.4903 60.8469C56.4903 58.7787 58.1728 57.0962 60.241 57.0962C62.3092 57.0962 63.9918 58.7787 63.9918 60.8469C63.9918 62.9151 62.3092 64.5977 60.241 64.5977C58.1728 64.5977 56.4903 62.9151 56.4903 60.8469ZM57.0261 60.8469C57.0261 62.6196 58.4684 64.0618 60.241 64.0618C62.0137 64.0618 63.4559 62.6196 63.4559 60.8469C63.4559 59.0742 62.0137 57.632 60.241 57.632C58.4684 57.632 57.0261 59.0742 57.0261 60.8469Z" fill="#3F3D56"/>
<path d="M60.2409 62.7219C61.2766 62.7219 62.1163 61.8823 62.1163 60.8466C62.1163 59.8108 61.2766 58.9712 60.2409 58.9712C59.2052 58.9712 58.3655 59.8108 58.3655 60.8466C58.3655 61.8823 59.2052 62.7219 60.2409 62.7219Z" fill="#EE2524"/>
</g>
<defs>
<clipPath id="clip0_1_295">
<rect width="228" height="141.379" fill="white" transform="translate(0 0.272461)"/>
</clipPath>
</defs>
</svg>
