<svg width="246" height="151" viewBox="0 0 246 151" fill="none" xmlns="http://www.w3.org/2000/svg">
<g clip-path="url(#clip0_1_253)">
<path d="M126.036 121.56L40.148 143.677C37.2346 144.424 34.1439 143.985 31.554 142.455C28.9642 140.926 27.0866 138.432 26.3333 135.52L0.359889 34.6515C-0.386813 31.7381 0.05262 28.6474 1.58178 26.0576C3.11095 23.4677 5.60496 21.5902 8.51669 20.8368L88.4219 0.260498L108.872 9.41582L134.193 107.745C134.94 110.659 134.501 113.749 132.971 116.339C131.442 118.929 128.948 120.807 126.036 121.56Z" fill="#F2F2F2"/>
<path d="M9.32947 23.9994C7.25597 24.5358 5.4799 25.8728 4.39092 27.7171C3.30195 29.5614 2.989 31.7623 3.52071 33.837L29.4958 134.706C30.0322 136.78 31.3692 138.556 33.2135 139.645C35.0578 140.734 37.2587 141.047 39.3334 140.515L125.222 118.398C127.295 117.862 129.071 116.525 130.16 114.681C131.249 112.836 131.562 110.635 131.031 108.561L106.102 11.754L88.1286 3.70776L9.32947 23.9994Z" fill="white"/>
<path d="M108.654 9.93691L95.3617 13.3599C94.3913 13.6098 93.3614 13.4639 92.4985 12.9544C91.6357 12.4449 91.0106 11.6135 90.7607 10.6432L88.2326 0.825547C88.2216 0.782588 88.2229 0.7374 88.2364 0.695153C88.2498 0.652905 88.2749 0.615304 88.3088 0.586657C88.3426 0.558009 88.3839 0.539473 88.4278 0.533165C88.4717 0.526856 88.5165 0.533029 88.557 0.550984L108.691 9.49243C108.736 9.51236 108.773 9.54573 108.798 9.58791C108.823 9.63009 108.835 9.67899 108.831 9.72784C108.826 9.77669 108.807 9.82305 108.776 9.86051C108.744 9.89797 108.702 9.92468 108.654 9.93691Z" fill="#F2F2F2"/>
<path d="M101.661 96.0762L62.5573 106.147C62.0732 106.268 61.5606 106.194 61.1315 105.939C60.7024 105.684 60.3916 105.269 60.2671 104.786C60.1427 104.302 60.2146 103.789 60.4672 103.359C60.7198 102.928 61.1325 102.615 61.6152 102.488L100.719 92.4173C100.96 92.3539 101.211 92.3387 101.457 92.3725C101.704 92.4064 101.942 92.4887 102.156 92.6147C102.371 92.7407 102.559 92.9079 102.709 93.1067C102.859 93.3055 102.968 93.5319 103.03 93.773C103.092 94.0142 103.106 94.2652 103.07 94.5116C103.035 94.7581 102.952 94.9952 102.824 95.2092C102.697 95.4233 102.529 95.61 102.329 95.7588C102.13 95.9076 101.903 96.0155 101.661 96.0762Z" fill="#CCCCCC"/>
<path d="M110.797 100.307L64.1469 112.32C63.9062 112.384 63.6553 112.399 63.4086 112.365C63.1619 112.331 62.9244 112.249 62.7096 112.123C62.4949 111.997 62.3071 111.83 62.1572 111.631C62.0073 111.432 61.8982 111.206 61.8361 110.965C61.774 110.724 61.7602 110.472 61.7955 110.226C61.8307 109.98 61.9144 109.742 62.0416 109.528C62.1688 109.314 62.337 109.128 62.5367 108.979C62.7363 108.83 62.9634 108.722 63.2048 108.661L109.855 96.6484C110.339 96.5266 110.852 96.6014 111.281 96.8564C111.71 97.1115 112.021 97.526 112.145 98.0094C112.27 98.4928 112.198 99.0058 111.945 99.4364C111.693 99.8669 111.28 100.18 110.797 100.307Z" fill="#CCCCCC"/>
<path d="M46.5973 118.274C50.285 118.274 53.2744 115.285 53.2744 111.597C53.2744 107.909 50.285 104.92 46.5973 104.92C42.9097 104.92 39.9203 107.909 39.9203 111.597C39.9203 115.285 42.9097 118.274 46.5973 118.274Z" fill="#EE2524"/>
<path d="M97.503 78.6021L45.569 91.9706C44.068 92.3552 42.4759 92.1287 41.1418 91.3408C39.8076 90.5529 38.8406 89.2679 38.4527 87.7679L27.5696 45.4884C27.1854 43.9877 27.4121 42.3958 28.2 41.062C28.9879 39.7282 30.2726 38.7613 31.7723 38.3734L83.7061 25.0049C85.207 24.6203 86.7992 24.8468 88.1333 25.6347C89.4674 26.4226 90.4345 27.7075 90.8224 29.2076L101.706 71.4871C102.09 72.9878 101.863 74.5797 101.075 75.9135C100.287 77.2473 99.0028 78.2142 97.503 78.6021Z" fill="white"/>
<path d="M97.503 78.6021L45.569 91.9706C44.068 92.3552 42.4759 92.1287 41.1418 91.3408C39.8076 90.5529 38.8406 89.2679 38.4527 87.7679L27.5696 45.4884C27.1854 43.9877 27.4121 42.3958 28.2 41.062C28.9879 39.7282 30.2726 38.7613 31.7723 38.3734L83.7061 25.0049C85.207 24.6203 86.7992 24.8468 88.1333 25.6347C89.4674 26.4226 90.4345 27.7075 90.8224 29.2076L101.706 71.4871C102.09 72.9878 101.863 74.5797 101.075 75.9135C100.287 77.2473 99.0028 78.2142 97.503 78.6021ZM31.9436 39.038C30.6203 39.3806 29.4869 40.2341 28.792 41.4112C28.0971 42.5883 27.8974 43.993 28.2368 45.3172L39.1202 87.5966C39.4628 88.92 40.3163 90.0534 41.4934 90.7482C42.6705 91.4431 44.0752 91.6428 45.3994 91.3034L97.3321 77.9362C98.6554 77.5936 99.7888 76.7401 100.484 75.563C101.179 74.3858 101.378 72.9811 101.039 71.657L90.1565 29.3775C89.8139 28.0542 88.9604 26.9208 87.7833 26.2259C86.6061 25.531 85.2014 25.3314 83.8773 25.6708L31.9436 39.038Z" fill="#E6E6E6"/>
<path d="M81.0713 39.22L54.8617 45.9669C54.6326 46.0308 54.3878 46.0055 54.1767 45.8959C53.9656 45.7863 53.804 45.6006 53.7245 45.3764C53.6875 45.2593 53.6748 45.1358 53.6871 45.0135C53.6994 44.8913 53.7365 44.7728 53.7961 44.6654C53.8557 44.5579 53.9366 44.4638 54.0338 44.3886C54.131 44.3135 54.2425 44.2589 54.3615 44.2283L81.0418 37.3604C82.1197 37.9065 81.836 39.0235 81.0717 39.2203L81.0713 39.22Z" fill="#F2F2F2"/>
<path d="M82.2539 43.8157L56.0443 50.5626C55.8152 50.6265 55.5704 50.6012 55.3592 50.4916C55.1481 50.382 54.9865 50.1963 54.907 49.9721C54.87 49.855 54.8573 49.7315 54.8696 49.6092C54.8819 49.487 54.919 49.3685 54.9786 49.2611C55.0382 49.1536 55.1191 49.0595 55.2163 48.9843C55.3135 48.9092 55.425 48.8546 55.544 48.824L82.2244 41.9561C83.3023 42.5022 83.0185 43.6192 82.2542 43.816L82.2539 43.8157Z" fill="#F2F2F2"/>
<path d="M51.0523 54.6403L43.0533 56.6986C42.9239 56.732 42.7892 56.7395 42.657 56.7208C42.5247 56.7021 42.3974 56.6575 42.2824 56.5895C42.1673 56.5216 42.0668 56.4317 41.9866 56.3249C41.9063 56.2181 41.8479 56.0965 41.8146 55.9671L39.3846 46.5297C39.3512 46.4003 39.3437 46.2657 39.3624 46.1334C39.3812 46.0011 39.4258 45.8739 39.4937 45.7588C39.5616 45.6438 39.6516 45.5433 39.7584 45.463C39.8651 45.3828 39.9867 45.3243 40.1161 45.2911L48.1151 43.232C48.3763 43.1651 48.6534 43.2046 48.8856 43.3417C49.1178 43.4789 49.2862 43.7025 49.3537 43.9635L51.7838 53.4032C51.8171 53.5326 51.8246 53.6673 51.8059 53.7995C51.7872 53.9318 51.7426 54.0591 51.6747 54.1741C51.6067 54.2892 51.5168 54.3897 51.41 54.4699C51.3032 54.5502 51.1817 54.6086 51.0523 54.6419V54.6403Z" fill="#EE2524"/>
<path d="M84.6016 53.2506L44.6 63.5474C44.3709 63.6114 44.126 63.586 43.9149 63.4764C43.7038 63.3668 43.5422 63.1812 43.4627 62.957C43.4257 62.8398 43.413 62.7163 43.4253 62.5941C43.4376 62.4718 43.4747 62.3534 43.5343 62.2459C43.5939 62.1385 43.6748 62.0443 43.772 61.9692C43.8692 61.894 43.9807 61.8395 44.0997 61.8089L84.5721 51.3906C85.65 51.9368 85.3659 53.0537 84.6016 53.2506Z" fill="#F2F2F2"/>
<path d="M85.7861 57.8489L45.7838 68.1461C45.5547 68.21 45.3099 68.1846 45.0988 68.075C44.8877 67.9654 44.726 67.7798 44.6465 67.5556C44.6095 67.4384 44.5968 67.3149 44.6091 67.1927C44.6215 67.0704 44.6586 66.952 44.7182 66.8446C44.7778 66.7371 44.8587 66.6429 44.9559 66.5678C45.0531 66.4927 45.1646 66.4381 45.2836 66.4075L85.7559 55.9893C86.8338 56.5354 86.5501 57.6524 85.7858 57.8492L85.7861 57.8489Z" fill="#F2F2F2"/>
<path d="M86.9684 62.4449L46.9667 72.7418C46.7376 72.8057 46.4928 72.7803 46.2817 72.6707C46.0706 72.5611 45.9089 72.3755 45.8294 72.1513C45.7924 72.0341 45.7797 71.9107 45.792 71.7884C45.8043 71.6662 45.8414 71.5477 45.901 71.4403C45.9607 71.3328 46.0415 71.2387 46.1388 71.1635C46.236 71.0884 46.3475 71.0338 46.4665 71.0032L86.9385 60.585C88.0164 61.1311 87.7327 62.2481 86.9684 62.4449Z" fill="#F2F2F2"/>
<path d="M88.1525 67.0435L48.1506 77.3404C47.9215 77.4044 47.6766 77.379 47.4655 77.2694C47.2544 77.1598 47.0928 76.9741 47.0133 76.7499C46.9763 76.6328 46.9636 76.5093 46.9759 76.387C46.9882 76.2648 47.0253 76.1463 47.0849 76.0389C47.1445 75.9315 47.2254 75.8373 47.3226 75.7621C47.4198 75.687 47.5313 75.6325 47.6503 75.6018L88.1227 65.1836C89.2003 65.7298 88.9169 66.8467 88.1525 67.0435Z" fill="#F2F2F2"/>
<path d="M89.3354 71.6397L49.3338 81.9366C49.1047 82.0005 48.8598 81.9752 48.6487 81.8656C48.4376 81.756 48.276 81.5703 48.1965 81.3461C48.1595 81.229 48.1468 81.1055 48.1591 80.9832C48.1714 80.861 48.2085 80.7425 48.2681 80.6351C48.3277 80.5276 48.4086 80.4335 48.5058 80.3583C48.603 80.2832 48.7145 80.2286 48.8335 80.198L89.3059 69.7798C90.3835 70.326 90.0997 71.4429 89.3354 71.6397Z" fill="#F2F2F2"/>
<path d="M47.0901 113.937C46.9448 113.975 46.7911 113.964 46.6522 113.907L46.6437 113.903L44.8248 113.132C44.7405 113.096 44.6641 113.044 44.5999 112.979C44.5358 112.913 44.4851 112.836 44.4509 112.751C44.4166 112.666 44.3994 112.575 44.4003 112.484C44.4012 112.392 44.42 112.301 44.4559 112.217C44.4917 112.133 44.5438 112.056 44.6092 111.992C44.6746 111.928 44.7519 111.878 44.8369 111.843C44.9218 111.809 45.0126 111.792 45.1042 111.793C45.1958 111.794 45.2863 111.812 45.3706 111.848L46.5492 112.35L48.0936 108.716C48.1659 108.546 48.3029 108.412 48.4743 108.343C48.6458 108.273 48.8377 108.275 49.0078 108.348L48.9986 108.371L49.0081 108.347C49.1782 108.42 49.3126 108.557 49.3817 108.728C49.4508 108.9 49.4491 109.092 49.3768 109.262L47.5599 113.534C47.5177 113.632 47.4535 113.72 47.3721 113.789C47.2906 113.859 47.1943 113.909 47.0905 113.935L47.0901 113.937Z" fill="white"/>
<path d="M210.347 148.096L123.286 131.174C120.334 130.596 117.731 128.872 116.05 126.378C114.368 123.884 113.744 120.825 114.315 117.872L134.189 15.6261C134.767 12.6743 136.491 10.0721 138.984 8.39022C141.478 6.70837 144.537 6.08426 147.49 6.65482L228.486 22.3989L243.022 39.4523L223.647 139.124C223.07 142.076 221.346 144.679 218.852 146.361C216.359 148.043 213.3 148.667 210.347 148.096Z" fill="#E6E6E6"/>
<path d="M146.867 9.86077C144.764 9.45448 142.586 9.89893 140.81 11.0966C139.034 12.2943 137.806 14.1473 137.395 16.2493L117.521 118.495C117.114 120.598 117.559 122.776 118.756 124.552C119.954 126.328 121.807 127.556 123.909 127.967L210.97 144.89C213.073 145.296 215.251 144.852 217.027 143.654C218.802 142.456 220.03 140.603 220.442 138.501L239.516 40.3739L226.741 25.3869L146.867 9.86077Z" fill="white"/>
<path d="M211.215 53.2223L171.577 45.5175C171.086 45.4219 170.652 45.1349 170.372 44.7195C170.092 44.3041 169.988 43.7945 170.084 43.3027C170.179 42.8108 170.466 42.3771 170.882 42.097C171.297 41.8168 171.807 41.7131 172.298 41.8087L211.937 49.5137C212.429 49.6093 212.863 49.8963 213.143 50.3117C213.423 50.7271 213.527 51.2367 213.431 51.7285C213.335 52.2204 213.048 52.6541 212.633 52.9342C212.218 53.2144 211.708 53.3181 211.216 53.2225L211.215 53.2223Z" fill="#EE2524"/>
<path d="M217.648 60.968L170.361 51.7763C169.869 51.6807 169.435 51.3937 169.155 50.9783C168.875 50.5629 168.771 50.0533 168.867 49.5614C168.963 49.0696 169.25 48.6359 169.665 48.3558C170.08 48.0756 170.59 47.9719 171.082 48.0675L218.369 57.2592C218.861 57.3548 219.294 57.6418 219.575 58.0572C219.855 58.4726 219.959 58.9822 219.863 59.4741C219.767 59.9659 219.48 60.3996 219.065 60.6798C218.65 60.9599 218.14 61.0636 217.648 60.968Z" fill="#EE2524"/>
<path d="M206.485 77.5601L166.848 69.8555C166.356 69.76 165.847 69.8636 165.431 70.1438C165.016 70.4239 164.729 70.8576 164.633 71.3494C164.538 71.8412 164.641 72.3508 164.921 72.7661C165.202 73.1814 165.635 73.4685 166.127 73.5641L205.764 81.2687C206.253 81.357 206.756 81.2493 207.166 80.9688C207.576 80.6883 207.859 80.2577 207.954 79.7701C208.049 79.2825 207.948 78.7772 207.673 78.3636C207.398 77.95 206.971 77.6613 206.485 77.5601Z" fill="#CCCCCC"/>
<path d="M212.918 85.3069L165.631 76.1154C165.386 76.0644 165.134 76.0626 164.888 76.11C164.642 76.1575 164.409 76.2533 164.2 76.3918C163.992 76.5303 163.813 76.7089 163.674 76.917C163.536 77.1252 163.44 77.3588 163.392 77.6044C163.344 77.85 163.346 78.1026 163.396 78.3476C163.447 78.5926 163.546 78.8251 163.687 79.0316C163.828 79.238 164.009 79.4144 164.219 79.5504C164.429 79.6864 164.664 79.7794 164.91 79.8239L212.197 89.0154C212.441 89.0664 212.694 89.0682 212.94 89.0207C213.185 88.9733 213.419 88.8775 213.627 88.739C213.836 88.6004 214.014 88.4219 214.153 88.2137C214.292 88.0056 214.388 87.7719 214.436 87.5263C214.484 87.2808 214.482 87.0281 214.431 86.7832C214.381 86.5382 214.282 86.3057 214.141 86.0992C213.999 85.8927 213.818 85.7164 213.608 85.5803C213.398 85.4443 213.164 85.3514 212.918 85.3069Z" fill="#CCCCCC"/>
<path d="M200.311 109.318L160.673 101.613C160.182 101.518 159.748 101.231 159.468 100.815C159.188 100.4 159.084 99.8902 159.179 99.3984C159.275 98.9065 159.562 98.4728 159.978 98.1927C160.393 97.9125 160.903 97.8088 161.394 97.9044L201.033 105.609C201.525 105.705 201.959 105.992 202.239 106.407C202.519 106.823 202.623 107.332 202.527 107.824C202.431 108.316 202.144 108.75 201.729 109.03C201.314 109.31 200.804 109.414 200.312 109.318L200.311 109.318Z" fill="#CCCCCC"/>
<path d="M206.744 117.063L159.457 107.872C158.965 107.776 158.532 107.489 158.251 107.074C157.971 106.658 157.868 106.148 157.963 105.657C158.059 105.165 158.346 104.731 158.761 104.451C159.177 104.171 159.686 104.067 160.178 104.163L207.465 113.354C207.957 113.45 208.391 113.737 208.671 114.152C208.951 114.568 209.055 115.077 208.959 115.569C208.864 116.061 208.576 116.495 208.161 116.775C207.746 117.055 207.236 117.159 206.744 117.063Z" fill="#CCCCCC"/>
<path d="M153.549 50.1387C157.169 50.8423 160.674 48.4782 161.378 44.8583C162.081 41.2384 159.717 37.7335 156.097 37.0299C152.478 36.3263 148.973 38.6904 148.269 42.3102C147.565 45.9301 149.929 49.435 153.549 50.1387Z" fill="#EE2524"/>
<path d="M153.688 45.9581C153.541 45.9297 153.406 45.8541 153.306 45.7427L153.299 45.7358L151.988 44.2578C151.868 44.1189 151.808 43.9385 151.82 43.7555C151.833 43.5725 151.916 43.4018 152.054 43.2802C152.191 43.1586 152.371 43.096 152.554 43.106C152.737 43.1159 152.909 43.1976 153.032 43.3333L153.882 44.2924L156.837 41.6748C156.905 41.6141 156.985 41.5675 157.072 41.5376C157.158 41.5078 157.25 41.4953 157.341 41.5009C157.433 41.5065 157.522 41.53 157.604 41.5701C157.687 41.6102 157.76 41.6662 157.821 41.7348L157.802 41.7516L157.822 41.7342C157.944 41.8728 158.006 42.0542 157.995 42.2387C157.984 42.4233 157.9 42.5958 157.762 42.7184L154.285 45.796C154.204 45.8668 154.109 45.9182 154.005 45.9462C153.902 45.9741 153.794 45.9779 153.688 45.9571L153.688 45.9581Z" fill="white"/>
<path d="M156.6 73.0359C156.433 73.8968 156.098 74.7164 155.614 75.4478C155.13 76.1792 154.507 76.8082 153.78 77.2987C153.053 77.7893 152.237 78.1319 151.378 78.3069C150.518 78.4819 149.633 78.4859 148.772 78.3187C148.716 78.3089 148.66 78.2957 148.605 78.2792C147.322 77.9956 146.152 77.3402 145.241 76.3949C144.329 75.4496 143.716 74.2565 143.479 72.9648C143.242 71.6731 143.392 70.3402 143.909 69.1329C144.425 67.9256 145.287 66.8976 146.385 66.1774C147.483 65.4572 148.769 65.0769 150.082 65.084C151.396 65.0911 152.678 65.4853 153.768 66.2174C154.858 66.9494 155.708 67.9868 156.212 69.1996C156.716 70.4124 156.851 71.7468 156.6 73.0359Z" fill="#EE2524"/>
<path d="M142.645 106.234C146.265 106.938 149.77 104.573 150.474 100.954C151.178 97.3337 148.813 93.8288 145.194 93.1251C141.574 92.4215 138.069 94.7856 137.365 98.4055C136.662 102.025 139.026 105.53 142.645 106.234Z" fill="#EE2524"/>
<path d="M242.601 39.8287L229.127 37.2097C228.143 37.0185 227.276 36.4443 226.716 35.6136C226.155 34.7828 225.948 33.7635 226.139 32.7799L228.073 22.8284C228.082 22.7848 228.103 22.7445 228.133 22.7121C228.163 22.6798 228.202 22.6566 228.245 22.6452C228.288 22.6339 228.333 22.6349 228.376 22.6481C228.418 22.6613 228.456 22.6861 228.485 22.7198L242.825 39.4423C242.857 39.4795 242.877 39.5257 242.881 39.5745C242.886 39.6233 242.875 39.6723 242.85 39.7147C242.825 39.757 242.788 39.7907 242.744 39.8109C242.699 39.8312 242.649 39.8371 242.601 39.8277L242.601 39.8287Z" fill="#CCCCCC"/>
<path d="M162.734 139.329C162.319 140.01 161.651 140.497 160.877 140.685C160.103 140.872 159.285 140.745 158.605 140.33L123.554 118.95C122.874 118.535 122.387 117.867 122.199 117.093C122.011 116.319 122.139 115.501 122.554 114.821C122.969 114.141 123.637 113.653 124.411 113.466C125.186 113.278 126.003 113.406 126.683 113.821L161.734 135.201C162.414 135.615 162.901 136.284 163.089 137.058C163.276 137.832 163.149 138.649 162.734 139.329Z" fill="#3F3D56"/>
<path d="M127.683 117.951C125.208 122.009 121.585 125.242 117.273 127.241C112.96 129.24 108.152 129.916 103.455 129.182C98.7592 128.448 94.3859 126.338 90.8887 123.119C87.3915 119.9 84.9275 115.716 83.8081 111.096C82.6888 106.477 82.9644 101.629 84.6002 97.1662C86.236 92.7033 89.1585 88.8256 92.9981 86.0236C96.8376 83.2216 101.422 81.621 106.171 81.4244C110.92 81.2277 115.621 82.4438 119.679 84.9188C122.374 86.5621 124.718 88.7202 126.579 91.2696C128.439 93.8191 129.779 96.71 130.523 99.7774C131.266 102.845 131.398 106.028 130.91 109.147C130.423 112.265 129.327 115.257 127.683 117.951ZM91.7776 96.0488C89.9213 99.0924 89.0092 102.618 89.1567 106.18C89.3041 109.742 90.5045 113.18 92.6061 116.06C94.7076 118.94 97.6158 121.132 100.963 122.358C104.31 123.585 107.946 123.792 111.411 122.952C114.876 122.113 118.014 120.265 120.428 117.642C122.842 115.019 124.425 111.739 124.975 108.217C125.525 104.694 125.019 101.088 123.519 97.8537C122.02 94.6193 119.595 91.9022 116.552 90.0459C112.47 87.5567 107.567 86.7907 102.921 87.9165C98.2754 89.0423 94.2668 91.9676 91.7776 96.0488Z" fill="#3F3D56"/>
<path d="M100.811 122.866C110.576 126.228 121.218 121.038 124.58 111.273C127.942 101.508 122.752 90.866 112.987 87.5037C103.222 84.1413 92.5799 89.3317 89.2175 99.0967C85.8551 108.862 91.0455 119.504 100.811 122.866Z" fill="#EE2524"/>
</g>
<defs>
<clipPath id="clip0_1_253">
<rect width="245.686" height="150" fill="white" transform="translate(0 0.26001)"/>
</clipPath>
</defs>
</svg>
