<svg width="494" height="358" viewBox="0 0 494 358" fill="none" xmlns="http://www.w3.org/2000/svg">
<path d="M486.458 216.486C481.501 203.621 473.406 191.718 462.665 181.5C425.917 146.948 371.825 129.446 317.18 125.138C179.62 114.336 143.145 183.656 117.853 196.41C68.4822 221.317 -22.6374 254.434 13.1069 315.274C32.8311 348.826 90.7641 351.812 129.89 352.018C244.029 352.605 259.39 338.812 320.118 350.213C380.845 361.615 442.375 358.582 474.157 318.988C496.783 290.802 498.853 247.928 486.458 216.486Z" fill="#EE2524" fill-opacity="0.12"/>
<path d="M45.1433 210.155C45.1433 210.155 25.2468 197.996 28.6999 197.426C32.1531 196.856 85.5435 198.852 90.1603 199.409C94.7771 199.967 110.069 201.677 112.081 202.52C114.092 203.363 134.583 210.44 147.573 211.567C160.563 212.695 174.135 211.852 176.425 212.98C178.714 214.108 187.391 222.895 185.367 225.981C183.344 229.067 177.867 229.947 177.867 229.947L135.165 234.471C135.165 234.471 128.246 226.551 122.756 224.283C117.267 222.015 80.3448 211.282 69.9602 211.282C59.5756 211.282 45.1433 210.155 45.1433 210.155Z" fill="#263238" stroke="#263238" stroke-miterlimit="10"/>
<path d="M40.2481 232.773C40.2481 232.773 21.4647 267.822 1.87177 280.822C1.87177 280.822 -1.30308 281.963 4.46475 281.963C10.2326 281.963 28.1306 263.013 33.8984 256.234C39.6662 249.454 45.725 245.203 53.2257 245.203H64.1922L40.2481 232.773Z" fill="#263238" stroke="#263238" stroke-miterlimit="10"/>
<path d="M58.7153 262.74C50.8389 262.738 43.1386 265.024 36.5886 269.31C30.0386 273.596 24.933 279.689 21.9177 286.819C18.9024 293.949 18.1128 301.794 19.6488 309.363C21.1848 316.933 24.9773 323.886 30.5468 329.343C36.1162 334.8 43.2123 338.516 50.9375 340.021C58.6627 341.526 66.6699 340.752 73.9462 337.798C81.2226 334.843 87.4412 329.841 91.8156 323.423C96.1899 317.005 98.5234 309.46 98.5209 301.743C98.5209 291.399 94.3271 281.478 86.8621 274.164C79.3971 266.849 69.2724 262.74 58.7153 262.74ZM58.7153 324.088C54.2122 324.088 49.8103 322.78 46.0661 320.329C42.322 317.877 39.4038 314.393 37.6806 310.317C35.9573 306.241 35.5065 301.755 36.385 297.428C37.2635 293.1 39.4319 289.125 42.616 286.005C45.8001 282.886 49.857 280.761 54.2735 279.9C58.69 279.039 63.2678 279.481 67.4281 281.17C71.5883 282.858 75.1442 285.717 77.6459 289.386C80.1477 293.055 81.483 297.368 81.483 301.78C81.483 307.696 79.0843 313.371 74.8145 317.554C70.5447 321.738 64.7536 324.088 58.7153 324.088Z" fill="#263238" stroke="#263238" stroke-miterlimit="10"/>
<path d="M58.7153 285.631C55.4631 285.631 52.2839 286.576 49.5798 288.346C46.8757 290.117 44.7681 292.633 43.5235 295.577C42.279 298.521 41.9533 301.761 42.5878 304.886C43.2223 308.011 44.7883 310.882 47.088 313.135C49.3876 315.389 52.3176 316.923 55.5073 317.545C58.697 318.166 62.0032 317.847 65.0079 316.628C68.0125 315.408 70.5806 313.343 72.3874 310.694C74.1942 308.044 75.1586 304.929 75.1586 301.743C75.1586 297.47 73.4262 293.372 70.3425 290.35C67.2587 287.329 63.0763 285.631 58.7153 285.631ZM58.7153 310.976C56.851 310.978 55.0278 310.439 53.4765 309.426C51.9252 308.413 50.7154 306.972 50.0002 305.285C49.285 303.598 49.0966 301.741 49.4588 299.949C49.821 298.157 50.7174 296.511 52.0348 295.218C53.3522 293.926 55.0313 293.045 56.8595 292.688C58.6878 292.331 60.5832 292.513 62.3058 293.211C64.0284 293.91 65.5009 295.093 66.5369 296.612C67.5729 298.13 68.1259 299.916 68.1259 301.743C68.1259 304.189 67.1348 306.536 65.3704 308.267C63.6059 309.998 61.2123 310.973 58.7153 310.976Z" fill="#263238" stroke="#263238" stroke-miterlimit="10"/>
<path d="M58.7152 273.758C53.0648 273.751 47.5391 275.386 42.8373 278.456C38.1355 281.527 34.4689 285.895 32.3013 291.008C30.1338 296.12 29.5628 301.748 30.6605 307.179C31.7583 312.61 34.4755 317.6 38.4683 321.518C42.4611 325.435 47.55 328.104 53.0913 329.187C58.6326 330.27 64.3772 329.718 69.5983 327.601C74.8193 325.484 79.2822 321.897 82.4221 317.294C85.5621 312.691 87.2382 307.279 87.2382 301.743C87.2415 294.326 84.2387 287.212 78.89 281.964C73.5412 276.716 66.2845 273.765 58.7152 273.758ZM58.7152 324.088C54.2122 324.088 49.8103 322.78 46.0661 320.329C42.322 317.877 39.4038 314.393 37.6805 310.317C35.9573 306.241 35.5064 301.755 36.3849 297.428C37.2634 293.1 39.4318 289.125 42.616 286.005C45.8001 282.886 49.8569 280.761 54.2734 279.9C58.69 279.039 63.2678 279.481 67.428 281.17C71.5883 282.858 75.1441 285.717 77.6459 289.386C80.1477 293.055 81.483 297.368 81.483 301.78C81.483 307.696 79.0842 313.371 74.8144 317.554C70.5447 321.738 64.7536 324.088 58.7152 324.088Z" fill="white" stroke="#263238" stroke-miterlimit="10"/>
<path d="M76.6005 247.471L65.3431 277.439L70.5418 279.41L82.0775 249.442L76.6005 247.471Z" fill="#263238" stroke="#263238" stroke-miterlimit="10"/>
<path d="M65.3433 277.439C65.3433 277.439 53.5167 272.345 43.9922 279.41C34.4677 286.474 33.3167 295.199 33.3167 295.199C33.3167 295.199 48.3181 305.932 67.9363 307.592C87.5545 309.253 107.464 306.465 117.266 303.639C123.273 301.891 129.074 299.523 134.57 296.575L110.335 270.548C110.335 270.548 106.882 265.74 98.7993 270.263C90.7167 274.787 90.4258 280.723 90.4258 280.723L65.3433 277.439Z" fill="#263238" stroke="#263238" stroke-miterlimit="10"/>
<path d="M82.0775 249.442L73.7167 279.695L97.9517 290.44C97.6913 286.984 98.4931 283.53 100.254 280.525C103.138 276.001 106.894 276.274 107.754 276.807C108.615 277.34 113.813 279.918 113.813 279.918L111.511 262.108L82.0775 249.442Z" fill="#263238" stroke="#263238" stroke-miterlimit="10"/>
<path d="M298.194 262.74C290.318 262.738 282.618 265.024 276.068 269.31C269.518 273.596 264.412 279.689 261.397 286.819C258.381 293.949 257.592 301.794 259.128 309.363C260.664 316.933 264.456 323.886 270.026 329.343C275.595 334.8 282.691 338.516 290.416 340.021C298.142 341.526 306.149 340.752 313.425 337.798C320.702 334.843 326.92 329.841 331.295 323.423C335.669 317.005 338.002 309.46 338 301.743C338 296.621 336.97 291.549 334.97 286.817C332.969 282.085 330.037 277.785 326.341 274.164C322.645 270.542 318.257 267.669 313.427 265.709C308.598 263.749 303.422 262.74 298.194 262.74ZM298.194 324.088C293.691 324.088 289.289 322.78 285.545 320.329C281.801 317.877 278.883 314.393 277.16 310.317C275.436 306.241 274.985 301.755 275.864 297.428C276.742 293.1 278.911 289.125 282.095 286.005C285.279 282.886 289.336 280.761 293.752 279.9C298.169 279.039 302.747 279.481 306.907 281.17C311.067 282.858 314.623 285.717 317.125 289.386C319.627 293.055 320.962 297.368 320.962 301.78C320.962 307.696 318.563 313.371 314.293 317.554C310.024 321.738 304.233 324.088 298.194 324.088Z" fill="#263238" stroke="#263238" stroke-miterlimit="10"/>
<path d="M298.194 285.631C294.942 285.631 291.763 286.576 289.059 288.346C286.355 290.117 284.247 292.633 283.003 295.577C281.758 298.521 281.432 301.761 282.067 304.886C282.701 308.011 284.267 310.882 286.567 313.135C288.867 315.389 291.797 316.923 294.986 317.545C298.176 318.166 301.482 317.847 304.487 316.628C307.492 315.408 310.06 313.343 311.867 310.694C313.673 308.044 314.638 304.929 314.638 301.743C314.638 297.47 312.905 293.372 309.822 290.35C306.738 287.329 302.555 285.631 298.194 285.631ZM298.194 310.976C296.33 310.978 294.507 310.439 292.956 309.426C291.404 308.413 290.194 306.972 289.479 305.285C288.764 303.598 288.576 301.741 288.938 299.949C289.3 298.157 290.197 296.511 291.514 295.218C292.831 293.926 294.51 293.045 296.339 292.688C298.167 292.331 300.062 292.513 301.785 293.211C303.508 293.91 304.98 295.093 306.016 296.612C307.052 298.13 307.605 299.916 307.605 301.743C307.605 304.189 306.614 306.536 304.85 308.267C303.085 309.998 300.691 310.973 298.194 310.976Z" fill="#263238" stroke="#263238" stroke-miterlimit="10"/>
<path d="M298.194 273.758C292.545 273.758 287.023 275.399 282.327 278.474C277.63 281.549 273.969 285.92 271.807 291.033C269.646 296.147 269.08 301.774 270.182 307.202C271.284 312.631 274.004 317.617 277.999 321.531C281.993 325.444 287.082 328.11 292.622 329.189C298.163 330.269 303.905 329.715 309.124 327.597C314.343 325.479 318.803 321.892 321.942 317.29C325.08 312.688 326.755 307.277 326.755 301.743C326.755 294.321 323.746 287.203 318.39 281.955C313.034 276.706 305.769 273.758 298.194 273.758ZM298.194 324.088C293.691 324.088 289.289 322.78 285.545 320.329C281.801 317.877 278.883 314.393 277.16 310.317C275.436 306.241 274.985 301.755 275.864 297.428C276.742 293.1 278.911 289.125 282.095 286.005C285.279 282.886 289.336 280.761 293.752 279.9C298.169 279.039 302.747 279.481 306.907 281.17C311.067 282.858 314.623 285.717 317.125 289.386C319.627 293.055 320.962 297.368 320.962 301.78C320.962 307.696 318.563 313.371 314.293 317.554C310.024 321.738 304.233 324.088 298.194 324.088Z" fill="white" stroke="#263238" stroke-miterlimit="10"/>
<path d="M261.664 265.454L293.071 274.923C293.071 274.923 309.983 262.406 329.297 266.805C329.297 266.805 322.404 247.533 278.917 244.15L261.664 265.454Z" fill="#EE2524" stroke="#263238" stroke-miterlimit="10"/>
<path d="M293.982 301.743L266.914 255.54L272.302 252.516L299.371 298.756C299.686 299.319 299.766 299.98 299.593 300.599C299.421 301.219 299.01 301.749 298.447 302.077L297.36 302.685C296.782 302.986 296.107 303.057 295.477 302.881C294.847 302.706 294.311 302.298 293.982 301.743Z" fill="#6E6E6E" stroke="#263238" stroke-miterlimit="10"/>
<path d="M233.838 181.042C233.838 181.042 259.224 192.915 266.155 197.997C273.087 203.078 287.215 214.108 289.517 217.219C291.819 220.33 298.46 230.505 296.158 233.901C293.856 237.296 292.363 239.267 290.959 240.097C289.555 240.928 282.889 242.068 279.715 245.749C276.54 249.43 249.99 290.7 249.99 290.7C249.99 290.7 240.478 305.684 239.024 305.684C237.569 305.684 220.847 311.62 199.509 310.765C178.17 309.91 152.481 304.271 147.864 303.986C143.247 303.701 138.048 301.16 136.025 300.02C134.001 298.88 128.246 295.224 119.872 286.734C111.499 278.245 106.022 275.431 106.604 264.686C106.604 264.686 40.8301 236.417 37.6426 233.306C34.4552 230.195 26.9671 215.781 30.1419 213.241C33.3167 210.7 46.5853 207.862 63.3196 209.845C80.0539 211.828 116.697 220.02 123.907 224.829C128.068 227.544 131.852 230.777 135.165 234.446L177.867 229.922L180.46 234.471C180.46 234.471 165.167 253.966 165.167 255.379C165.167 256.791 182.193 284.788 182.193 284.788C182.193 284.788 173.25 285.916 166.9 286.201C160.551 286.486 155.074 287.329 155.074 287.329C155.074 287.329 211.626 290.44 220.569 289.87C229.512 289.3 235.279 279.955 236.721 276.299C238.163 272.643 234.407 254.821 237.582 244.076C240.756 233.331 244.804 226.266 240.478 218.917C236.152 211.568 221.138 195.171 221.138 190.412C221.138 185.653 233.838 181.042 233.838 181.042Z" fill="#EE2524" stroke="#263238" stroke-miterlimit="10"/>
<path d="M233.837 181.042C233.837 181.042 217.103 190.647 217.103 192.345C217.103 194.043 231.244 220.615 233.256 226.266C235.267 231.918 229.221 268.95 227.779 272.915C226.337 276.881 217.963 285.309 217.963 285.309L182.193 284.751L175.425 286.239L166.9 286.164C166.9 286.164 157.097 281.641 155.365 281.355C153.632 281.07 122.756 273.151 118.43 275.704C114.104 278.257 115.546 281.355 117.279 281.901C119.012 282.446 182.483 293.774 183.925 293.774C185.367 293.774 217.103 298.855 228.07 294.902C239.036 290.948 249.699 275.679 252.014 270.586L254.316 265.504L244.804 257.3C244.804 257.3 245.082 249.38 246.815 245.142C248.548 240.903 254.316 228.187 252.596 223.664C250.875 219.14 226.375 194.328 226.628 190.647C226.881 186.966 233.837 181.042 233.837 181.042Z" fill="#263238" stroke="#263238" stroke-miterlimit="10"/>
<path d="M237.303 264.996C234.179 265.851 231.055 268.243 228.285 271.019C228.082 271.899 227.905 272.543 227.779 272.915C226.337 276.869 217.963 285.309 217.963 285.309L182.193 284.751L175.425 286.238L166.9 286.164C163.616 286.93 160.4 287.958 157.287 289.238C171.087 291.716 183.306 293.798 183.925 293.798C185.367 293.798 217.103 298.88 228.07 294.926C239.036 290.973 249.699 275.704 252.014 270.61L254.316 265.529C248.832 263.663 242.898 263.477 237.303 264.996Z" fill="#263238" stroke="#263238" stroke-miterlimit="10"/>
<path d="M235.861 156.156C235.861 156.156 220.847 150.789 215.37 153.045C209.893 155.301 200.95 162.377 199.787 167.186C198.623 171.995 200.95 174.25 204.694 177.646C208.438 181.042 218.545 191.775 218.545 191.775L233.837 181.042L235.861 178.489C235.861 178.489 243.071 176.518 243.362 175.106C243.562 170.815 243.076 166.52 241.92 162.377C241.526 160.924 240.765 159.592 239.706 158.504C238.646 157.417 237.324 156.609 235.861 156.156Z" fill="#EE2524" stroke="#263238" stroke-miterlimit="10"/>
<path d="M235.228 157.296C235.228 157.296 232.699 162.092 234.647 165.488C236.595 168.884 240.971 178.204 242.147 175.403C243.324 172.602 241.578 163.53 239.618 160.989C238.428 159.477 236.934 158.22 235.228 157.296Z" fill="white" stroke="#263238" stroke-miterlimit="10"/>
<path d="M209.185 182.046C213.485 186.396 218.545 191.775 218.545 191.775L233.837 181.042L235.861 178.489C237.947 177.917 239.982 177.179 241.945 176.283C236.051 173.556 222.82 167.831 219.696 170.012C216.572 172.193 211.588 178.787 209.185 182.046Z" fill="#6E6E6E" stroke="#263238" stroke-miterlimit="10"/>
<path d="M213.346 159.552C213.346 159.552 213.068 139.487 209.552 138.916C206.035 138.346 199.736 140.899 199.736 140.899C198.346 138.962 197.4 136.752 196.964 134.423C196.527 132.093 196.61 129.698 197.207 127.403C197.282 127.105 197.371 126.796 197.472 126.473C200.065 117.996 212.765 133.823 213.916 136.388C214.634 138.374 214.927 140.483 214.776 142.585L216.509 158.424C216.509 158.424 221.416 161.25 219.114 161.535C216.812 161.82 207.566 161.535 209.881 159.267C212.195 156.999 213.346 159.552 213.346 159.552Z" fill="#263238" stroke="#263238" stroke-miterlimit="10"/>
<path d="M229.992 183.744L199.534 170.111C199.787 173.048 201.811 174.994 204.695 177.547C208.489 180.943 218.545 191.676 218.545 191.676L229.992 183.744Z" fill="#263238" stroke="#263238" stroke-miterlimit="10"/>
<path d="M84.8983 196.113H4.81897V198.12H84.8983V196.113Z" fill="#263238" stroke="#263238" stroke-miterlimit="10"/>
<path d="M178.056 285.284C180.498 285.024 182.193 284.813 182.193 284.813C182.193 284.813 165.167 256.779 165.167 255.379C165.167 253.978 180.46 234.471 180.46 234.471L177.867 229.947L135.165 234.471C135.165 234.471 159.69 262.455 167.482 271.503C171.26 275.905 174.79 280.506 178.056 285.284Z" fill="#6E6E6E" stroke="#263238" stroke-miterlimit="10"/>
<path d="M289.796 232.079L294.792 233.355" stroke="#263238" stroke-miterlimit="10"/>
<path d="M255.113 223.217L285.609 231.013" stroke="#263238" stroke-miterlimit="10"/>
<path d="M273.061 225.238L253.734 209.014L265.118 212.051L285.141 228.286L273.061 225.238Z" fill="white" stroke="#263238" stroke-miterlimit="10"/>
<path d="M144.613 259.667C149.293 260.076 152.632 260.398 152.632 260.398" stroke="#263238" stroke-miterlimit="10"/>
<path d="M410.043 292.519C410.043 292.519 414.933 293.429 417.663 297.059C420.393 300.689 426.393 311.519 427.593 312.739C426.876 313.899 425.901 314.878 424.743 315.599L421.493 311.759C420.683 311.059 419.363 309.329 419.343 311.549C419.323 313.769 419.563 315.839 419.803 320.139C419.943 322.749 420.803 327.919 416.213 332.839C411.913 337.439 406.793 340.509 403.663 340.889C401.793 341.109 397.603 340.629 397.883 336.889C398.043 334.889 400.553 327.499 400.943 323.889C401.333 320.279 410.043 292.519 410.043 292.519Z" fill="#263238"/>
<path d="M410.783 293.559C410.173 292.749 408.273 289.359 407.353 287.789C406.433 286.219 402.643 277.929 397.973 265.209C391.973 248.829 381.623 236.619 378.473 230.449C374.934 223.722 371.999 216.694 369.703 209.449L356.293 217.989L338.943 217.289C338.713 219.859 339.693 223.289 341.543 227.359L341.593 227.459C341.763 227.829 341.943 228.209 342.123 228.579C345.823 236.269 352.223 245.579 359.383 255.049L359.563 255.279L359.813 255.609C366.713 264.749 374.313 274.049 380.953 282.109V281.919C388.083 290.549 393.843 297.559 395.883 301.049C401.833 311.279 400.883 321.149 400.833 326.539C400.783 329.899 403.403 330.599 406.983 327.739C409.382 325.798 411.338 323.366 412.718 320.606C414.098 317.846 414.87 314.822 414.983 311.739C415.293 298.769 414.293 298.249 410.783 293.559Z" fill="#FFBDA7"/>
<path d="M339.023 122.469C337.663 132.919 336.323 142.629 335.153 170.309C334.153 193.579 333.153 206.049 334.903 217.529C335.523 221.619 337.633 226.399 341.623 232.399C354.103 251.219 378.563 280.759 378.563 280.759C378.563 280.759 384.023 280.579 390.563 275.039C394.373 271.688 396.708 266.97 397.063 261.909C397.063 261.909 396.363 257.579 386.063 240.219C375.763 222.859 374.203 203.919 374.203 203.919L379.813 129.489C364.143 131.169 346.403 128.419 339.023 122.469Z" fill="#455A64"/>
<path d="M390.563 275.039C394.373 271.688 396.708 266.97 397.063 261.909C397.063 261.909 396.363 257.579 386.063 240.219C375.763 222.859 374.203 203.919 374.203 203.919L378.503 146.919C366.213 145.159 349.103 145.589 349.103 145.589C348.883 153.739 350.763 163.789 362.203 169.679C362.203 169.679 360.623 209.739 360.513 221.449C360.433 230.389 363.243 253.089 364.583 263.359C372.363 273.229 378.583 280.739 378.583 280.739C378.583 280.739 384.023 280.579 390.563 275.039Z" fill="#37474F"/>
<path d="M388.143 316.149C390.333 318.505 391.707 321.502 392.063 324.699C392.383 329.579 391.513 342.889 391.853 344.699C390.631 345.324 389.276 345.643 387.903 345.629L387.273 340.249C386.973 339.149 387.103 338.249 385.883 340.249C384.663 342.249 383.643 344.489 381.743 347.399C380.233 349.699 378.103 355.149 371.573 356.919C365.463 358.569 358.423 357.779 355.573 356.289C353.883 355.399 350.853 353.989 353.113 350.799C354.323 349.099 361.113 342.279 363.393 339.259C365.673 336.239 388.143 316.149 388.143 316.149Z" fill="#263238"/>
<path d="M371.653 315.629C372.233 302.899 361.513 244.409 365.333 217.119L399.533 217.459C397.516 225.363 396.158 233.421 395.473 241.549C394.753 248.969 396.773 266.049 392.893 284.379C389.893 298.619 388.563 308.379 388.473 310.299C388.383 312.219 388.133 316.429 388.203 317.519C388.613 323.819 387.573 327.379 380.453 337.199C379.073 339.099 375.733 345.259 366.453 346.259C361.893 346.759 360.073 344.609 361.953 341.589C364.933 336.759 371.073 328.359 371.653 315.629Z" fill="#FFBDA7"/>
<path d="M395.473 241.549C395.343 244.439 395.473 247.319 395.543 250.209C395.613 253.099 395.693 255.989 395.703 258.889C395.734 264.687 395.4 270.482 394.703 276.239C394.343 279.119 393.803 281.969 393.223 284.799L391.463 293.259C390.883 296.079 390.343 298.909 389.843 301.749C389.323 304.589 388.843 307.429 388.473 310.299C388.953 304.536 389.731 298.802 390.803 293.119C391.803 287.409 393.193 281.819 393.803 276.119C394.203 273.279 394.443 270.399 394.653 267.529C394.863 264.659 394.913 261.769 395.003 258.889C395.093 256.009 395.073 253.119 395.083 250.229C395.093 247.339 395.143 244.419 395.473 241.549Z" fill="#F0997A"/>
<path d="M339.023 122.469C339.023 122.469 342.973 135.949 347.383 148.149C351.213 158.749 358.383 164.649 365.863 167.029C365.863 167.029 364.013 214.939 363.433 221.609C362.853 228.279 364.723 252.409 366.323 268.279C367.923 284.149 368.433 289.579 368.433 289.579C368.433 289.579 371.763 293.109 380.973 293.149C390.183 293.189 393.053 289.219 393.053 289.219C393.053 289.219 398.643 270.759 398.693 256.329C398.693 248.069 396.913 243.989 398.333 235.779C399.753 227.569 410.523 190.919 412.203 173.599C413.883 156.279 410.833 141.129 398.683 123.599C385.973 132.459 350.803 130.769 339.023 122.469Z" fill="#455A64"/>
<path d="M393.463 126.379C400.043 135.469 409.593 154.289 403.343 181.559C401.563 189.319 399.806 196.812 398.073 204.039C394.073 220.989 390.873 234.379 390.493 239.479C390.365 242.349 390.539 245.225 391.013 248.059C392.018 254.749 392.105 261.545 391.273 268.259C390.273 276.969 388.673 286.139 387.543 292.339C387.923 292.229 388.293 292.119 388.633 291.989C389.763 285.789 391.263 276.869 392.283 268.379C393.129 261.582 393.038 254.701 392.013 247.929C391.559 245.163 391.388 242.359 391.503 239.559C391.883 234.559 395.053 221.179 399.063 204.279C400.783 197.029 402.553 189.549 404.333 181.789C410.623 154.319 401.103 135.279 394.423 125.969L393.463 126.379Z" fill="#37474F"/>
<path d="M338.773 119.569C348.813 123.753 359.54 126.045 370.413 126.329C389.713 126.539 398.873 120.509 398.873 120.509C398.972 122.688 399.612 124.808 400.733 126.679C400.733 126.679 389.653 133.329 370.473 132.759C351.293 132.189 338.553 125.629 338.553 125.629C338.818 123.62 338.892 121.591 338.773 119.569Z" fill="#37474F"/>
<path d="M357.773 60.0889C349.773 61.5289 345.953 64.0189 339.943 73.6589C333.933 83.2989 315.743 108.909 315.743 108.909C315.743 108.909 319.843 119.279 334.743 121.969C341.743 111.969 355.473 92.2889 355.473 92.2889L357.773 60.0889Z" fill="#EE2524"/>
<path opacity="0.3" d="M357.773 60.0889C349.773 61.5289 345.953 64.0189 339.943 73.6589C333.933 83.2989 315.743 108.909 315.743 108.909C315.743 108.909 319.843 119.279 334.743 121.969C341.743 111.969 355.473 92.2889 355.473 92.2889L357.773 60.0889Z" fill="black"/>
<path d="M401.393 117.149C401.393 119.219 406.653 129.619 409.533 140.839C392.273 163.089 341.173 150.949 337.433 138.429C338.233 123.549 338.923 85.9789 342.183 79.1789C345.792 71.7759 351.166 65.3744 357.833 60.5389C361.434 59.8384 365.074 59.3542 368.733 59.0889C374.175 58.5261 379.667 58.6673 385.073 59.5089C389.913 60.2489 397.863 62.3489 397.863 62.3489C400.863 64.9089 409.293 75.6989 407.343 88.6989C406.453 94.6689 401.373 102.459 401.393 117.149Z" fill="#FAFAFA"/>
<path d="M386.943 58.7488L386.873 60.5788C386.873 60.5788 379.653 78.9388 379.413 93.8288C379.173 108.719 383.983 166.919 383.983 166.919C383.983 166.919 396.183 165.349 402.983 162.179L403.453 148.099L406.613 160.849C406.613 160.849 410.723 159.559 412.833 156.509C412.833 150.999 411.423 139.509 406.613 127.319C401.803 115.129 401.613 112.899 404.973 100.819C408.333 88.7388 411.073 83.1188 407.083 74.4388C403.093 65.7588 398.423 61.8488 398.423 61.8488L386.943 58.7488Z" fill="#EE2524"/>
<path d="M366.583 58.7488L366.523 60.8988C362.019 65.6239 357.823 70.6343 353.963 75.8988C348.013 84.0888 348.133 87.3688 345.713 100.109C343.293 112.849 342.393 155.349 342.393 155.349C339.932 154.684 337.514 153.869 335.153 152.909C335.153 152.909 336.663 127.909 337.213 119.309C337.763 110.709 338.553 91.0688 339.823 85.4288C341.093 79.7888 340.733 78.5088 345.593 71.8888C349.082 67.4149 353.182 63.4529 357.773 60.1188L366.583 58.7488Z" fill="#EE2524"/>
<path d="M357.443 130.549C356.963 129.149 352.793 126.549 351.883 123.699C351.353 122.029 352.453 119.609 354.233 121.269C357.963 124.759 360.693 125.269 363.143 126.969" fill="#FFBDA7"/>
<path d="M263.293 104.369C262.373 107.509 264.883 114.049 268.973 115.259C267.519 117.113 266.433 119.227 265.773 121.489C264.433 126.039 267.493 131.889 273.773 133.739L321.853 147.849L328.743 149.969L344.743 95.4486L337.813 93.4486C337.813 93.4486 330.343 70.0886 330.013 66.5786C329.683 63.0686 335.013 49.5786 335.743 47.0986C336.473 44.6186 324.823 40.0986 318.373 48.0986C311.923 56.0986 309.373 63.5486 309.093 72.6786L280.033 64.1286C273.893 62.3286 269.723 67.2486 268.703 70.6986C268.186 72.3951 268.118 74.1969 268.507 75.9273C268.897 77.6576 269.729 79.2571 270.923 80.5686C269.027 80.5687 267.186 81.2055 265.696 82.3769C264.205 83.5484 263.151 85.1865 262.703 87.0286C262.122 89.0819 262.248 91.2706 263.061 93.2436C263.873 95.2166 265.325 96.8595 267.183 97.9086C267.183 97.9086 264.683 99.6586 263.293 104.369Z" fill="#FAFAFA"/>
<path d="M335.773 47.1687C336.513 44.6487 324.853 40.1687 318.403 48.1687C311.953 56.1687 309.403 63.6187 309.123 72.7487L309.483 73.2487L314.653 74.7087C319.033 46.6187 330.233 45.6887 335.773 47.1687Z" fill="#E0E0E0"/>
<path d="M326.591 157.249L347.543 163.412L366.15 100.151L345.197 93.9885L326.591 157.249Z" fill="#EE2524"/>
<path opacity="0.2" d="M326.591 157.249L347.543 163.412L366.15 100.151L345.197 93.9885L326.591 157.249Z" fill="black"/>
<path d="M267.213 98.0087C267.213 98.0087 264.683 99.6587 263.303 104.369C263.229 104.617 263.179 104.871 263.153 105.129C262.753 108.449 265.153 114.129 268.973 115.259C267.522 117.114 266.436 119.228 265.773 121.489C265.642 121.947 265.551 122.415 265.503 122.889C265.073 127.169 268.123 132.079 273.773 133.739L283.433 136.579C277.773 134.919 274.733 130.009 275.153 125.729C275.202 125.252 275.293 124.78 275.423 124.319C276.085 122.061 277.171 119.95 278.623 118.099C274.843 116.979 272.403 111.289 272.803 107.959C272.83 107.705 272.88 107.454 272.953 107.209C274.333 102.499 276.873 100.849 276.873 100.849C275.014 99.7998 273.562 98.1575 272.748 96.1847C271.933 94.212 271.805 92.0231 272.383 89.9687L272.443 89.8187C272.912 88.0119 273.968 86.412 275.445 85.27C276.922 84.128 278.736 83.5085 280.603 83.5087C279.412 82.1956 278.581 80.5962 278.192 78.8664C277.803 77.1366 277.869 75.3355 278.383 73.6387C278.443 73.4387 278.513 73.2387 278.593 73.0187C279.903 69.6387 283.943 65.3787 289.713 67.0687L280.063 64.2387C274.283 62.5387 270.243 66.7987 268.943 70.1787C268.863 70.3987 268.793 70.5987 268.733 70.7987C268.216 72.4952 268.148 74.297 268.538 76.0274C268.927 77.7577 269.759 79.3572 270.953 80.6688C269.085 80.6698 267.271 81.2895 265.792 82.4311C264.314 83.5728 263.256 85.1719 262.783 86.9787L262.733 87.1287C262.152 89.182 262.278 91.3707 263.091 93.3437C263.903 95.3167 265.355 96.9596 267.213 98.0087Z" fill="#E0E0E0"/>
<path d="M321.743 148.249L273.673 134.099C270.743 133.289 268.219 131.417 266.593 128.849C265.889 127.757 265.42 126.531 265.217 125.248C265.013 123.965 265.08 122.654 265.413 121.399C266.042 119.263 267.037 117.254 268.353 115.459C266.341 114.477 264.761 112.79 263.913 110.719C262.87 108.744 262.518 106.477 262.913 104.279C263.511 101.914 264.762 99.7658 266.523 98.0787C264.755 96.9211 263.399 95.233 262.649 93.2567C261.9 91.2805 261.796 89.1176 262.353 87.0787C262.794 85.2909 263.781 83.6849 265.178 82.4842C266.574 81.2834 268.309 80.5475 270.143 80.3787C269.089 79.0375 268.376 77.4609 268.064 75.7838C267.752 74.1067 267.851 72.3791 268.353 70.7487C269.047 68.5696 270.403 66.6611 272.233 65.2887C273.345 64.4427 274.644 63.8765 276.021 63.6381C277.397 63.3996 278.811 63.4959 280.143 63.9187L308.743 72.3287C309.133 62.9287 311.943 55.6287 318.083 48.0087C322.663 42.3187 330.203 42.6287 334.083 44.6587C335.633 45.4687 336.373 46.4387 336.083 47.3187C335.903 47.9387 335.453 49.1887 334.893 50.7687C333.223 55.4187 330.123 64.0787 330.373 66.6587C330.683 69.9187 337.373 91.0087 338.093 93.2587L345.193 95.2587L328.993 150.469L321.743 148.249ZM337.543 93.8487L337.483 93.6587C337.173 92.6587 329.993 70.2187 329.663 66.6587C329.403 63.9087 332.423 55.4787 334.223 50.4487C334.793 48.8687 335.223 47.6287 335.413 47.0387C335.603 46.4487 334.883 45.8487 333.753 45.2587C330.093 43.3487 323.013 43.0687 318.693 48.4187C312.553 56.0287 309.803 63.3187 309.503 72.7687V73.2587L279.973 64.5787C278.753 64.1918 277.457 64.1034 276.196 64.3209C274.934 64.5384 273.743 65.0555 272.723 65.8287C271.028 67.1038 269.767 68.8708 269.113 70.8887C268.615 72.5234 268.55 74.2595 268.926 75.9267C269.301 77.5938 270.103 79.1349 271.253 80.3987L271.873 81.0687H270.953C269.138 81.058 267.373 81.6649 265.948 82.7897C264.523 83.9146 263.524 85.4905 263.113 87.2587C262.564 89.2292 262.689 91.3266 263.468 93.218C264.247 95.1093 265.636 96.6863 267.413 97.6987L267.973 97.9987L267.443 98.3487C267.443 98.3487 265.003 99.9987 263.683 104.499C263.334 106.515 263.665 108.59 264.623 110.399C265.723 112.759 267.363 114.399 269.103 114.909L269.653 115.079L269.283 115.519C267.873 117.338 266.812 119.403 266.153 121.609C265.853 122.763 265.797 123.968 265.989 125.145C266.18 126.323 266.614 127.448 267.263 128.449C268.783 130.867 271.151 132.632 273.903 133.399L321.983 147.539L328.503 149.539L344.293 95.7487L337.543 93.8487Z" fill="#455A64"/>
<path opacity="0.2" d="M326.596 157.247L347.548 163.409L356.851 131.779L335.899 125.616L326.596 157.247Z" fill="black"/>
<path d="M342.523 153.049C342.699 152.449 342.693 151.811 342.507 151.215C342.32 150.619 341.961 150.092 341.475 149.7C340.989 149.307 340.397 149.068 339.775 149.012C339.153 148.956 338.528 149.085 337.98 149.384C337.431 149.683 336.983 150.137 336.693 150.69C336.403 151.243 336.283 151.87 336.348 152.491C336.414 153.112 336.662 153.7 337.062 154.18C337.461 154.66 337.994 155.011 338.593 155.189C339.398 155.425 340.263 155.332 341 154.931C341.737 154.53 342.284 153.853 342.523 153.049Z" fill="#F0F0F0"/>
<path d="M363.143 126.969C365.603 128.699 368.143 129.299 372.993 129.519C378.173 129.749 398.683 121.329 398.683 121.329L394.903 94.0388C394.903 94.0388 390.563 73.4188 398.533 62.4988C411.223 65.1988 412.223 68.9388 413.803 74.2188C415.013 78.2188 416.413 83.5288 418.243 101.219C419.893 117.039 420.063 121.219 419.893 129.169C419.733 136.069 414.233 138.279 404.683 140.499C395.133 142.719 388.993 143.499 375.423 145.499C368.903 146.499 365.203 146.019 359.543 145.889C357.398 145.914 355.262 145.603 353.213 144.969C351.336 144.412 349.62 143.41 348.213 142.049C347.987 141.771 347.721 141.528 347.423 141.329C347.099 141.164 346.765 141.02 346.423 140.899C345.775 140.701 345.159 140.411 344.593 140.039C344.064 139.555 343.582 139.023 343.153 138.449C342.956 138.189 342.742 137.941 342.513 137.709C342.252 137.483 341.971 137.282 341.673 137.109C340.869 136.716 340.141 136.185 339.523 135.539C339.373 135.356 339.273 135.137 339.233 134.904C339.192 134.671 339.213 134.431 339.293 134.209C339.293 134.209 338.223 133.779 337.863 133.609C337.367 133.373 336.898 133.084 336.463 132.749C336.367 132.696 336.284 132.621 336.222 132.531C336.159 132.441 336.119 132.337 336.103 132.229C336.103 132.099 336.145 131.973 336.223 131.869C337.223 130.109 339.323 130.119 341.113 130.279C345.763 130.689 348.603 131.919 353.303 131.819C355.863 131.759 356.553 131.699 357.253 131.209C357.361 131.142 357.441 131.038 357.478 130.917C357.515 130.795 357.506 130.664 357.453 130.549" fill="#FFBDA7"/>
<path d="M398.683 121.329C401.968 119.691 405.412 118.398 408.963 117.469C408.963 117.469 405.723 116.199 398.423 119.469L398.683 121.329Z" fill="#F0997A"/>
<path d="M339.453 134.399C340.513 134.879 341.623 135.259 342.723 135.639C343.823 136.019 344.943 136.349 346.043 136.709C346.593 136.889 347.143 137.089 347.713 137.249C348.283 137.409 348.853 137.539 349.423 137.639C350.567 137.872 351.721 138.045 352.883 138.159L351.193 137.739C350.623 137.609 350.063 137.469 349.503 137.319C348.943 137.169 348.373 137.029 347.823 136.849C347.273 136.669 346.733 136.479 346.173 136.299C345.063 135.939 343.943 135.619 342.823 135.299L339.453 134.399Z" fill="#F0997A"/>
<path d="M342.393 137.609C343.135 138.138 343.925 138.597 344.753 138.979C345.573 139.349 346.413 139.669 347.253 139.979C348.093 140.289 348.963 140.549 349.823 140.789C350.686 141.038 351.564 141.228 352.453 141.359C351.603 141.079 350.773 140.759 349.923 140.469L347.403 139.569L344.883 138.659C344.053 138.349 343.203 137.989 342.393 137.609Z" fill="#F0997A"/>
<path d="M398.423 61.8489C407.133 64.0889 411.013 65.6089 412.833 69.9089C414.653 74.2089 415.543 76.9089 417.513 88.5189C419.416 101.261 420.522 114.109 420.823 126.989C420.733 133.339 421.443 135.989 414.373 138.619C407.303 141.249 391.293 143.539 391.293 143.539C391.655 140.622 391.564 137.668 391.023 134.779C390.263 131.456 388.962 128.28 387.173 125.379L397.913 121.089C397.913 121.089 394.153 96.7489 393.623 92.4589C393.093 88.1689 391.603 70.9689 398.423 61.8489Z" fill="#EE2524"/>
<path opacity="0.3" d="M398.423 61.8489C407.133 64.0889 411.013 65.6089 412.833 69.9089C414.653 74.2089 415.543 76.9089 417.513 88.5189C419.416 101.261 420.522 114.109 420.823 126.989C420.733 133.339 421.443 135.989 414.373 138.619C407.303 141.249 391.293 143.539 391.293 143.539C391.655 140.622 391.564 137.668 391.023 134.779C390.263 131.456 388.962 128.28 387.173 125.379L397.913 121.089C397.913 121.089 394.153 96.7489 393.623 92.4589C393.093 88.1689 391.603 70.9689 398.423 61.8489Z" fill="black"/>
<path d="M353.703 33.8488L352.113 33.3588C344.983 29.5288 345.343 20.2388 347.113 15.3588C350.983 4.54883 362.673 0.498825 369.903 0.0988254C383.623 -0.651175 390.323 2.88883 391.733 9.99883C393.593 9.83883 396.153 11.3388 397.733 13.4388C401.103 18.0288 405.123 34.0288 387.333 50.9088L353.703 33.8488Z" fill="#37474F"/>
<path d="M390.563 45.5989C393.043 45.9589 394.963 44.6589 396.393 42.9589C399.573 39.1689 399.733 35.4389 398.093 33.0189C396.733 31.0189 393.543 29.8589 391.403 31.3189C389.113 32.8889 389.083 34.0889 388.263 35.7889C387.443 37.4889 383.993 37.4789 382.913 30.7889C381.913 24.5489 382.183 18.0089 379.013 15.2989C374.263 11.2989 368.333 12.6489 366.613 15.2189C365.711 13.8575 364.309 12.9063 362.71 12.5713C361.112 12.2363 359.446 12.5444 358.073 13.4289C355.073 15.1989 352.813 19.9889 352.203 31.9189C351.573 44.0789 354.713 51.5189 357.573 53.4489C359.743 54.9189 362.133 55.5189 366.683 55.5489L366.523 60.8889C366.523 60.8889 360.363 72.5289 360.783 82.8889C360.783 82.8889 363.293 81.1589 374.593 71.2789L386.873 60.5489L387.513 43.7789C387.841 44.3021 388.288 44.7399 388.819 45.0563C389.349 45.3727 389.947 45.5587 390.563 45.5989Z" fill="#FFBDA7"/>
<path d="M355.373 26.0688L359.843 24.3588C359.746 24.0639 359.59 23.7917 359.384 23.5587C359.179 23.3257 358.929 23.1367 358.648 23.0031C358.368 22.8695 358.064 22.794 357.753 22.7812C357.443 22.7685 357.133 22.8187 356.843 22.9288C356.241 23.1627 355.753 23.6194 355.479 24.2042C355.205 24.789 355.167 25.4568 355.373 26.0688Z" fill="#263238"/>
<path d="M371.963 24.3288L376.393 26.9088C376.574 26.6283 376.697 26.3139 376.753 25.9845C376.809 25.6552 376.797 25.3179 376.719 24.9932C376.64 24.6685 376.496 24.3633 376.296 24.096C376.095 23.8288 375.843 23.6051 375.553 23.4388C374.954 23.0999 374.248 23.0034 373.581 23.1689C372.913 23.3344 372.334 23.7495 371.963 24.3288Z" fill="#263238"/>
<path d="M377.913 16.1189C378.983 17.4789 379.773 18.8489 379.603 23.7289C379.543 25.7289 379.693 30.5089 381.053 33.3389C382.243 35.8189 383.483 37.3389 386.123 37.7489C387.725 37.9876 389.361 37.8226 390.883 37.2689C391.813 36.8389 394.443 34.9889 394.123 32.2689C393.582 32.8522 392.924 33.3155 392.193 33.6289C391.638 33.8587 391.051 34.0004 390.453 34.0489C389.555 34.0455 388.673 33.8155 387.888 33.3802C387.103 32.9449 386.441 32.3184 385.963 31.5589C384.193 28.9289 384.303 25.3889 383.763 22.3689C383.073 18.5489 382.413 14.1989 378.953 12.2989C374.873 10.0589 367.493 11.0589 366.613 15.2289C368.239 13.8697 370.332 13.2017 372.445 13.3681C374.557 13.5344 376.52 14.522 377.913 16.1189Z" fill="#37474F"/>
<path d="M371.773 42.2087L365.093 44.0587C365.224 44.5242 365.45 44.9572 365.758 45.3303C366.065 45.7034 366.447 46.0083 366.879 46.2256C367.311 46.4429 367.783 46.5679 368.266 46.5926C368.749 46.6172 369.231 46.541 369.683 46.3687C370.096 46.2365 370.478 46.0232 370.808 45.7415C371.137 45.4597 371.407 45.115 371.602 44.7276C371.796 44.3403 371.912 43.918 371.941 43.4855C371.97 43.0529 371.913 42.6189 371.773 42.2087Z" fill="#B16668"/>
<path d="M367.773 46.4888C367.908 45.5969 368.37 44.787 369.068 44.2161C369.766 43.6452 370.652 43.3539 371.553 43.3988C371.667 43.4131 371.781 43.4331 371.893 43.4588C371.883 44.1162 371.664 44.7533 371.266 45.2769C370.868 45.8005 370.314 46.1832 369.683 46.3688C369.065 46.5628 368.41 46.6039 367.773 46.4888Z" fill="#F0997A"/>
<path d="M366.603 27.6289L365.203 39.5289L358.743 37.0189L366.603 27.6289Z" fill="#F0997A"/>
<path d="M366.683 55.5588C371.087 55.2642 375.419 54.2858 379.523 52.6588C381.013 51.9988 383.003 49.2587 384.613 46.2188C384.613 46.2188 383.523 52.2187 380.313 54.2787C375.423 57.4587 366.613 58.2088 366.613 58.2088L366.683 55.5588Z" fill="#F0997A"/>
<path d="M356.493 29.6288C356.143 30.6288 356.813 30.9288 357.753 31.2688C358.693 31.6088 359.533 31.8088 359.883 30.8388C359.967 30.6152 360.006 30.377 359.997 30.1382C359.988 29.8994 359.932 29.6647 359.831 29.4479C359.731 29.2311 359.588 29.0364 359.412 28.8753C359.235 28.7142 359.028 28.5899 358.803 28.5095C358.578 28.4292 358.34 28.3945 358.101 28.4074C357.862 28.4204 357.629 28.4807 357.414 28.5849C357.198 28.689 357.006 28.835 356.848 29.0142C356.69 29.1935 356.569 29.4024 356.493 29.6288Z" fill="#263238"/>
<path d="M359.703 28.8489C359.286 28.612 358.833 28.4433 358.363 28.3489C357.906 28.2345 357.431 28.2041 356.963 28.2589C356.467 28.3079 355.983 28.4433 355.533 28.6589C355.533 28.6589 355.473 28.7789 355.533 28.7689C355.923 28.7689 356.253 28.6789 356.813 28.6589C357.34 28.6642 357.864 28.7347 358.373 28.8689C358.992 29.0117 359.588 29.2406 360.143 29.5489C360.323 29.6389 360.673 29.8389 360.713 29.8689C360.753 29.8989 360.813 29.7689 360.783 29.7289C360.497 29.3549 360.127 29.0534 359.703 28.8489Z" fill="#263238"/>
<path d="M374.663 30.2889C374.883 31.2889 374.163 31.5289 373.193 31.7289C372.223 31.9289 371.353 32.0389 371.133 31.0189C371.085 30.7871 371.083 30.5482 371.128 30.3157C371.172 30.0832 371.262 29.8617 371.392 29.664C371.522 29.4662 371.689 29.2959 371.885 29.1629C372.081 29.03 372.301 28.9368 372.533 28.8889C372.765 28.841 373.004 28.8392 373.236 28.8836C373.469 28.928 373.69 29.0178 373.888 29.1478C374.086 29.2778 374.256 29.4455 374.389 29.6413C374.522 29.8371 374.615 30.0571 374.663 30.2889Z" fill="#263238"/>
<path d="M371.583 29.0689C372.031 28.8931 372.503 28.7852 372.983 28.7489C373.452 28.7017 373.925 28.7356 374.383 28.8489C374.865 28.9722 375.324 29.1714 375.743 29.4389C375.743 29.4389 375.793 29.5689 375.743 29.5589C375.373 29.4689 375.043 29.3589 374.493 29.2689C373.972 29.2039 373.444 29.2039 372.923 29.2689C372.292 29.3227 371.672 29.4675 371.083 29.6989L370.473 29.9389C370.413 29.9389 370.383 29.8289 370.413 29.7889C370.746 29.4665 371.145 29.2208 371.583 29.0689Z" fill="#263238"/>
<path d="M294.933 142.559C292.133 142.559 291.983 142.239 291.563 140.849C291.204 139.769 291.108 138.618 291.281 137.493C291.455 136.368 291.895 135.301 292.563 134.379C293.783 132.799 294.933 131.149 295.973 130.629C297.013 130.109 298.243 132.089 297.183 134.539C295.523 138.399 296.443 139.029 296.443 139.029C297.143 137.378 297.93 135.766 298.803 134.199C299.623 132.919 301.803 131.109 303.073 129.869C304.343 128.629 306.313 129.659 305.213 132.489L307.483 130.219C309.073 128.629 310.483 128.719 310.563 130.929C310.613 131.664 310.412 132.393 309.993 132.999C309.993 132.999 311.383 131.089 312.043 131.509C313.953 132.719 313.573 134.249 311.883 138.929C310.453 142.929 311.003 144.929 312.583 145.549L313.583 145.849C313.583 145.849 311.643 146.709 309.763 147.369C308.393 147.849 307.043 148.119 305.853 146.589C305.853 146.589 304.363 148.729 302.973 147.909C301.992 147.244 301.163 146.379 300.543 145.369C300.057 145.594 299.516 145.676 298.985 145.605C298.453 145.535 297.953 145.314 297.543 144.969C296.713 144.373 296.104 143.518 295.813 142.539L294.933 142.559Z" fill="#FFBDA7"/>
<path d="M305.223 132.489C304.505 133.134 303.855 133.851 303.283 134.629C302.829 135.501 302.516 136.439 302.353 137.409C301.94 139.264 301.682 141.151 301.583 143.049C302.269 141.278 302.801 139.451 303.173 137.589C303.318 136.686 303.545 135.799 303.853 134.939C304.293 134.159 304.813 133.349 305.223 132.489Z" fill="#F0997A"/>
<path d="M310.003 132.999C309.171 133.651 308.515 134.5 308.093 135.469C307.667 136.418 307.332 137.406 307.093 138.419C306.598 140.413 306.316 142.455 306.253 144.509C306.906 142.576 307.457 140.61 307.903 138.619C308.245 136.63 308.957 134.724 310.003 132.999Z" fill="#F0997A"/>
</svg>
