<svg width="380" height="344" viewBox="0 0 380 344" fill="none" xmlns="http://www.w3.org/2000/svg">
<path d="M177.826 0.943469C283.75 -8.08263 283.955 49.2988 331.698 102.791C379.441 156.283 389.675 180.53 371.668 242.211C353.66 303.892 293.027 352.223 217.975 324.833C142.922 297.443 99.9711 323.75 52.6468 299.396C5.32244 275.042 -12.2235 228.122 22.4156 172.718C57.0546 117.315 47.1883 12.1194 177.826 0.943469Z" fill="#FDE4E4"/>
<path opacity="0.7" d="M177.826 0.943469C283.75 -8.08263 283.955 49.2988 331.698 102.791C379.441 156.283 389.675 180.53 371.668 242.211C353.66 303.892 293.027 352.223 217.975 324.833C142.922 297.443 99.9711 323.75 52.6468 299.396C5.32243 275.042 -12.2235 228.122 22.4156 172.718C57.0546 117.315 47.1883 12.1194 177.826 0.943469Z" fill="#FDE4E4"/>
<path opacity="0.2" d="M110.769 217.529C110.769 217.529 93.4875 238.133 92.283 239.43C91.0785 240.726 91.4288 261.585 88.4731 270.98C85.5175 280.375 75.318 290.025 52.5186 337.584L49.4434 244.927L66.2461 180.391L110.769 217.529Z" fill="black" fill-opacity="0.7"/>
<path d="M123.454 216.634C123.454 216.634 112.041 166.285 103.021 160.016C97.7928 156.389 89.9083 155.093 83.0232 155.725C78.043 156.176 73.5754 157.645 71.064 159.983C65.016 165.555 56.2602 168.812 52.0061 172.431C47.752 176.05 48.4867 188.022 46.24 198.262C43.9934 208.503 39.8675 209.077 39.5343 219.227C39.2012 229.378 37.2706 260.526 30.8724 269.495C24.4743 278.463 24.722 285.2 22.3899 294.111C20.0579 303.022 1.03418 335.763 1.03418 335.763L52.7578 343C52.7578 343 56.525 322.683 60.9328 306.075C63.0171 298.189 65.204 291.124 67.2114 287.448C71.0279 280.353 74.2582 272.981 76.8727 265.4C82.3056 259.254 84.6719 246.174 84.9367 234.834L98.1687 226.719C108.513 223.355 123.454 216.634 123.454 216.634Z" fill="white"/>
<path opacity="0.4" d="M123.454 216.634C123.454 216.634 112.041 166.285 103.021 160.016C97.7929 156.389 89.9083 155.093 83.0232 155.725C66.9125 160.59 63.0513 169.592 60.967 171.832C58.1908 174.827 55.3718 192.256 58.1139 202.193C60.856 212.13 59.5575 215.879 58.1139 220.868C54.8849 231.93 67.1175 237.091 68.5953 241.12C70.0731 245.149 71.0384 268.116 66.1778 275.878C63.6151 279.981 57.533 300.889 60.9414 306.116C63.0257 298.23 65.2125 291.165 67.22 287.489C71.0364 280.394 74.2668 273.022 76.8813 265.441C82.3142 259.295 84.6804 246.215 84.9453 234.875L98.1773 226.76C108.513 223.355 123.454 216.634 123.454 216.634Z" fill="#EE2524"/>
<path d="M61.2147 223.782C61.2147 223.782 58.1309 220.688 55.5853 220.828" stroke="#263238" stroke-linecap="round" stroke-linejoin="round"/>
<path d="M66.8184 212.417C66.8184 212.417 63.3246 206.263 58.2761 205.163" stroke="#263238" stroke-linecap="round" stroke-linejoin="round"/>
<path d="M59.0876 175.607C59.0876 175.607 66.2717 178.118 67.6897 182.992" stroke="#263238" stroke-linecap="round" stroke-linejoin="round"/>
<path d="M98.1687 226.711C98.1687 226.711 96.2809 224.668 96.1783 222.986" stroke="#263238" stroke-linecap="round" stroke-linejoin="round"/>
<path d="M52.7578 343C52.7578 343 61.0268 298.911 67.2114 287.489C71.0278 280.394 74.2582 273.022 76.8727 265.441C82.3056 259.295 84.6718 246.207 84.9367 234.867L98.1687 226.752C108.513 223.396 123.454 216.708 123.454 216.708C123.454 216.708 112.041 166.359 103.021 160.09C94 153.821 77.0948 154.494 71.0298 160.09C64.9648 165.686 56.226 168.87 51.9719 172.489C47.7178 176.107 48.4525 188.079 46.2059 198.32C43.9592 208.56 39.8333 209.135 39.5002 219.285C39.167 229.435 37.2364 260.583 30.8383 269.552C24.4401 278.521 24.6878 285.257 22.3558 294.169C20.0237 303.08 1 335.82 1 335.82" stroke="#263238" stroke-linecap="round" stroke-linejoin="round"/>
<path d="M43.4566 62.3832L41.9236 49.172C41.8985 48.9557 41.9639 48.7387 42.1054 48.5687C42.2469 48.3988 42.4528 48.2897 42.678 48.2656L48.4935 47.643L50.2147 62.477L44.3993 63.0997C44.1756 63.1236 43.9511 63.0618 43.7746 62.9276C43.598 62.7935 43.4838 62.5978 43.4566 62.3832Z" fill="#EE2524" stroke="#263238" stroke-linecap="round" stroke-linejoin="round"/>
<path d="M69.8667 27.3173L83.62 25.8448C83.8452 25.8207 84.0711 25.8835 84.2481 26.0194C84.425 26.1552 84.5385 26.3531 84.5636 26.5694L85.2118 32.1556L69.7605 33.8099L69.1114 28.2156C69.0887 28.0004 69.1553 27.7854 69.2967 27.6172C69.4381 27.449 69.643 27.3412 69.8667 27.3173Z" fill="#EE2524" stroke="#263238" stroke-linecap="round" stroke-linejoin="round"/>
<path d="M88.237 25.3751L101.99 23.9026C102.215 23.8785 102.441 23.9413 102.618 24.0771C102.795 24.213 102.909 24.4109 102.934 24.6272L103.582 30.2134L88.1393 31.8668L87.4911 26.2806C87.466 26.0643 87.5314 25.8473 87.6729 25.6773C87.8143 25.5073 88.0203 25.3983 88.2455 25.3742L88.237 25.3751Z" fill="#EE2524" stroke="#263238" stroke-linecap="round" stroke-linejoin="round"/>
<path d="M63.8628 224.783L43.4552 48.7817C42.9343 44.2951 44.2877 39.7933 47.2185 36.2642C50.1493 32.7351 54.4179 30.4672 59.0877 29.9582L325.607 1.43568C327.927 1.18234 330.276 1.37108 332.52 1.99108C334.764 2.61109 336.858 3.65018 338.683 5.04885C340.508 6.44752 342.028 8.17829 343.156 10.142C344.283 12.1058 344.997 14.2639 345.255 16.4929L365.662 192.494C366.183 196.988 364.824 201.496 361.884 205.028C358.945 208.559 354.665 210.824 349.987 211.325L83.4674 239.84C81.1507 240.088 78.8058 239.896 76.5665 239.274C74.3273 238.652 72.2376 237.612 70.417 236.213C68.5963 234.815 67.0804 233.086 65.9558 231.124C64.8312 229.163 64.12 227.008 63.8628 224.783Z" fill="#EE2524" stroke="#263238" stroke-linecap="round" stroke-linejoin="round"/>
<path d="M349.987 209.094L82.9549 237.665C78.9531 238.092 74.9388 236.974 71.7944 234.558C68.65 232.143 66.6329 228.626 66.1864 224.783L45.6848 48.2977C45.2386 44.4523 46.4009 40.5941 48.916 37.5718C51.4311 34.5496 55.0931 32.6108 59.0963 32.182L326.163 3.61846C330.164 3.18984 334.178 4.30544 337.323 6.71986C340.467 9.13428 342.485 12.6497 342.931 16.493L363.433 192.978C363.652 194.884 363.479 196.813 362.922 198.655C362.365 200.497 361.435 202.216 360.187 203.712C358.938 205.209 357.395 206.454 355.644 207.378C353.894 208.301 351.972 208.884 349.987 209.094Z" fill="#757575" stroke="#263238" stroke-linecap="round" stroke-linejoin="round"/>
<path d="M60.3519 136.064C60.3762 136.195 60.3723 136.33 60.3404 136.46C60.3084 136.59 60.2492 136.712 60.1662 136.819C60.0833 136.926 59.9784 137.015 59.8581 137.082C59.7378 137.148 59.6046 137.19 59.4666 137.205C59.3287 137.221 59.189 137.208 59.0562 137.17C58.9233 137.131 58.8001 137.067 58.6942 136.98C58.5883 136.894 58.5018 136.788 58.4402 136.669C58.3786 136.549 58.3431 136.419 58.3359 136.286C58.3116 136.154 58.3155 136.02 58.3475 135.89C58.3794 135.76 58.4387 135.638 58.5216 135.531C58.6045 135.424 58.7094 135.335 58.8297 135.268C58.95 135.202 59.0833 135.16 59.2212 135.145C59.3591 135.129 59.4988 135.141 59.6316 135.18C59.7645 135.219 59.8877 135.283 59.9936 135.369C60.0995 135.456 60.186 135.562 60.2476 135.681C60.3092 135.801 60.3447 135.931 60.3519 136.064Z" fill="#999999" stroke="#263238" stroke-linecap="round" stroke-linejoin="round"/>
<path d="M62.2996 144.787C62.3428 145.153 62.272 145.523 62.0962 145.85C61.9203 146.178 61.6473 146.448 61.3117 146.626C60.9761 146.805 60.593 146.883 60.2107 146.853C59.8285 146.822 59.4644 146.683 59.1644 146.453C58.8644 146.224 58.6421 145.914 58.5255 145.563C58.4089 145.212 58.4033 144.835 58.5094 144.481C58.6154 144.127 58.8285 143.811 59.1215 143.574C59.4145 143.336 59.7743 143.187 60.1555 143.146C60.6663 143.09 61.1791 143.232 61.5812 143.54C61.9833 143.847 62.2417 144.296 62.2996 144.787Z" fill="#263238"/>
<path d="M59.7967 123.231C59.8399 123.597 59.7691 123.967 59.5932 124.294C59.4174 124.622 59.1444 124.892 58.8088 125.07C58.4732 125.249 58.09 125.327 57.7078 125.297C57.3256 125.266 56.9615 125.127 56.6615 124.897C56.3615 124.668 56.1392 124.358 56.0226 124.007C55.906 123.656 55.9003 123.279 56.0064 122.925C56.1125 122.571 56.3255 122.255 56.6185 122.018C56.9116 121.78 57.2714 121.631 57.6525 121.59C58.163 121.536 58.6746 121.679 59.0761 121.986C59.4776 122.294 59.7366 122.741 59.7967 123.231Z" fill="#263238"/>
<path d="M62.5046 150.99C62.5454 151.348 62.4364 151.707 62.2017 151.988C61.9671 152.269 61.6258 152.448 61.2532 152.488C60.8805 152.527 60.5068 152.422 60.2145 152.197C59.9221 151.971 59.735 151.643 59.6942 151.285C59.674 151.108 59.6903 150.929 59.7423 150.758C59.7943 150.586 59.8808 150.427 59.997 150.288C60.2317 150.007 60.5729 149.827 60.9456 149.788C61.3183 149.749 61.6919 149.853 61.9843 150.079C62.2767 150.304 62.4638 150.632 62.5046 150.99Z" fill="#263238"/>
<path d="M76.1723 225.661L55.4913 47.7397C55.273 45.8422 55.8476 43.9391 57.0889 42.4483C58.3301 40.9575 60.1366 40.0009 62.1116 39.7885L330.656 11.0691C332.632 10.8593 334.614 11.4109 336.168 12.6031C337.721 13.7953 338.719 15.5306 338.942 17.4284L359.572 195.374C359.681 196.314 359.596 197.265 359.323 198.173C359.049 199.081 358.592 199.929 357.977 200.667C357.362 201.406 356.602 202.021 355.739 202.477C354.877 202.933 353.93 203.221 352.951 203.325L84.407 232.045C82.4338 232.247 80.4576 231.688 78.9133 230.491C77.369 229.293 76.3831 227.556 76.1723 225.661Z" fill="white"/>
<path opacity="0.3" d="M331.109 11.0116L61.6503 39.8376C60.7303 39.9346 59.8393 40.2051 59.0284 40.6336C58.2174 41.0621 57.5026 41.6402 56.9248 42.3347C56.347 43.0292 55.9177 43.8265 55.6614 44.6808C55.4052 45.5351 55.3271 46.4295 55.4315 47.3129L76.1722 226.112C76.2732 226.996 76.5548 227.851 77.0008 228.63C77.4469 229.409 78.0488 230.096 78.7718 230.651C79.4948 231.206 80.3248 231.618 81.2141 231.865C82.1035 232.111 83.0347 232.186 83.9543 232.085L353.396 203.259C354.315 203.161 355.206 202.89 356.017 202.462C356.828 202.033 357.543 201.455 358.121 200.761C358.699 200.067 359.13 199.27 359.387 198.416C359.645 197.562 359.725 196.668 359.623 195.784L338.891 16.9852C338.683 15.2021 337.746 13.5714 336.287 12.4513C334.828 11.3312 332.965 10.8133 331.109 11.0116Z" fill="#EE2524"/>
<path d="M159.271 53.6724C158.962 53.2378 158.555 52.9286 158.048 52.7447C157.554 52.546 156.988 52.4828 156.352 52.5552C155.253 52.6803 154.417 53.1444 153.844 53.9476C153.27 54.7376 153.057 55.7347 153.205 56.9389C153.364 58.2225 153.832 59.189 154.611 59.8385C155.401 60.4732 156.405 60.7212 157.624 60.5825C158.459 60.4876 159.135 60.1959 159.652 59.7077C160.183 59.2179 160.532 58.5609 160.699 57.7368L156.387 58.2274L156.078 55.7264L163.471 54.8853L163.86 58.0414C163.713 58.9169 163.379 59.7533 162.86 60.5505C162.353 61.3461 161.664 62.0217 160.792 62.5771C159.92 63.1325 158.901 63.4766 157.736 63.6092C156.358 63.766 155.089 63.6084 153.929 63.1365C152.781 62.6499 151.836 61.9053 151.095 60.9027C150.366 59.8987 149.917 58.7085 149.748 57.3323C149.578 55.956 149.725 54.6981 150.189 53.5584C150.665 52.4039 151.402 51.4679 152.402 50.7503C153.4 50.0195 154.588 49.5757 155.966 49.419C157.635 49.229 159.089 49.4729 160.328 50.1505C161.58 50.8265 162.48 51.8581 163.027 53.2451L159.271 53.6724ZM176.07 55.6257C176.109 55.9432 176.13 56.2763 176.133 56.6249L168.442 57.4999C168.58 58.182 168.864 58.6864 169.294 59.0133C169.735 59.3253 170.241 59.449 170.811 59.3842C171.658 59.2877 172.204 58.8633 172.447 58.1111L176.064 57.6996C175.968 58.4485 175.711 59.142 175.292 59.78C174.887 60.4165 174.341 60.9416 173.653 61.3554C172.965 61.7691 172.171 62.0272 171.27 62.1297C170.184 62.2533 169.188 62.1317 168.283 61.7651C167.378 61.3984 166.634 60.8121 166.051 60.0062C165.468 59.2003 165.106 58.2217 164.964 57.0704C164.822 55.9191 164.93 54.887 165.287 53.9741C165.658 53.0597 166.239 52.3227 167.03 51.7631C167.82 51.2035 168.766 50.8611 169.865 50.736C170.938 50.6139 171.92 50.7303 172.81 51.0853C173.7 51.4403 174.428 52.0082 174.995 52.7891C175.574 53.5686 175.933 54.5141 176.07 55.6257ZM172.482 55.1281C172.41 54.5458 172.155 54.1053 171.715 53.8064C171.275 53.5076 170.757 53.3921 170.161 53.4599C169.591 53.5247 169.128 53.7452 168.771 54.1212C168.428 54.4957 168.247 54.9926 168.23 55.6119L172.482 55.1281ZM184.393 57.557L184.748 60.4352L183.019 60.6319C181.787 60.7721 180.789 60.5837 180.027 60.0665C179.263 59.5362 178.797 58.5895 178.629 57.2265L178.086 52.8199L176.734 52.9736L176.387 50.155L177.738 50.0012L177.405 47.3017L180.803 46.9151L181.136 49.6146L183.362 49.3614L183.709 52.18L181.484 52.4333L182.032 56.8796C182.073 57.2104 182.182 57.4396 182.359 57.5671C182.536 57.6945 182.81 57.7372 183.18 57.695L184.393 57.557ZM197.466 59.1291C196.154 59.2783 194.911 59.1111 193.737 58.6275C192.575 58.1424 191.603 57.3942 190.82 56.3829C190.049 55.3569 189.579 54.1624 189.411 52.7994C189.243 51.4364 189.41 50.1762 189.912 49.0187C190.428 47.8597 191.191 46.9141 192.202 46.1818C193.227 45.4479 194.395 45.0064 195.706 44.8572C197.018 44.708 198.254 44.8759 199.416 45.361C200.59 45.8447 201.556 46.5936 202.312 47.6079C203.082 48.6206 203.551 49.8085 203.719 51.1715C203.887 52.5345 203.721 53.8014 203.22 54.9721C202.718 56.1296 201.962 57.0745 200.95 57.8068C199.939 58.5391 198.778 58.9799 197.466 59.1291ZM197.084 56.0325C198.197 55.9059 199.039 55.4344 199.61 54.618C200.194 53.8001 200.411 52.7824 200.261 51.5649C200.109 50.3343 199.651 49.3934 198.885 48.7425C198.132 48.0768 197.198 47.8073 196.086 47.9339C194.96 48.062 194.104 48.5284 193.518 49.3331C192.945 50.1363 192.735 51.1598 192.889 52.4037C193.04 53.6344 193.493 54.5826 194.247 55.2483C195.012 55.8992 195.958 56.1607 197.084 56.0325ZM211.019 49.0729L209.191 49.2809L210.209 57.5383L206.811 57.9249L205.793 49.6675L204.561 49.8077L204.213 46.989L205.445 46.8488L205.406 46.5312C205.238 45.1682 205.502 44.0916 206.197 43.3013C206.89 42.4978 207.992 42.0101 209.502 41.8383C209.754 41.8096 209.94 41.7951 210.061 41.7948L210.416 44.673C209.762 44.7072 209.317 44.8518 209.079 45.1069C208.842 45.362 208.759 45.7807 208.831 46.363L208.843 46.4622L210.672 46.2542L211.019 49.0729ZM218.18 48.2581L216.352 48.4661L217.37 56.7236L213.972 57.1102L212.954 48.8527L211.722 48.9929L211.374 46.1743L212.606 46.0341L212.567 45.7165C212.399 44.3535 212.663 43.2768 213.358 42.4866C214.051 41.683 215.153 41.1954 216.663 41.0235C216.915 40.9949 217.101 40.9804 217.222 40.9801L217.577 43.8583C216.923 43.8924 216.477 44.0371 216.24 44.2922C216.003 44.5473 215.92 44.966 215.992 45.5482L216.004 45.6475L217.833 45.4395L218.18 48.2581ZM230.543 49.428C230.582 49.7456 230.603 50.0786 230.605 50.4272L222.915 51.3022C223.053 51.9843 223.337 52.4888 223.767 52.8156C224.208 53.1276 224.714 53.2513 225.283 53.1865C226.131 53.09 226.677 52.6656 226.92 51.9134L230.536 51.5019C230.441 52.2508 230.184 52.9443 229.765 53.5823C229.36 54.2188 228.814 54.7439 228.126 55.1577C227.438 55.5714 226.644 55.8295 225.743 55.932C224.656 56.0556 223.661 55.9341 222.756 55.5674C221.851 55.2007 221.107 54.6144 220.524 53.8085C219.941 53.0026 219.578 52.024 219.436 50.8727C219.295 49.7215 219.402 48.6894 219.76 47.7764C220.131 46.862 220.712 46.125 221.502 45.5654C222.293 45.0058 223.238 44.6634 224.338 44.5383C225.411 44.4162 226.393 44.5326 227.283 44.8876C228.173 45.2426 228.901 45.8105 229.467 46.5915C230.047 47.3709 230.406 48.3164 230.543 49.428ZM226.955 48.9304C226.883 48.3481 226.627 47.9076 226.187 47.6087C225.748 47.3099 225.23 47.1944 224.633 47.2622C224.064 47.327 223.601 47.5475 223.244 47.9235C222.901 48.298 222.72 48.795 222.702 49.4142L226.955 48.9304ZM235.3 45.324C235.623 44.67 236.061 44.1371 236.614 43.7252C237.166 43.3001 237.807 43.0461 238.535 42.9632L238.978 46.556L238.044 46.6623C237.197 46.7587 236.584 47.0163 236.205 47.4351C235.825 47.8406 235.692 48.4999 235.804 49.413L236.438 54.5541L233.04 54.9407L231.674 43.8646L235.073 43.478L235.3 45.324ZM246.071 53.6192C245.103 53.7292 244.222 53.6618 243.426 53.4169C242.63 53.172 241.978 52.7899 241.471 52.2706C240.962 51.7381 240.637 51.1175 240.496 50.409L243.854 50.0269C243.941 50.4061 244.159 50.6967 244.506 50.8988C244.853 51.1008 245.259 51.1754 245.722 51.1227C246.146 51.0744 246.461 50.9581 246.667 50.7737C246.884 50.5745 246.976 50.3426 246.944 50.0779C246.905 49.7603 246.71 49.5476 246.361 49.4397C246.01 49.3186 245.453 49.2076 244.688 49.1068C243.87 49.0119 243.184 48.8954 242.63 48.7572C242.074 48.6058 241.577 48.3336 241.139 47.9406C240.699 47.5344 240.433 46.9541 240.34 46.1998C240.261 45.5647 240.363 44.9694 240.643 44.4141C240.936 43.8441 241.401 43.3685 242.039 42.9873C242.691 42.6045 243.487 42.3596 244.427 42.2526C245.818 42.0944 246.954 42.3141 247.833 42.9117C248.726 43.5079 249.303 44.3683 249.562 45.4927L246.422 45.85C246.322 45.4722 246.112 45.1875 245.793 44.9957C245.487 44.8024 245.102 44.7321 244.639 44.7848C244.241 44.83 243.946 44.9441 243.754 45.127C243.56 45.2967 243.479 45.5139 243.512 45.7785C243.551 46.0961 243.746 46.3155 244.097 46.4366C244.461 46.5562 245.01 46.6547 245.745 46.7321C246.593 46.8504 247.288 46.986 247.831 47.139C248.372 47.2787 248.863 47.5583 249.304 47.9777C249.757 48.3824 250.038 48.9678 250.145 49.7338C250.225 50.3822 250.112 50.9856 249.804 51.5439C249.509 52.0874 249.034 52.5439 248.381 52.9135C247.742 53.2815 246.971 53.5167 246.071 53.6192Z" fill="black"/>
<path d="M237.135 199.854L190.921 204.777C189.104 204.973 187.265 204.822 185.509 204.334C183.753 203.846 182.114 203.03 180.686 201.934C179.258 200.837 178.069 199.481 177.187 197.943C176.305 196.405 175.747 194.715 175.545 192.97C175.342 191.225 175.498 189.459 176.006 187.773C176.513 186.086 177.361 184.512 178.502 183.141C179.643 181.769 181.053 180.627 182.654 179.779C184.254 178.931 186.012 178.395 187.829 178.2L234.051 173.276C235.868 173.08 237.708 173.23 239.464 173.718C241.221 174.205 242.86 175.02 244.288 176.117C245.717 177.214 246.906 178.57 247.787 180.109C248.669 181.648 249.226 183.338 249.427 185.084C249.631 186.83 249.475 188.596 248.968 190.284C248.46 191.971 247.612 193.546 246.47 194.918C245.328 196.29 243.916 197.432 242.314 198.279C240.712 199.126 238.952 199.661 237.135 199.854Z" fill="#EE2524" stroke="#263238" stroke-linecap="round" stroke-linejoin="round"/>
<path d="M203.453 196.121L201.377 196.342L200.762 194.102L198.242 194.373L198.148 196.687L196.26 196.892L196.901 184.108L199.907 183.779L203.453 196.121ZM198.327 192.641L200.309 192.428L198.6 186.175L198.327 192.641Z" fill="#263238"/>
<path d="M209.432 185.896L209.62 187.538C209.859 189.548 208.971 190.746 206.921 190.968L205.947 191.066L206.494 195.792L204.443 196.014L202.983 183.451L206.015 183.123C208.031 182.893 209.167 183.886 209.432 185.896ZM205.246 185.018L205.742 189.269L206.716 189.162C207.365 189.097 207.689 188.768 207.57 187.874L207.356 185.987C207.254 185.092 206.861 184.838 206.212 184.912L205.246 185.018Z" fill="#263238"/>
<path d="M216.445 185.142L216.633 186.783C216.864 188.793 215.984 189.991 213.925 190.213L212.96 190.319L213.507 195.037L211.448 195.259L209.996 182.696L213.02 182.368C215.079 182.171 216.206 183.131 216.445 185.142ZM212.26 184.264L212.747 188.514L213.72 188.407C214.378 188.342 214.694 188.014 214.575 187.119L214.361 185.232C214.25 184.337 213.866 184.091 213.208 184.157L212.26 184.264Z" fill="#263238"/>
<path d="M217.035 181.933L219.093 181.712L220.341 192.477L223.758 192.116L223.963 193.913L218.53 194.496L217.035 181.933Z" fill="#263238"/>
<path d="M225.107 189.556L221.537 181.433L223.689 181.203L225.902 186.766L226.756 180.875L228.721 180.67L227.098 189.343L227.576 193.511L225.526 193.725L225.107 189.556Z" fill="#263238"/>
<path d="M243.237 211.538L187.681 217.486L187.872 219.134L243.428 213.185L243.237 211.538Z" fill="#999999" stroke="#263238" stroke-linecap="round" stroke-linejoin="round"/>
<path d="M323.164 154.633L102.149 178.273C102.149 178.273 92.5479 158.449 98.3566 145.583C104.165 132.716 121.754 140.052 129.203 128.113C136.652 116.174 128.024 108.264 136.225 91.9101C144.425 75.5564 167.925 66.8339 185.471 74.0056C203.017 81.1772 208.954 91.9921 220.11 88.9643C231.266 85.9364 237.622 72.0198 259.729 73.0373C281.837 74.0548 286.586 103.792 285.305 118.463C284.024 133.135 328.102 120.039 323.164 154.633Z" fill="white"/>
<path d="M91.053 179.463L334.423 153.427" stroke="#263238" stroke-linecap="round" stroke-linejoin="round"/>
<path d="M92.8212 176.173C91.7314 175.694 90.5387 175.472 89.3416 175.523C88.1445 175.574 86.9773 175.898 85.9361 176.468C84.1359 177.509 82.7269 179.072 81.9127 180.932C79.0681 186.627 71.2348 199.665 69.8681 203.407C68.5013 207.149 65.5969 217.496 62.3765 221.976C59.156 226.457 57.6099 233.046 57.6099 233.046L60.1726 295.572C61.5308 286.431 66.1522 275.879 66.1522 275.879C70.5922 273.338 74.2779 269.744 76.8557 265.441C77.6314 264.554 78.3179 263.597 78.9058 262.586C83.6383 254.552 85.304 240.48 84.8854 229.657C84.4498 217.389 88.2511 211.604 94.282 200.552C100.313 189.499 97.3145 178.306 92.8212 176.173Z" fill="white"/>
<path opacity="0.4" d="M92.8212 176.173C91.7277 175.709 90.5371 175.494 89.3426 175.545C88.1481 175.596 86.9822 175.912 85.9361 176.468C89.652 177.215 94.5638 178.749 93.6242 181.498C92.1549 185.839 86.6964 179.857 84.2789 182.032C81.8614 184.206 73.3362 196.514 79.5208 201.356C85.7055 206.197 84.3814 214.993 80.5288 217.66C76.6763 220.327 79.6234 226.013 81.46 235.113C82.579 240.619 80.6057 253.346 78.8973 262.545C83.6297 254.511 85.2954 240.439 84.8769 229.616C84.4412 217.348 88.2425 211.563 94.2734 200.511C100.304 189.458 97.3059 178.159 92.8212 176.173Z" fill="#EE2524"/>
<path d="M60.1811 295.531C61.5393 286.398 66.1607 275.838 66.1607 275.838C70.602 273.296 74.2902 269.702 76.8728 265.4C83.1513 258.286 85.3382 241.875 84.9025 229.616C84.4669 217.357 88.3194 211.604 94.2991 200.502C100.279 189.4 97.7929 178.438 92.8042 176.173C89.3274 174.597 84.7488 175.237 81.8956 180.932C79.0425 186.627 71.2178 199.665 69.851 203.399C68.4842 207.132 65.5798 217.496 62.3594 221.984C59.1389 226.473 57.6099 233.046 57.6099 233.046" stroke="#263238" stroke-linecap="round" stroke-linejoin="round"/>
<path d="M75.318 204.195C75.318 204.195 80.5544 204.351 83.0061 206.099" stroke="#263238" stroke-linecap="round" stroke-linejoin="round"/>
<path d="M55.6194 231.848C55.6194 231.848 54.4662 229.55 59.6429 226.974" stroke="#263238" stroke-linecap="round" stroke-linejoin="round"/>
<path d="M147.869 121.283C147.869 121.283 140.366 117.339 141.538 116.978C142.709 116.617 161.349 115.257 162.98 115.29C164.611 115.322 170.005 115.377 170.745 115.625C171.484 115.873 178.946 117.812 183.513 117.732C188.079 117.651 192.752 116.779 193.602 117.127C194.452 117.475 197.894 120.554 197.342 121.839C196.789 123.124 194.93 123.686 194.93 123.686L180.32 127.161C180.32 127.161 177.531 124.349 175.513 123.685C173.496 123.02 160.15 120.313 156.543 120.729C152.937 121.145 147.869 121.283 147.869 121.283Z" fill="#263238" stroke="#263238" stroke-miterlimit="10"/>
<path d="M147.271 130.301C147.271 130.301 142.456 144.723 136.285 150.578C136.285 150.578 135.238 151.15 137.242 150.919C139.245 150.688 144.537 142.58 146.21 139.705C147.883 136.83 149.78 134.929 152.385 134.629L156.193 134.19L147.271 130.301Z" fill="#263238" stroke="#263238" stroke-miterlimit="10"/>
<path d="M155.146 141.249C152.411 141.563 149.848 142.763 147.782 144.697C145.716 146.631 144.24 149.212 143.54 152.113C142.84 155.015 142.948 158.106 143.851 160.997C144.753 163.887 146.409 166.447 148.61 168.352C150.81 170.258 153.456 171.423 156.212 171.7C158.969 171.978 161.712 171.355 164.095 169.912C166.478 168.468 168.394 166.268 169.6 163.589C170.807 160.911 171.249 157.875 170.872 154.865C170.368 150.831 168.428 147.13 165.479 144.576C162.529 142.023 158.813 140.826 155.146 141.249ZM158.137 165.175C156.573 165.355 154.98 165.021 153.56 164.215C152.14 163.409 150.957 162.167 150.16 160.646C149.363 159.126 148.987 157.394 149.082 155.671C149.176 153.949 149.735 152.311 150.689 150.967C151.643 149.623 152.948 148.632 154.44 148.119C155.932 147.606 157.543 147.595 159.071 148.087C160.598 148.579 161.972 149.552 163.02 150.882C164.068 152.213 164.742 153.842 164.957 155.562C165.245 157.87 164.689 160.179 163.41 161.982C162.131 163.784 160.234 164.933 158.137 165.175Z" fill="#263238" stroke="#263238" stroke-miterlimit="10"/>
<path d="M156.262 150.176C155.133 150.307 154.074 150.802 153.222 151.601C152.369 152.4 151.759 153.466 151.471 154.664C151.182 155.862 151.227 157.138 151.6 158.332C151.972 159.525 152.656 160.582 153.565 161.369C154.473 162.156 155.566 162.637 156.704 162.751C157.842 162.866 158.975 162.609 159.959 162.013C160.943 161.417 161.734 160.509 162.232 159.403C162.731 158.298 162.914 157.044 162.758 155.801C162.55 154.135 161.749 152.606 160.53 151.551C159.312 150.496 157.777 150.002 156.262 150.176ZM157.498 160.061C156.85 160.137 156.191 159.999 155.603 159.666C155.014 159.333 154.524 158.82 154.193 158.19C153.863 157.561 153.707 156.845 153.745 156.131C153.784 155.418 154.015 154.74 154.409 154.183C154.804 153.626 155.344 153.215 155.962 153.003C156.579 152.79 157.246 152.785 157.879 152.989C158.511 153.192 159.08 153.595 159.514 154.146C159.948 154.696 160.227 155.371 160.316 156.083C160.435 157.037 160.205 157.992 159.677 158.738C159.149 159.484 158.365 159.96 157.498 160.061Z" fill="#263238" stroke="#263238" stroke-miterlimit="10"/>
<path d="M155.683 145.546C153.72 145.769 151.881 146.628 150.398 148.014C148.914 149.4 147.854 151.25 147.35 153.331C146.847 155.412 146.923 157.63 147.569 159.704C148.215 161.778 149.402 163.615 150.979 164.983C152.557 166.351 154.455 167.188 156.432 167.389C158.409 167.589 160.378 167.144 162.088 166.109C163.798 165.074 165.173 163.496 166.039 161.575C166.905 159.654 167.224 157.477 166.954 155.317C166.593 152.425 165.204 149.77 163.09 147.938C160.977 146.106 158.312 145.245 155.683 145.546ZM158.137 165.175C156.573 165.355 154.98 165.021 153.56 164.215C152.14 163.409 150.957 162.167 150.16 160.646C149.363 159.126 148.987 157.394 149.082 155.672C149.176 153.949 149.735 152.311 150.689 150.967C151.643 149.623 152.948 148.632 154.44 148.119C155.932 147.606 157.543 147.595 159.071 148.087C160.598 148.579 161.972 149.552 163.02 150.882C164.068 152.213 164.742 153.842 164.957 155.562C165.245 157.87 164.689 160.179 163.41 161.982C162.131 163.784 160.234 164.933 158.137 165.175Z" fill="white" stroke="#263238" stroke-miterlimit="10"/>
<path d="M160.614 134.577L158.165 146.716L160.066 147.276L162.612 135.126L160.614 134.577Z" fill="#263238" stroke="#263238" stroke-miterlimit="10"/>
<path d="M158.165 146.716C158.165 146.716 153.809 145.203 150.845 148.34C147.882 151.476 147.907 154.925 147.907 154.925C147.907 154.925 153.641 158.51 160.535 158.372C167.43 158.234 174.209 156.349 177.475 154.854C179.476 153.932 181.375 152.776 183.141 151.406L173.455 142.226C173.455 142.226 172.021 140.489 169.435 142.577C166.848 144.665 167.036 146.992 167.036 146.992L158.165 146.716Z" fill="#263238" stroke="#263238" stroke-miterlimit="10"/>
<path d="M162.612 135.126L161.183 147.26L170.124 150.48C169.865 149.143 169.975 147.764 170.44 146.521C171.221 144.641 172.539 144.597 172.864 144.77C173.188 144.944 175.12 145.741 175.12 145.741L173.452 138.887L162.612 135.126Z" fill="#263238" stroke="#263238" stroke-miterlimit="10"/>
<path d="M238.32 131.656C235.584 131.971 233.021 133.171 230.955 135.105C228.889 137.039 227.413 139.62 226.713 142.521C226.013 145.422 226.122 148.514 227.024 151.404C227.927 154.295 229.583 156.855 231.783 158.76C233.983 160.665 236.629 161.83 239.385 162.108C242.142 162.385 244.885 161.763 247.268 160.319C249.651 158.875 251.567 156.675 252.774 153.997C253.98 151.319 254.423 148.283 254.046 145.273C253.796 143.275 253.191 141.339 252.266 139.573C251.34 137.808 250.112 136.248 248.652 134.984C247.192 133.72 245.528 132.775 243.755 132.204C241.982 131.633 240.135 131.447 238.32 131.656ZM241.31 155.582C239.746 155.763 238.154 155.429 236.734 154.623C235.314 153.817 234.13 152.575 233.333 151.054C232.536 149.533 232.161 147.802 232.255 146.079C232.349 144.356 232.908 142.719 233.862 141.375C234.816 140.03 236.121 139.039 237.613 138.527C239.105 138.014 240.717 138.003 242.244 138.495C243.771 138.987 245.146 139.959 246.193 141.29C247.241 142.62 247.915 144.249 248.13 145.97C248.418 148.277 247.862 150.586 246.583 152.389C245.304 154.192 243.407 155.34 241.31 155.582Z" fill="#263238" stroke="#263238" stroke-miterlimit="10"/>
<path d="M239.435 140.584C238.306 140.714 237.248 141.21 236.395 142.009C235.542 142.807 234.933 143.873 234.644 145.071C234.355 146.269 234.4 147.546 234.773 148.739C235.146 149.933 235.829 150.99 236.738 151.776C237.646 152.563 238.739 153.044 239.877 153.159C241.015 153.273 242.148 153.016 243.132 152.421C244.116 151.825 244.907 150.916 245.406 149.811C245.904 148.705 246.087 147.451 245.932 146.209C245.723 144.542 244.922 143.013 243.704 141.958C242.485 140.903 240.95 140.409 239.435 140.584ZM240.671 150.468C240.024 150.544 239.364 150.407 238.776 150.074C238.188 149.741 237.697 149.227 237.367 148.598C237.036 147.969 236.88 147.252 236.919 146.539C236.957 145.825 237.188 145.147 237.583 144.59C237.977 144.033 238.517 143.623 239.135 143.41C239.752 143.198 240.42 143.193 241.052 143.396C241.684 143.6 242.253 144.002 242.687 144.553C243.121 145.104 243.4 145.778 243.489 146.49C243.609 147.445 243.379 148.399 242.85 149.145C242.322 149.891 241.538 150.367 240.671 150.468Z" fill="#263238" stroke="#263238" stroke-miterlimit="10"/>
<path d="M238.856 135.953C236.895 136.179 235.057 137.041 233.575 138.428C232.094 139.815 231.036 141.667 230.534 143.748C230.033 145.828 230.111 148.046 230.758 150.119C231.405 152.192 232.593 154.027 234.171 155.394C235.749 156.76 237.647 157.596 239.623 157.795C241.6 157.994 243.568 157.548 245.277 156.513C246.986 155.478 248.361 153.9 249.226 151.98C250.092 150.059 250.41 147.882 250.14 145.723C249.778 142.829 248.386 140.173 246.27 138.341C244.154 136.509 241.487 135.65 238.856 135.953ZM241.31 155.582C239.746 155.763 238.153 155.429 236.734 154.623C235.314 153.817 234.13 152.575 233.333 151.054C232.536 149.533 232.161 147.802 232.255 146.079C232.349 144.356 232.908 142.719 233.862 141.375C234.816 140.03 236.121 139.039 237.613 138.526C239.105 138.014 240.717 138.003 242.244 138.495C243.771 138.987 245.145 139.959 246.193 141.29C247.241 142.62 247.915 144.249 248.13 145.97C248.418 148.277 247.862 150.586 246.583 152.389C245.304 154.192 243.407 155.34 241.31 155.582Z" fill="white" stroke="#263238" stroke-miterlimit="10"/>
<path d="M225.765 134.178L237.134 136.613C237.134 136.613 242.397 131.053 249.32 131.996C249.32 131.996 245.986 124.756 230.718 125.178L225.765 134.178Z" fill="#EE2524" stroke="#263238" stroke-miterlimit="10"/>
<path d="M238.758 147.036L227.104 130.101L228.828 128.706L240.484 145.655C240.621 145.862 240.681 146.117 240.651 146.365C240.621 146.614 240.504 146.837 240.325 146.988L239.977 147.268C239.791 147.409 239.56 147.464 239.332 147.42C239.105 147.377 238.899 147.239 238.758 147.036Z" fill="#6E6E6E" stroke="#263238" stroke-miterlimit="10"/>
<path d="M211.985 102.371C211.985 102.371 221.381 105.985 224.036 107.689C226.691 109.393 232.136 113.129 233.087 114.25C234.038 115.371 236.84 119.073 236.206 120.49C235.572 121.907 235.15 122.735 234.703 123.115C234.256 123.495 231.996 124.207 231.073 125.77C230.15 127.332 222.941 144.492 222.941 144.492C222.941 144.492 220.368 150.716 219.862 150.775C219.357 150.833 213.839 153.818 206.386 154.339C198.934 154.86 189.736 153.69 188.119 153.764C186.502 153.838 184.572 153.055 183.814 152.691C183.055 152.328 180.878 151.132 177.556 148.157C174.234 145.181 172.195 144.303 171.873 140.089C171.873 140.089 147.651 131.699 146.393 130.613C145.134 129.528 141.831 124.206 142.809 123.088C143.788 121.97 148.258 120.332 154.167 120.435C160.075 120.538 173.201 122.265 175.94 123.852C177.517 124.744 178.989 125.853 180.318 127.151L194.929 123.677L196.051 125.347C196.051 125.347 191.69 133.563 191.759 134.114C191.828 134.665 199.106 144.902 199.106 144.902C199.106 144.902 196.055 145.7 193.864 146.065C191.672 146.431 189.811 146.979 189.811 146.979C189.811 146.979 209.604 145.927 212.682 145.346C215.76 144.766 217.308 140.89 217.63 139.406C217.953 137.923 215.779 131.123 216.358 126.805C216.937 122.487 217.999 119.57 216.138 116.877C214.277 114.184 208.263 108.39 208.031 106.534C207.799 104.678 211.985 102.371 211.985 102.371Z" fill="#EE2524" stroke="#263238" stroke-miterlimit="10"/>
<path d="M211.985 102.371C211.985 102.371 206.641 106.787 206.724 107.45C206.807 108.112 213.014 117.909 213.988 120.032C214.962 122.156 214.667 136.841 214.359 138.445C214.052 140.05 211.555 143.672 211.555 143.672L199.104 144.887L196.826 145.738L193.862 146.051C193.862 146.051 190.237 144.679 189.621 144.637C189.005 144.596 177.896 142.744 176.518 143.913C175.14 145.082 175.792 146.232 176.42 146.376C177.048 146.519 199.645 148.394 200.146 148.337C200.646 148.279 211.916 148.989 215.532 147.008C219.148 145.027 222.107 138.645 222.663 136.566L223.215 134.492L219.511 131.673C219.511 131.673 219.222 128.573 219.617 126.851C220.012 125.128 221.396 119.938 220.578 118.242C219.76 116.547 210.041 107.852 209.949 106.406C209.858 104.96 211.985 102.371 211.985 102.371Z" fill="#263238" stroke="#263238" stroke-miterlimit="10"/>
<path d="M217.281 134.975C216.238 135.434 215.27 136.492 214.443 137.685C214.415 138.036 214.385 138.295 214.36 138.445C214.051 140.045 211.555 143.672 211.555 143.672L199.104 144.887L196.826 145.738L193.862 146.051C192.758 146.481 191.692 147.011 190.673 147.634C195.586 148.048 199.932 148.371 200.147 148.346C200.648 148.288 211.918 148.999 215.534 147.018C219.15 145.037 222.109 138.655 222.664 136.575L223.216 134.501C221.22 133.993 219.15 134.158 217.281 134.975Z" fill="#263238" stroke="#263238" stroke-miterlimit="10"/>
<path d="M211.475 92.5842C211.475 92.5842 205.999 91.0927 204.206 92.1918C202.414 93.2909 199.653 96.4091 199.483 98.3311C199.314 100.253 200.232 101.04 201.698 102.214C203.164 103.388 207.197 107.17 207.197 107.17L211.985 102.371L212.563 101.294C212.563 101.294 214.971 100.237 215.004 99.6743C214.864 97.993 214.486 96.3375 213.882 94.768C213.675 94.217 213.345 93.7279 212.924 93.3462C212.504 92.9644 212.005 92.7023 211.475 92.5842Z" fill="#EE2524" stroke="#263238" stroke-miterlimit="10"/>
<path d="M211.311 93.0544C211.311 93.0544 210.666 95.0263 211.508 96.2726C212.35 97.519 214.324 100.979 214.596 99.839C214.868 98.6995 213.82 95.2313 213.015 94.3189C212.528 93.7769 211.948 93.3465 211.311 93.0544Z" fill="white" stroke="#263238" stroke-miterlimit="10"/>
<path d="M203.472 103.75C205.178 105.274 207.197 107.17 207.197 107.17L211.985 102.371L212.563 101.294C213.26 100.988 213.931 100.618 214.569 100.19C212.389 99.363 207.515 97.6598 206.536 98.6357C205.557 99.6115 204.148 102.383 203.472 103.75Z" fill="#6E6E6E" stroke="#263238" stroke-miterlimit="10"/>
<path d="M203.821 94.8105C203.821 94.8105 202.746 86.9961 201.497 86.9146C200.248 86.8331 198.185 88.0811 198.185 88.0811C197.607 87.381 197.171 86.5572 196.906 85.6661C196.641 84.775 196.553 83.8378 196.648 82.9187C196.66 82.7996 196.676 82.6753 196.695 82.5455C197.182 79.1355 202.365 84.7993 202.889 85.7537C203.236 86.4994 203.44 87.3104 203.49 88.1361L204.864 94.2439C204.864 94.2439 206.706 95.1494 205.921 95.3528C205.135 95.5562 201.91 95.8154 202.603 94.8381C203.297 93.8609 203.821 94.8105 203.821 94.8105Z" fill="#263238" stroke="#263238" stroke-miterlimit="10"/>
<path d="M210.781 103.579L199.538 99.4819C199.769 100.617 200.567 101.295 201.693 102.175C203.177 103.348 207.192 107.131 207.192 107.131L210.781 103.579Z" fill="#263238" stroke="#263238" stroke-miterlimit="10"/>
<path d="M160.992 114.215L133.18 117.422L133.277 118.205L161.09 114.998L160.992 114.215Z" fill="#263238" stroke="#263238" stroke-miterlimit="10"/>
<path d="M197.694 145.261C198.529 145.061 199.107 144.911 199.107 144.911C199.107 144.911 191.828 134.66 191.759 134.113C191.691 133.567 196.051 125.347 196.051 125.347L194.93 123.686L180.32 127.161C180.32 127.161 190.202 137.093 193.349 140.309C194.876 141.875 196.326 143.528 197.694 145.261Z" fill="#6E6E6E" stroke="#263238" stroke-miterlimit="10"/>
<path d="M233.908 120.034L235.705 120.332" stroke="#263238" stroke-miterlimit="10"/>
<path d="M221.43 117.968L232.402 119.786" stroke="#263238" stroke-miterlimit="10"/>
<path d="M227.762 118.036L220.259 112.483L224.361 113.212L232.106 118.742L227.762 118.036Z" fill="white" stroke="#263238" stroke-miterlimit="10"/>
<path d="M184.829 136.609C186.475 136.581 187.65 136.573 187.65 136.573" stroke="#263238" stroke-miterlimit="10"/>
<path opacity="0.2" d="M238.989 185.01C249.427 185.092 262.488 230.288 266.555 235.491C266.555 235.491 324.856 237.419 332.202 245.231C339.549 253.042 335.909 259.64 340.744 267.049C345.579 274.459 346.963 286.948 346.963 286.948L359.777 307.716L304.858 332.989C304.858 332.989 275.515 316.841 268.357 313.197C261.199 309.554 239.988 301.595 234.35 291.305C228.712 281.015 228.43 271.357 227.217 267.082C226.004 262.807 249.581 250.006 249.581 250.006L238.989 185.01Z" fill="black" fill-opacity="0.7"/>
<path d="M367.089 311.819C362.357 307.618 357.385 303.154 353.293 299.461C348.074 294.751 344.29 291.313 344.29 291.313C341.18 285.044 338.447 282.935 335.004 277.987C331.562 273.039 332.091 267.821 331.28 260.912C330.468 254.003 327.555 248.054 325.77 243.984C323.984 239.914 323.839 235.704 323.48 234.793C323.122 233.883 317.714 229.87 315.212 226.588C314.089 225.125 312.717 223.854 311.154 222.83C309.405 221.638 307.394 220.849 305.277 220.524C304.399 220.411 303.511 220.394 302.629 220.475C300.889 220.741 299.175 221.145 297.503 221.681C295.299 222.19 289.73 219.605 286.518 219.728C285.92 219.728 285.331 219.81 284.733 219.892C281.968 220.388 279.249 221.094 276.6 222.001C273.705 222.822 269.57 221 266.58 220.787H266.52C265.855 220.717 265.182 220.798 264.556 221.025C261.728 222.165 256.321 223.905 256.321 223.905C256.321 223.905 254.929 220.368 253.442 215.469C253.186 214.649 252.921 213.828 252.639 213.008C251.597 210.021 250.461 207.387 249.76 204.909C249.575 204.274 249.424 203.63 249.308 202.98C248.676 199.395 247.873 196.662 246.412 191.296L246.258 190.721C245.797 189.08 245.404 187.439 244.968 185.995C243.883 182.516 242.406 180.103 238.638 180.399C235.324 180.661 233.513 182.696 233.419 188.079C233.325 193.462 232.257 193.323 233.735 200.831C235.213 208.339 234.666 213.459 235.854 217.168C237.041 220.877 237.998 228.385 237.998 228.385C236.349 228.016 235.145 228.918 235.042 229.566C234.94 230.215 235.281 236.238 235.452 240.562C235.597 244.402 232.966 248.587 232.309 251.41C232.309 251.41 232.309 251.459 232.309 251.475C232.235 251.78 232.192 252.09 232.18 252.403C232.086 255.16 233.838 260.608 235.597 267.689C237.357 274.771 237.306 282.459 240.347 286.776C240.975 287.646 241.746 288.413 242.628 289.049C246.284 291.748 252.195 293.447 258.251 297.738C265.811 303.113 271.219 307.101 275.695 308.405C278.907 309.357 280.461 310.375 281.41 311.975C281.788 312.677 282.075 313.421 282.264 314.19C282.691 315.676 283.827 316.652 285.732 318.211C288.712 320.604 291.46 323.251 293.941 326.121C296.265 328.78 300.109 333.982 304.192 339.767L367.089 311.819Z" fill="white"/>
<path opacity="0.4" d="M249.274 202.956C249.39 203.606 249.541 204.249 249.726 204.884C244.823 205.114 236.323 209.414 236.845 212.097C237.494 215.379 238.989 223.133 241.116 224.52C243.243 225.907 247.241 226.21 247.241 226.21C246.976 226.291 246.716 226.387 246.463 226.498L246.378 226.539C245.264 227.051 244.338 227.875 243.721 228.902C241.022 233.259 242.816 241.128 244.934 244.624C253.741 259.164 248.872 273.392 245.686 272.522C242.5 271.653 238.903 258.253 238.972 254.897C239.028 252.933 238.806 250.97 238.314 249.063C236.964 248.948 234.478 250.138 232.24 251.41C232.24 251.41 232.24 251.369 232.24 251.344C232.898 248.521 235.529 244.336 235.384 240.496C235.213 236.172 234.863 230.149 234.974 229.501C235.085 228.853 236.281 227.95 237.929 228.319C237.929 228.319 236.964 220.819 235.785 217.102C234.606 213.385 235.145 208.281 233.667 200.765C232.189 193.249 233.257 193.38 233.351 188.014C233.445 182.647 235.256 180.629 238.57 180.333C242.354 180.038 243.815 182.45 244.9 185.929C244.388 185.652 243.857 185.408 243.311 185.199C241.942 184.603 240.39 184.524 238.963 184.978C237.323 185.593 236.247 187.562 235.743 189.507C235.008 192.305 235.461 195.062 237.135 193.708C239.031 192.182 243.559 191.501 246.352 191.247C247.873 196.638 248.641 199.403 249.274 202.956Z" fill="#EE2524"/>
<path opacity="0.4" d="M282.255 314.207C282.068 313.439 281.781 312.698 281.401 311.999C280.453 310.399 278.898 309.382 275.686 308.43C271.21 307.093 265.803 303.105 258.243 297.763C252.187 293.471 246.284 291.773 242.619 289.073C246.634 290.107 251.23 288.047 253.476 290.624C256.74 294.341 268.724 298.354 268.724 298.354C281.188 305.632 282.255 314.207 282.255 314.207Z" fill="#EE2524"/>
<path opacity="0.4" d="M266.495 220.737C265.248 220.737 263.932 229.181 264.282 231.979C265.23 239.208 274.405 260.083 269.408 260.698C267.349 260.961 262.48 251.344 261.156 246.65C257.149 232.373 256.261 226.26 256.261 226.26C256.261 226.26 253.211 218.546 252.579 212.958C252.861 213.779 253.126 214.6 253.382 215.42C254.869 220.343 256.261 223.855 256.261 223.855C256.261 223.855 261.668 222.116 264.496 220.975C265.133 220.744 265.818 220.662 266.495 220.737Z" fill="#EE2524"/>
<path opacity="0.4" d="M284.707 219.917C282.144 220.737 280.137 223.798 278.112 224.725C275.635 225.866 269.442 221.32 266.555 220.811C269.544 221.024 273.679 222.879 276.575 222.026C279.224 221.118 281.943 220.413 284.707 219.917Z" fill="#EE2524"/>
<path opacity="0.4" d="M302.612 220.45C301.706 222.302 301.099 224.274 300.809 226.301C300.331 233.308 308.497 257.547 304.072 254.282C298.349 250.039 298.417 230.765 293.48 224.545C291.9 222.551 287.381 219.827 286.518 219.703C289.73 219.58 295.299 222.165 297.503 221.656C299.169 221.121 300.877 220.718 302.612 220.45Z" fill="#EE2524"/>
<path opacity="0.4" d="M353.276 299.428C348.911 296.491 344.401 293.767 341.735 292.946C335.192 291.026 332.715 288.023 330.827 282.55C328.939 277.077 330.451 276.855 330.827 270.922C331.203 264.99 326.265 258.877 326.88 260.304C327.495 261.732 327.342 272.613 325.479 273.556C323.617 274.5 321.208 267.771 319.568 262.192C317.928 256.612 314.588 229.673 312.418 224.75C312.116 224.03 311.695 223.363 311.171 222.772C312.734 223.796 314.106 225.067 315.229 226.53C317.732 229.813 323.139 233.809 323.498 234.736C323.856 235.663 323.993 239.856 325.787 243.926C327.581 247.996 330.485 253.937 331.297 260.854C332.108 267.771 331.596 272.99 335.021 277.93C338.447 282.87 341.197 284.987 344.307 291.256C344.272 291.305 348.057 294.718 353.276 299.428Z" fill="#EE2524"/>
<path opacity="0.4" d="M282.529 235.122C284.16 236.139 289.277 253.174 291.071 257.277C292.865 261.379 293.104 272.047 291.028 269.257C288.953 266.467 275.874 230.978 282.529 235.122Z" fill="#EE2524"/>
<path d="M302.637 337.584C299.135 332.702 295.957 328.452 293.933 326.138C291.451 323.268 288.704 320.62 285.724 318.227C283.819 316.652 282.682 315.692 282.255 314.207C282.068 313.439 281.781 312.698 281.401 311.999C280.453 310.399 278.898 309.382 275.686 308.43C271.21 307.093 265.803 303.105 258.243 297.763C252.186 293.471 246.284 291.773 242.619 289.073C241.737 288.438 240.967 287.67 240.338 286.8C237.323 282.517 237.348 274.779 235.589 267.714C233.829 260.649 232.078 255.184 232.172 252.427C232.184 252.115 232.227 251.804 232.3 251.5C232.3 251.5 232.3 251.459 232.3 251.434C232.958 248.612 235.589 244.427 235.444 240.587C235.273 236.262 234.922 230.239 235.034 229.591C235.145 228.943 236.34 228.04 237.989 228.41C237.989 228.41 237.024 220.91 235.845 217.193C234.666 213.475 235.204 208.372 233.727 200.855C232.249 193.339 233.317 193.47 233.41 188.104C233.504 182.737 235.315 180.719 238.63 180.423C242.414 180.128 243.875 182.541 244.96 186.02C245.412 187.456 245.814 189.072 246.25 190.746L246.403 191.32C247.864 196.687 248.667 199.419 249.299 203.005C249.415 203.655 249.566 204.299 249.752 204.933C250.452 207.395 251.588 210.046 252.631 213.032C252.913 213.853 253.177 214.673 253.434 215.494C254.92 220.417 256.312 223.929 256.312 223.929C256.312 223.929 261.72 222.19 264.547 221.049C265.174 220.823 265.847 220.742 266.512 220.811H266.572C269.562 221.025 273.696 222.879 276.592 222.026C279.241 221.118 281.96 220.413 284.724 219.917C285.322 219.835 285.911 219.777 286.509 219.753C289.721 219.63 295.291 222.214 297.495 221.706C299.166 221.169 300.88 220.766 302.62 220.499C303.502 220.419 304.39 220.435 305.268 220.549C307.386 220.874 309.397 221.663 311.145 222.854C312.709 223.879 314.081 225.149 315.203 226.613C317.706 229.895 323.113 233.891 323.472 234.818C323.831 235.745 323.967 239.938 325.761 244.008C327.555 248.078 330.46 254.019 331.271 260.936C332.083 267.854 331.57 273.072 334.996 278.012C338.421 282.952 341.172 285.069 344.281 291.338C344.281 291.338 348.065 294.776 353.285 299.486C356.915 302.768 361.237 306.641 365.466 310.408" stroke="#263238" stroke-linecap="round" stroke-linejoin="round"/>
<path d="M237.955 228.352C239.245 233.538 240.355 240.094 240.202 242.958C240.048 245.822 242.833 254.643 242.269 258.762" stroke="#263238" stroke-linecap="round" stroke-linejoin="round"/>
<path d="M241.756 231.798C241.756 231.798 244.498 226.875 247.283 226.21C250.068 225.546 253.263 226.662 256.295 226.301C259.328 225.94 261.865 223.15 264.564 222.001" stroke="#263238" stroke-linecap="round" stroke-linejoin="round"/>
<path d="M239.177 212.409C239.177 212.409 243.798 209.463 246.865 210.636" stroke="#263238" stroke-linecap="round" stroke-linejoin="round"/>
<path d="M242.448 209.249C243.719 208.744 245.131 208.666 246.455 209.028" stroke="#263238" stroke-linecap="round" stroke-linejoin="round"/>
<path d="M237.964 196.941C239.583 196.182 241.356 195.776 243.157 195.751" stroke="#263238" stroke-linecap="round" stroke-linejoin="round"/>
<path d="M232.274 251.377C233.562 250.332 234.956 249.413 236.434 248.636" stroke="#263238" stroke-linecap="round" stroke-linejoin="round"/>
<path d="M242.064 254.224C241.475 255.801 241.058 257.431 240.817 259.09" stroke="#263238" stroke-linecap="round" stroke-linejoin="round"/>
<path d="M234.794 184.231C234.794 184.231 235.503 190.41 236.417 190.795C237.331 191.181 243.516 190.262 243.747 189.113C243.977 187.964 242.978 183.55 242.978 183.55C242.978 183.55 237.87 178.372 234.794 184.231Z" stroke="#263238" stroke-linecap="round" stroke-linejoin="round"/>
<path d="M235.409 240.529C235.409 240.529 239.817 236.943 239.074 233.44C238.331 229.936 236.861 230.305 234.991 230.715" stroke="#263238" stroke-linecap="round" stroke-linejoin="round"/>
<path d="M315.604 230.461C317.142 235.918 319.491 252.32 319.876 254.716C320.26 257.112 321.96 263.102 321.96 263.102" stroke="#263238" stroke-linecap="round" stroke-linejoin="round"/>
<path d="M276.652 226.104C283.93 232.414 277.813 230.789 290.217 266.024" stroke="#263238" stroke-linecap="round" stroke-linejoin="round"/>
<path d="M344.272 291.305C344.272 291.305 338.6 288.843 337.276 286.981" stroke="#263238" stroke-linecap="round" stroke-linejoin="round"/>
<path d="M277.07 304.918C279.069 306.879 281.23 311.679 281.341 311.975" stroke="#263238" stroke-linecap="round" stroke-linejoin="round"/>
</svg>
