<svg width="44" height="44" viewBox="0 0 44 44" fill="none" xmlns="http://www.w3.org/2000/svg">
<path d="M21.9998 3.66669C21.6002 3.66669 21.2078 3.67035 20.8228 3.67585L19.6935 3.70702L19.1453 3.73085L18.0838 3.79319L17.07 3.87752C8.2975 4.72819 4.728 8.29769 3.87734 17.0702L3.793 18.084L3.73067 19.1455C3.7215 19.3252 3.71234 19.5085 3.70684 19.6937L3.67567 20.823L3.66834 21.406L3.6665 22C3.6665 22.3997 3.67017 22.792 3.67567 23.177L3.70684 24.3064L3.73067 24.8545L3.793 25.916L3.87734 26.9299C4.728 35.7024 8.2975 39.2719 17.07 40.1225L18.0838 40.2069L19.1453 40.2692C19.325 40.2784 19.5083 40.2875 19.6935 40.293L20.8228 40.3242L21.9998 40.3334L23.1768 40.3242L24.3062 40.293L24.8543 40.2692L25.9158 40.2069L26.9297 40.1225C35.7022 39.2719 39.2717 35.7024 40.1223 26.9299L40.2067 25.916L40.269 24.8545C40.2782 24.6749 40.2873 24.4915 40.2928 24.3064L40.324 23.177L40.3332 22L40.324 20.823L40.2928 19.6937L40.269 19.1455L40.2067 18.084L40.1223 17.0702C39.2717 8.29769 35.7022 4.72819 26.9297 3.87752L25.9158 3.79319L24.8543 3.73085C24.6717 3.72193 24.4889 3.71399 24.3062 3.70702L23.1768 3.67585L22.5938 3.66852L21.9998 3.66669ZM20.7037 17.0372C21.0194 16.7215 21.4394 16.5319 21.8849 16.5039C22.3305 16.4759 22.7709 16.6114 23.1237 16.885L23.296 17.0372L28.796 22.5372C29.1248 22.8671 29.3157 23.3098 29.3299 23.7754C29.3441 24.241 29.1806 24.6945 28.8725 25.0439C28.5645 25.3932 28.135 25.6122 27.6713 25.6564C27.2076 25.7006 26.7445 25.5666 26.376 25.2817L26.2037 25.1295L21.9998 20.9275L17.796 25.1295C17.4803 25.4452 17.0603 25.6348 16.6148 25.6628C16.1692 25.6908 15.7287 25.5553 15.376 25.2817L15.2037 25.1295C14.888 24.8138 14.6984 24.3938 14.6704 23.9483C14.6424 23.5027 14.7779 23.0623 15.0515 22.7095L15.2037 22.5372L20.7037 17.0372Z" fill="#EE2524"/>
</svg>
