<svg width="44" height="44" viewBox="0 0 44 44" fill="none" xmlns="http://www.w3.org/2000/svg">
<path d="M22.0002 40.3334C22.3998 40.3334 22.7922 40.3297 23.1772 40.3242L24.3065 40.293L24.8547 40.2692L25.9162 40.2069L26.93 40.1225C35.7025 39.2719 39.272 35.7024 40.1227 26.9299L40.207 25.916L40.2693 24.8545C40.2785 24.6749 40.2877 24.4915 40.2932 24.3064L40.3243 23.177L40.3317 22.594L40.3335 22C40.3335 21.6004 40.3298 21.208 40.3243 20.823L40.2932 19.6937L40.2693 19.1455L40.207 18.084L40.1227 17.0702C39.272 8.29771 35.7025 4.72821 26.93 3.87754L25.9162 3.79321L24.8547 3.73088C24.675 3.72171 24.4917 3.71254 24.3065 3.70704L23.1772 3.67587L22.0002 3.66671L20.8232 3.67587L19.6938 3.70704L19.1457 3.73088L18.0842 3.79321L17.0703 3.87754C8.29783 4.72821 4.72833 8.29771 3.87766 17.0702L3.79333 18.084L3.731 19.1455C3.72183 19.3252 3.71266 19.5085 3.70716 19.6937L3.67599 20.823L3.66683 22L3.67599 23.177L3.70716 24.3064L3.731 24.8545L3.79333 25.916L3.87766 26.9299C4.72833 35.7024 8.29783 39.2719 17.0703 40.1225L18.0842 40.2069L19.1457 40.2692C19.3283 40.2781 19.5111 40.2861 19.6938 40.293L20.8232 40.3242L21.4062 40.3315L22.0002 40.3334ZM23.2963 26.9629C22.9806 27.2785 22.5606 27.4682 22.1151 27.4962C21.6695 27.5242 21.2291 27.3887 20.8763 27.115L20.704 26.9629L15.204 21.4629C14.8752 21.133 14.6843 20.6902 14.6701 20.2247C14.6559 19.7591 14.8194 19.3056 15.1275 18.9562C15.4355 18.6068 15.865 18.3878 16.3287 18.3436C16.7924 18.2995 17.2555 18.4335 17.624 18.7184L17.7963 18.8705L22.0002 23.0725L26.204 18.8705C26.5197 18.5549 26.9397 18.3653 27.3852 18.3372C27.8308 18.3092 28.2713 18.4447 28.624 18.7184L28.7963 18.8705C29.112 19.1862 29.3016 19.6062 29.3296 20.0518C29.3576 20.4973 29.2221 20.9378 28.9485 21.2905L28.7963 21.4629L23.2963 26.9629Z" fill="#EE2524"/>
</svg>
